<svg width="217" height="201" viewBox="0 0 217 201" fill="none" xmlns="http://www.w3.org/2000/svg">
<rect width="217" height="201" fill="#1E1E1E"/>
<g clip-path="url(#clip0_0_1)">
<rect x="-1184" y="-760" width="1440" height="1024" rx="15" fill="#F6F6F6"/>
<path fill-rule="evenodd" clip-rule="evenodd" d="M105.811 4.5008C134.858 5.34946 166.738 -2.11863 188.758 16.8444C211.719 36.6192 219.208 69.6126 216.458 99.7907C213.923 127.614 195.618 150.135 174.904 168.883C155.442 186.498 132.001 198.163 105.811 199.94C77.5003 201.86 47.1208 198.603 26.6614 178.941C5.91888 159.006 3.1149 128.52 1.6037 99.7907C-0.0241652 68.8436 -4.99758 32.7644 17.8723 11.8517C40.439 -8.78384 75.2452 3.60776 105.811 4.5008Z" fill="#3177E1"/>
</g>
<defs>
<clipPath id="clip0_0_1">
<rect x="-1184" y="-760" width="1440" height="1024" rx="15" fill="white"/>
</clipPath>
</defs>
</svg>
