<svg xmlns="http://www.w3.org/2000/svg" data-name="Layer 1" viewBox="0 0 3556.92 2469.89"><path fill="#fcf8e8" d="M3367.91 1349.93c-22.22 155-67.06 307.19-133.94 448.26a1411.84 1411.84 0 0 1-135.11 227.92 1299 1299 0 0 1-81.64 101q-39.48 44.19-83.14 84.69a970.308 970.308 0 0 1-19.3 17.46q-5.61 5-11.31 10-13.21 11.47-26.83 22.59s0 0-.11.06q-35.82 29.27-74.13 55.94-15.84 11-32.06 21.5c-107.35 69.6-223.11 120.51-343.51 156-14.31 4.25-28.74 8.23-43.22 12-1.39.33-2.82.72-4.26 1.1-131.67 34.14-268.35 50.55-405.35 53.19-72.08 1.42-144.26-1-215.84-6.54q-5.67-.43-11.32-.91h-.5l-.9-.07-8.24-.72c-4.1-.35-8.2-.7-12.26-1.09h-.82c-3.6-.28-7.14-.61-10.67-1h-.11c-7.13-.66-14.16-1.38-21.23-2.1-78.19-8.17-154.7-7.77-231.41-10.95-32.26-1.33-64.54-3.3-97-6.8-.83-.11-1.61-.16-2.38-.27a838.6 838.6 0 0 1-108.18-18.69c-62.34-15.34-122.5-35.92-179.2-61.85h-.06q-33.15-15.16-64.65-32.79c-2.6-1.44-5.2-2.93-7.79-4.42h-.06c-160.31-92-284.63-232.4-339.75-423.5-65.39-226.7-15.92-461.74 122.45-649.8 65-88.39 143.34-156.88 230.29-210.89 6.08-3.82 12.22-7.58 18.41-11.17q29.28-17.25 59.65-32.56h.11c5.81-3 11.61-5.81 17.47-8.63 35.43-17.08 71.92-32.34 109.18-46q21.06-7.8 42.45-14.87a.37.37 0 0 1 .22 0c20.79-7 41.79-13.49 63-19.63 74.52-21.61 151-38.53 227.59-53.12 285.68-54.34 630.4-80.77 859.87-280 1.43-1.22 2.87-2.49 4.25-3.82C2443.09 635.39 2466 606.7 2488 577c2.71-3.7 5.48-7.35 8.18-11.11v-.05c42.62-58.49 83.09-119.13 142.24-154 62.68-36.92 135.43-51.35 207.68-45.49 259.65 21.17 459.7 267.33 512.72 508.85 33.96 154.94 31.53 318.4 9.09 474.73Z" transform="translate(-221.54 -316.06)"/><g opacity=".43"><path fill="#e7e4f9" d="M2375.04 870.31h513.3v778.13h-513.3z"/><path fill="#fff" d="M2457.96 961.46h75.14v75.14h-75.14zM2730.29 961.46h75.14v75.14h-75.14zM2457.96 1221.81h75.14v75.14h-75.14zM2730.29 1221.81h75.14v75.14h-75.14zM2457.96 1482.16h75.14v75.14h-75.14zM2730.29 1482.16h75.14v75.14h-75.14z"/><path fill="#e7e4f9" d="M2375.04 101.11h513.3v778.13h-513.3z"/><path fill="#fff" d="M2457.96 192.26h75.14v75.14h-75.14zM2730.29 192.26h75.14v75.14h-75.14zM2457.96 452.61h75.14v75.14h-75.14zM2730.29 452.61h75.14v75.14h-75.14zM2457.96 712.96h75.14v75.14h-75.14zM2730.29 712.96h75.14v75.14h-75.14z"/></g><g opacity=".43"><path fill="#e7e4f9" d="M1974 1812.88v748.76c-72.08 1.42-144.26-1-215.84-6.54q-5.67-.43-11.32-.91h-.5l-.9-.07-8.24-.72c-4.1-.35-8.2-.7-12.26-1.09h-.82c-3.6-.28-7.14-.61-10.67-1h-.11c-7.13-.66-14.16-1.38-21.23-2.1-78.19-8.17-154.7-7.77-231.41-10.95v-725.38Z" transform="translate(-221.54 -316.06)"/><path fill="#fff" d="M1322.09 1587.98h75.14v75.14h-75.14zM1594.42 1587.98h75.14v75.14h-75.14zM1322.09 1848.32h75.14v75.14h-75.14zM1594.42 1848.32h75.14v75.14h-75.14zM1322.09 2108.67h75.14v75.14h-75.14zM1594.42 2108.67h75.14v75.14h-75.14z"/><path fill="#e7e4f9" d="M1239.17 727.63h513.3v778.13h-513.3z"/><path fill="#fff" d="M1322.09 818.77h75.14v75.14h-75.14zM1594.42 818.77h75.14v75.14h-75.14zM1322.09 1079.12h75.14v75.14h-75.14zM1594.42 1079.12h75.14v75.14h-75.14zM1322.09 1339.47h75.14v75.14h-75.14zM1594.42 1339.47h75.14v75.14h-75.14z"/></g><path fill="#ff5733" d="M2871.37 2094.42S2937 1862.06 3169.5 1842c0 0 59.47-199.74 334.79-215.61s419.59 298.41 60.53 392.65-426.23 24.79-426.23 24.79-183.88 215.9-267.22 50.59Z" transform="translate(-221.54 -316.06)"/><path fill="#fff" d="M2850.49 2172.11c8.65-10.56 17.67-20.49 26.92-30.33s18.73-19.38 28.39-28.76q29-28.09 60.27-53.78t64.38-48.73c22.14-15.31 44.87-29.78 68.26-43.1a806.81 806.81 0 0 1 147.06-66 690.22 690.22 0 0 1 157.66-32.63.83.83 0 0 1 .15 1.65 687.86 687.86 0 0 0-156.86 33.81 802.64 802.64 0 0 0-145.85 66.92c-23.17 13.44-45.65 28-67.56 43.44s-43.09 31.82-63.63 49-40.37 35.18-59.45 54q-14.28 14.1-28 28.78c-9.05 9.8-18 19.84-26.29 30.13l-.06.06a3.5 3.5 0 0 1-5.45-4.39Z" transform="translate(-221.54 -316.06)"/><path fill="#fcbf1e" d="M3335.52 2394.42c-212.22-131.18-254.68-162.08-254.68-162.08s-46.32 67.44-168.49 55.56c-25.37-2.38-54-8.3-86.23-18.91a192.51 192.51 0 0 1-23.72-9.4c-9.39-4.59-16.53-9.4-21.78-14.37-10.33-9.95-13-20.56-10.17-31.45 8.51-32.34 66-67.11 117.75-92.6.27-.11.6-.27.88-.38 7.46-3.65 14.76-7.13 21.84-10.34 6.91-3.15 13.59-6.14 19.79-8.85 25.7-11 44-17.8 44-17.8s16.08-6.79 42.51-14.92c30-9.23 73.24-20.23 121.34-24.93.05 0 .05-.06.05-.06 56.5-5.53 119.57-2.43 175.68 22.11a231.38 231.38 0 0 1 65.61 42.85s177.51-44.34 291.38 132.17-123.49 284.63-335.76 153.4Z" transform="translate(-221.54 -316.06)"/><path fill="#fff" d="M2833.89 2204.52c11.68-2.88 23.31-5.35 35-7.72s23.42-4.52 35.18-6.53q35.25-6.06 70.79-10.2a1169.88 1169.88 0 0 1 142.73-8.24c47.66.36 95.42 4 142.28 13 11.71 2.26 23.37 4.8 34.9 7.82s23 6.29 34.3 10.14 22.48 8 33.41 12.75 21.68 10 32.15 15.67a.79.79 0 0 1-.75 1.39q-15.72-8.37-32.14-15.29c-10.93-4.64-22.1-8.66-33.37-12.37s-22.71-6.89-34.22-9.77-23.14-5.32-34.81-7.45c-46.72-8.5-94.29-11.7-141.75-11.6a1161.35 1161.35 0 0 0-142 9.55q-35.32 4.49-70.38 10.81-17.5 3.18-34.93 6.83c-11.59 2.46-23.21 5-34.6 8h-.05a3.5 3.5 0 1 1-1.74-6.78Z" transform="translate(-221.54 -316.06)"/><path fill="#000839" d="M2899.92 2234c-8.81 7.65-14.22 20.46-23.3 27.87l-.11.06q-35.82 29.27-74.13 55.94-15.84 11-32.06 21.5c-107.35 69.6-223.11 120.51-343.51 156-14.31 4.25-28.74 8.23-43.22 12-1.39.33-2.82.72-4.26 1.1-131.65 34.12-268.33 50.53-405.33 53.17-72.08 1.42-144.26-1-215.84-6.54.82-5.63 1.81-11.34 3-17.09 9.82-49 31.33-101.69 54.82-149.05q4.33-8.74 8.74-17.23c4.78-9.2 9.59-18.15 14.35-26.76a1241.42 1241.42 0 0 1 66.39-107.07s2.88-.78 8.35-2.21c10.78-2.82 31.64-8.17 60.22-15 198.66-47.37 770-165.56 916.45 1.27 0 0 .06 0 .06.05a138.83 138.83 0 0 1 9.38 11.99ZM2902.17 2237.31l-1.28-1.91.58.84c.25.36.47.76.7 1.07Z" transform="translate(-221.54 -316.06)"/><path fill="#6321a6" d="M1854.26 1710.53s-103.41 448.71-53.55 548.42 590.89 123.72 762.62 90.48 373-64.63 367.46-190.19-20.31-435.78-20.31-565-25.85-457-164.34-545.19-341.61-245.13-605.67-34.62-286.21 696.1-286.21 696.1Z" transform="translate(-221.54 -316.06)"/><path fill="#290b54" d="M2435.9 2302.32 2433 2362l-6.19 130.35c-14.32 4.25-28.75 8.23-43.23 12-1.38.33-2.82.72-4.26 1.1l-72.41-13.37v-.08l-6.47-129.19-3-60.53Z" transform="translate(-221.54 -316.06)"/><path fill="#4d1a89" d="M2671.61 2288.36c-171.73 33.23-712.76 9.23-762.62-90.48s53.55-548.43 53.55-548.43 22.16-485.63 286.21-696.14c7.55-6 15.05-11.7 22.5-17.13-41.78 16.68-85.38 42-130.78 78.21-264 210.5-286.21 696.14-286.21 696.14s-103.41 448.71-53.55 548.42 590.89 123.72 762.62 90.48c130.18-25.19 277.25-49.37 338.43-114.27-68.06 23.34-152.13 38.09-230.15 53.2Z" transform="translate(-221.54 -316.06)"/><path fill="#6321a6" d="M2489.93 861.12s459.32 72 525.8 345.31 59.55 740.46-262.9 784.77c-63.34 8.71-116.24 10.43-160.35 7.58-120.22-7.78-213.81-107.37-213.81-227.84 0-119.1 91.48-219.11 210.27-227.59 41.2-2.94 89.59 1.57 146.12 17.61 0 0-175.42-121.87-105.26-321.3 0 0-164.19-129.07-195.65-228s55.78-150.54 55.78-150.54Z" transform="translate(-221.54 -316.06)"/><path fill="#7a40bc" d="m2693.87 1551.75-1.41-1c-2.65-.52-5.3-1-7.9-1.51 3.09.76 6.17 1.62 9.31 2.51Z" transform="translate(-221.54 -316.06)"/><path fill="#7a40bc" d="M3015.73 1206.43c-57.2-235.17-405.27-321.29-501.28-340.75 129.44 31.5 409.33 122.82 460.1 331.53 66.47 273.29 59.55 740.46-262.9 784.78-89.89 12.36-158.71 10.64-211.27 1.75 56.1 16 136.88 23.35 252.45 7.46 322.45-44.31 329.38-511.49 262.9-784.77Z" transform="translate(-221.54 -316.06)"/><path fill="#ffb4b1" d="m1974.79 242.7 6.92 239.59 42.94 26.31h128.79l63.71-54.01V242.7h-242.36z"/><path fill="#f99595" d="M2404.62 767.15h-78.45a178.56 178.56 0 0 1-93.28-26.31l-5.26-182.09h-31.3l6.92 239.59 42.94 26.32H2375l63.71-54v-32.4Z" transform="translate(-221.54 -316.06)"/><path fill="#1e013f" d="M2502.67 530c6.5.84-2.74 56.16-3.89 60.23-15.64 55.07-80.55 79.62-133.69 76.28a158.71 158.71 0 0 1-80.26-28.32c-11.14-7.77-20.44-22.8-31.58-29.16-16.31-9.31-10.83-2.77-20 14.49-13.19 24.86-51.67 19.16-59.24-6.86-5.81-20-6.8-43 7.35-62.66 33.24-46.16 97.87-52.74 97.87-52.74Z" transform="translate(-221.54 -316.06)"/><path fill="#c6b5ff" d="M2234.64 1348.61c4 0 81.35-5.72 124.6-8.94a18.66 18.66 0 0 1 18.91 25l-66.82 185.7Z" transform="translate(-221.54 -316.06)"/><path fill="#ffb4b1" d="M2330 1783.06a38.54 38.54 0 0 1-46 21.94c-25.88-7.57-63.78-23-102.9-53.84-70.17-55.4-228.56-101.47-240.63-112.79-9.7-9.11 218.86-47.68 308.61-62.42a38.64 38.64 0 0 1 43.84 29.13 38.73 38.73 0 0 1-7.62 33.55l-22.5 27.58s34.63 66.48 88.18 68.33Z" transform="translate(-221.54 -316.06)"/><path fill="#1e013f" d="M1289.3 1014.32s55.22 70.49 80.1 158.93 50.54 149.79-24.48 185.45-221.51 27.37-221.51 27.37Z" transform="translate(-221.54 -316.06)"/><path fill="#290b54" d="M1369.4 1173.25c-24.88-88.44-80.1-158.93-80.1-158.93l-7.9 17.7c17.81 26.31 50 79.36 67.45 141.23 24.87 88.44 50.53 149.79-24.49 185.45-47.79 22.72-124.54 27.59-174 28.14 45.85.53 139.45-1.95 194.55-28.14 75.03-35.7 49.37-97.01 24.49-185.45Z" transform="translate(-221.54 -316.06)"/><path fill="#ff5733" d="M1133.31 2291.69s-132.95-128-256.67-61c0 0-251.13-83.55-306.52 61s42.47 259 301 181.46l123.72-60.93s197.56-45.32 138.47-120.53Z" transform="translate(-221.54 -316.06)"/><path fill="#ffb4b1" d="m1328.62 1172.82-4.86 38.07c-3.16 24.7-13 48.28-29.33 67.06-25.49 29.27-70.81 59.09-140.42 31-55.9-22.59-77-82.25-83.61-138.86-7.93-67.35 38.75-129 105.42-141.49 86.68-16.22 163.98 56.76 152.8 144.22Z" transform="translate(-221.54 -316.06)"/><path fill="#ff5733" d="M1167.3 2332.19s-179.42 12.46-223.36 126.22c0 0-169.86 43.89-195.85 173.48s68.08 232 256.18 73.15c0 0 81.6-73.47 77.28-177.66 0 0 131.74-85.23 85.75-195.19Z" transform="translate(-221.54 -316.06)"/><path fill="#fff" d="M1158.77 2360.07c-10.94-3.93-22.2-7.47-33.43-10.83s-22.59-6.49-34-9.43q-34.14-8.82-68.86-15.21c-46.25-8.49-93.16-13.78-140.21-14.52S788 2313.19 742.2 2324c-11.44 2.76-22.8 5.88-34 9.5s-22.22 7.8-33.06 12.4-21.4 9.85-31.75 15.48-20.3 12-30 18.68q14.43-10.23 29.79-19.06 15.44-8.66 31.61-15.9t33-12.84c11.19-3.78 22.54-7.05 34-10 45.88-11.43 93.32-15.86 140.55-15.73s94.5 4.9 141.1 12.85q35 6 69.43 14.44 17.23 4.22 34.31 9.06c11.4 3.27 22.68 6.66 34 10.56a3.5 3.5 0 1 1-2.28 6.62Z" transform="translate(-221.54 -316.06)"/><path fill="#fff" d="M1147.12 2366.48c-15.07 9.21-29.93 19.05-44.57 29.1s-29.07 20.45-43.27 31.14c-28.4 21.36-55.91 43.94-82 68s-50.87 49.71-72.85 77.58q-8.22 10.47-15.87 21.36T874.1 2616a275.66 275.66 0 0 0-22.91 47.83 1.54 1.54 0 0 1-2.9-1A277.87 277.87 0 0 1 871 2614.2c4.52-7.72 9.33-15.28 14.36-22.68s10.34-14.61 15.8-21.69c21.9-28.31 46.6-54.31 72.61-78.78s53.5-47.4 81.84-69.13q21.25-16.3 43.2-31.69c14.65-10.25 29.41-20.23 44.66-29.74a3.5 3.5 0 0 1 3.7 5.94Z" transform="translate(-221.54 -316.06)"/><path fill="#c6b5ff" d="M1235.67 1350.82s315.76-12.36 419.16 199.52-40.91 647.66-40.91 647.66l18.44 114.54s-444.7 155.05-651.51 59l44.31-247.43s-197.58-391.47-157-520.73 251.18-241.11 367.51-252.56Z" transform="translate(-221.54 -316.06)"/><path fill="#c6b5ff" d="M1235.67 1350.82s315.76-12.36 419.16 199.52-40.91 647.66-40.91 647.66l18.44 114.54s-444.7 155.05-651.51 59l44.31-247.43s-197.58-391.47-157-520.73 251.18-241.11 367.51-252.56Z" transform="translate(-221.54 -316.06)"/><path fill="#aa9cef" d="m1187.22 2220.5 44.32-247.44s-99.11-395.28-58.49-524.53c7-22.32-79.28-40.29-63.5-61.14-103.45 45.25-213.19 126.46-241.34 216-40.63 129.26 157 520.73 157 520.73l-44.31 247.43c206.81 96 651.51-59 651.51-59l-14.66-91.1c-142.16 30.04-320.19 50.27-430.53-.95Z" transform="translate(-221.54 -316.06)"/><path fill="#e7e4f9" d="m981.45 2368.22-.6 3.37c148.91 69.14 421.14 8.11 561.9-31.48-85.15 19.8-376.21 80.15-561.3 28.11ZM1654.83 1550.34c-59.94-122.81-191.21-170.28-291-188.49 99.36 24.6 235.07 81.89 287 214.48 86 219.54-93 642.26-93 642.26l9 114.59c40.65-11.95 65.51-20.62 65.51-20.62L1613.92 2198s144.32-435.77 40.91-647.66Z" transform="translate(-221.54 -316.06)"/><path fill="#6321a6" d="M2317.51 916.52s-385.7 92.33-450.33 245.59-92.32 506-92.32 506-253 96-131.11 299.14c0 0 130.38 129 255.94 55.18 0 0 36.65-300 64.35-344.31s113.65-562.12 187.51-588 165.96-173.6 165.96-173.6Z" transform="translate(-221.54 -316.06)"/><path fill="#4d1a89" d="M2317.51 916.52s-385.7 92.33-450.33 245.59-92.32 506-92.32 506-253 96-131.11 299.14 130.39 129 255.94 55.18c0 0 36.65-300 64.35-344.31s113.65-562.12 187.51-588 165.96-173.6 165.96-173.6Z" transform="translate(-221.54 -316.06)"/><ellipse cx="1004.25" cy="1058.3" fill="#aa9cef" rx="83.76" ry="59.68"/><path fill="#fff" d="M2957.34 1871.57a200.14 200.14 0 0 1-12.11 18.1c-4.34 5.81-8.88 11.47-13.69 16.9-2.34 2.77-4.86 5.38-7.29 8.06l-3.78 3.91-1.9 2-1.93 1.91-3.89 3.81-4 3.7c-2.63 2.5-5.38 4.86-8.1 7.26a332.81 332.81 0 0 1-72.4 47.78 325.52 325.52 0 0 1-82.41 27.16 340.67 340.67 0 0 1-43.19 5l-5.44.25c-1.81.09-3.62.19-5.43.18l-10.86.09-10.86.09c-3.62 0-7.23-.1-10.85-.15-28.94-.59-57.91-2.86-86.49-7.83a413.53 413.53 0 0 1-42.37-9.83 326.06 326.06 0 0 1-40.78-15.23 261.36 261.36 0 0 1-37.91-21.49c-3-2-5.89-4.3-8.8-6.5s-5.67-4.58-8.35-7-5.33-5-8-7.49-5.09-5.22-7.48-8c-19.42-21.78-33.74-47.8-43.2-75.29-18.84-55.12-19.34-116.07-2.44-171.75a248.21 248.21 0 0 1 16.28-40.49 226.85 226.85 0 0 1 23.39-36.87 187.83 187.83 0 0 1 67.49-54.69 179.32 179.32 0 0 1 41.52-13.83c3.6-.62 7.19-1.33 10.8-1.87l5.44-.66 2.72-.33c.91-.12 1.81-.23 2.72-.27l10.9-.71 5.44-.35h5.46l10.91-.1h1.37l1.36.06 2.72.12 5.45.23 5.45.24 2.73.12 2.71.25 10.86 1c3.63.26 7.22.82 10.82 1.32l10.79 1.5 10.72 2c3.57.66 7.16 1.26 10.69 2.11a565.28 565.28 0 0 1 83.3 25.08 823.71 823.71 0 0 1 79.22 35.8 2.5 2.5 0 1 1-2.29 4.45 819.11 819.11 0 0 0-78.65-35.76 560.06 560.06 0 0 0-82.53-25c-3.5-.86-7-1.46-10.58-2.11l-10.6-2-10.67-1.51c-3.56-.5-7.11-1.06-10.69-1.33l-10.73-1-2.68-.25-2.69-.13-5.38-.24-5.37-.25-2.69-.12-1.35-.06h-1.34l-10.77.08h-5.38l-5.37.34-10.74.67c-.9 0-1.78.14-2.67.26l-2.66.31-5.32.64c-3.53.52-7 1.21-10.56 1.8a175 175 0 0 0-40.57 13.41 183.7 183.7 0 0 0-66.12 53.36 223.65 223.65 0 0 0-23.06 36.17 244.33 244.33 0 0 0-16.12 39.83c-16.79 54.85-16.43 115.09 2 169.5 9.27 27.14 23.33 52.78 42.37 74.24 2.35 2.71 4.86 5.27 7.34 7.85s5.1 5 7.81 7.38 5.43 4.66 8.19 7 5.66 4.39 8.63 6.4a258.62 258.62 0 0 0 37.37 21.3 324.84 324.84 0 0 0 40.35 15.17 413.36 413.36 0 0 0 42 9.84 569.85 569.85 0 0 0 86 8c3.6 0 7.21.22 10.82.17l10.81-.06 10.82-.07c1.81 0 3.6-.08 5.4-.16l5.39-.24a337.44 337.44 0 0 0 42.88-4.91 322.87 322.87 0 0 0 81.85-26.77 331 331 0 0 0 72-47.3c2.71-2.38 5.45-4.72 8.06-7.2l4-3.68 3.86-3.77 1.94-1.89 1.88-1.93 3.76-3.88c2.42-2.66 4.93-5.25 7.27-8 4.79-5.38 9.31-11 13.62-16.75a199 199 0 0 0 12-17.89 1 1 0 0 1 1.65 1Z" transform="translate(-221.54 -316.06)"/><path fill="#f99595" d="m2293.07 1605.91-19.67 24.14a149 149 0 0 0 8.11 13.22l3.79-4.64a38.69 38.69 0 0 0 7.77-32.72ZM2340.63 1746.89a38.53 38.53 0 0 1-46 21.94c-25.89-7.57-63.79-23-102.91-53.84-48.85-38.57-140.41-72.59-195.63-93.54-35.65 7.59-58.82 13.89-55.59 16.92 12.07 11.32 170.46 57.39 240.63 112.79 39.12 30.88 77 46.27 102.9 53.84a38.54 38.54 0 0 0 46-21.94l20.94-48.52c-1.64-.06-3.26-.18-4.87-.35Z" transform="translate(-221.54 -316.06)"/><path fill="#ffb4b1" d="m1147 1270.58 27.59 92.38a53.62 53.62 0 0 0 53.41 38.24 53.62 53.62 0 0 0 51.32-48.89l10-113.15Z" transform="translate(-221.54 -316.06)"/><path fill="#4d1a89" d="M2554.1 1771.8c0 61.19-57.69 106-117 90.78l-139.7-35.79v-123l147.67-24.41a93.71 93.71 0 0 1 109.03 92.42Z" transform="translate(-221.54 -316.06)"/><path fill="#f99595" d="M1245.8 1386.86a53.61 53.61 0 0 1-53.47-38.23l-24.67-82.63-20.69 4.57 27.59 92.38a53.57 53.57 0 0 0 93.11 18.25 53.34 53.34 0 0 1-21.87 5.66Z" transform="translate(-221.54 -316.06)"/><path fill="#f99595" d="M1183.44 1279.13c-55.9-22.59-77-82.25-83.62-138.86a127 127 0 0 1 22.91-88.76c-36.43 26.61-57.91 71.16-52.33 118.55 6.66 56.61 27.71 116.27 83.61 138.86 69.61 28.12 114.93-1.7 140.42-31 2.52-2.89 4.83-5.93 7-9-26.74 19.64-65.43 31.44-117.99 10.21Z" transform="translate(-221.54 -316.06)"/><path fill="#ffb4b1" d="M1787.12 1771.47c.66-7.39-52.89-96-62.12-127.41s208.66-40.63 208.66-40.63-21.77 117.1-64.63 145.88-81.91 22.16-81.91 22.16Z" transform="translate(-221.54 -316.06)"/><path fill="#f99595" d="m1887.46 1700.12-1.28.85c-35.89 23.55-84.36 10.59-104.67-27.23-8.75-16.31-18.33-34.25-25.85-49.79-20.26 5.37-33 12-30.66 20.11 9.23 31.39 62.78 120 62.12 127.41 0 0 39.05 6.61 81.91-22.16 23.78-16 41-59.09 51.73-94.35-9.13 19.38-20.23 36.38-33.3 45.16Z" transform="translate(-221.54 -316.06)"/><ellipse cx="2154.14" cy="681.71" fill="#4d1a89" rx="143.34" ry="105.95"/><path fill="#6321a6" d="M1736.55 1933.76c-51.22-18.73-72.26-77.35-42.68-118.84l61.1-94.41 111.6 34.27-21.57 122.43c-8.4 47.33-60 74.26-108.45 56.55Z" transform="translate(-221.54 -316.06)"/><path fill="#ffb4b1" d="M2262.8 941c.91 3.6 32.28 48.28 54.07 79a68.71 68.71 0 0 0 56.11 29 68.8 68.8 0 0 0 61.3-37.57l55.65-109.23H2290.5Z" transform="translate(-221.54 -316.06)"/><path fill="#f99595" d="M2393.86 1014.32a68.71 68.71 0 0 1-56.11-29c-19.1-27-45.54-64.57-52.4-75.9L2262.8 941c.91 3.6 32.27 48.28 54.07 79a68.79 68.79 0 0 0 117.41-8.58l9.46-18.57a68.78 68.78 0 0 1-49.88 21.47Z" transform="translate(-221.54 -316.06)"/><path fill="#1e013f" d="M2507.93 593.38v321.29a41.54 41.54 0 0 1-41.54 41.55 41.55 41.55 0 0 1-41.55-41.55v-6.92s-62.54 113.59-170.34 74.78c-69.4-25-86.93-85.61-87.44-143.91-.26-29.14 23.68-52.74 52.81-52.74s73.4 31.85 110.79 5.54c10.39-7.31 17.47-14.73 22.27-21.63 13.7-19.69 35.3-32.38 59.29-32.38h4.31v-144a45.71 45.71 0 0 1 45.7-45.71 45.71 45.71 0 0 1 45.7 45.68Z" transform="translate(-221.54 -316.06)"/><path fill="#290b54" d="M2404.85 890.26v-6.93s-62.53 113.6-170.34 74.79c-18.43-6.63-33.1-15.84-44.87-26.79 13.41 21.89 34 40.09 64.86 51.2 85.8 30.89 142.88-34.71 162.63-62.8a41.41 41.41 0 0 1-12.28-29.47ZM2485.4 554a45.62 45.62 0 0 1 2.6 15v321.3a41.55 41.55 0 0 1-41.55 41.55 41.38 41.38 0 0 1-19.75-5 41.57 41.57 0 0 0 39.74 29.4 41.54 41.54 0 0 0 41.54-41.55V593.38A45.66 45.66 0 0 0 2485.4 554Z" transform="translate(-221.54 -316.06)"/><path fill="#000839" d="M1012 2357.44a7.58 7.58 0 0 0-.28 1.16 1.18 1.18 0 0 1 .28-1.16Z" transform="translate(-221.54 -316.06)"/><path fill="#000839" d="M1019.7 2355.17a121.46 121.46 0 0 0 2.66 16.8c-1.38 1.11-2.66 2.38-4 3.6l-3 3c-1 1-1.88 2-2.76 3-.11.11-.22-.28-.28-1.05-.16-2.88-.05-11.33-.05-17.19v-.56c-.17 0-.33-.22-.45-.49a9.06 9.06 0 0 1-.11-3.71 3.85 3.85 0 0 0 .5.78 11 11 0 0 0 0-1.39c-.06-.16-.11-.38-.17-.6-.88-3.27-1.93-7.08-1.93-7.19 8.79-67.61 13.21-55.17 9.72-12.94 2.05-2.81 1.77 3.32.89 10.51-.3 2.51-.63 5.05-1.02 7.43ZM1745.45 2554.07l-8.24-.72c-4.1-.35-8.2-.7-12.26-1.09h-.82c-3.6-.28-7.14-.61-10.67-1h-.11c-7.13-.66-14.16-1.38-21.23-2.1-78.19-8.17-154.7-7.77-231.41-10.95-32.26-1.33-64.54-3.3-97-6.8-.83-.11-1.61-.16-2.38-.27a838.6 838.6 0 0 1-108.18-18.69c-62.34-15.34-122.5-35.92-179.2-61.85h-.06c-27.12-14.87-44.71-40.9-51.49-70.77 0-.11.16-.16.22-.22.06-.11.11-.11.17-.22 2.15-1.93 4.53-3.81 7-5.75.06 0 .06 0 .11-.05a1.66 1.66 0 0 1 .45-.33l.16-.17.15-.11c17.29-13.17 41.17-26.24 69.17-38.81 67.17-30.12 157.88-57.32 238.26-75.78 46.56-10.72 89.64-18.51 122.6-22.25 16.86-1.91 31.07-2.77 41.75-2.41a311.93 311.93 0 0 1 28.08 14.54c9.28 5.31 20.34 12.05 32.45 20.45a460.2 460.2 0 0 1 52.79 41.91c5 4.69 10.17 9.61 15.26 14.76a12.24 12.24 0 0 1 .89.88c46.26 46.93 90.65 113.05 105.63 201l3.16 10.8.11.37v.06l2.54 8.73.38 1.27Z" transform="translate(-221.54 -316.06)"/><path fill="#290b54" d="M1029.76 2365.78c-2.43 1.94-4.8 3.82-7 5.75-.06.11-.11.11-.17.22-.06.06-.17.11-.22.22-1.38 1.11-2.66 2.38-4 3.6l-3 3c-1 1-1.88 2-2.76 3s-1.55 1.82-2.27 2.76c-.44.61.55-1.21 2-3.81 2.49-4.48 6.47-11.22 7.13-12.49-1.43 1.82-5.41-4.21-7.18-4.7a.55.55 0 0 0-.78.38 13.55 13.55 0 0 0 .33-1.43 7.42 7.42 0 0 0 .39-1.44c.11-.33.22-.66.33-1.05v-.06s.06-.16.06-.22c1.38-5.19 3.65-13.6 4.25-15.75.17.38 1.22-.33 2.11 2.6 0-.06 0-.06.11-.06.38-.28 1 .33 1.6 1.44 2.77 4.89 7.03 19.26 9.07 18.04ZM1745.45 2554.08l-8.24-.72-4.52-15.34-5.86-19.87c-19.18-82.15-63.35-143.18-109.61-186.85-2.27-2.15-4.48-4.25-6.8-6.3h-.06c-.77-.72-1.6-1.5-2.43-2.21a474.29 474.29 0 0 0-117.08-76.46c-10.34-4.64-16.42-6.85-16.42-6.85-4.09.1-8.68.41-13.72.91-17.83 1.8-41.29 6.08-68.31 12.25-79.61 18.35-189.94 53.51-275.74 92.76a684.68 684.68 0 0 0-63.46 32.72c-4.81 2.82-9.34 5.64-13.65 8.46-3.6 2.32-5-2.88-8.29-.55-4.57 3.22-2.13-6.09-.63-13 .91-4.25 1.47-7.62-.15-6.7 17.3-13.21 41.24-26.31 69.32-38.92 67.17-30.12 157.88-57.32 238.26-75.78 46.56-10.72 89.64-18.51 122.6-22.25 16.86-1.91 31.07-2.77 41.75-2.41a311.93 311.93 0 0 1 28.08 14.54c9.28 5.31 20.34 12.05 32.45 20.45a460.2 460.2 0 0 1 52.79 41.91c5 4.69 10.17 9.61 15.26 14.75.28.28.61.56.89.89 46.26 46.93 90.65 113.05 105.63 201l3.27 11.17v.06l1.86 6.38.68 2.35.38 1.27 1.94 6.64.61 5.88Z" transform="translate(-221.54 -316.06)"/><rect width="616.74" height="439.64" x="1670.29" y="1190.6" fill="#e7e4f9" rx="2.92" transform="rotate(-8.49 -261.36 2744.613)"/><path fill="#fcbf1e" d="M2125.6 63a185.58 185.58 0 0 1 185.58 185.58V268H1940v-19.42A185.58 185.58 0 0 1 2125.6 63Z"/><path fill="#f9dc30" d="M2347.14 379.06c-5 0-9.92.25-14.81.64 95.55 7.56 170.76 87.44 170.76 184.93V584h29.63v-19.37c0-102.49-83.09-185.57-185.58-185.57Z" transform="translate(-221.54 -316.06)"/><path fill="#ff5733" d="M2347.14 456.27a40.17 40.17 0 0 0 40.17-40.16v-32.57a185.9 185.9 0 0 0-40.17-4.48 185.88 185.88 0 0 0-40.16 4.48v32.57a40.16 40.16 0 0 0 40.16 40.16Z" transform="translate(-221.54 -316.06)"/><path fill="#fcbf1e" d="M1056.24 1362.34a28.1 28.1 0 0 1 34.71 4.79c36.4 38.51 114.18 132.33 174.26 113.82 55.39-17.06 70.43-87.8 79.71-122.25 3.29-12.21 41-18.41 53.64-17.57l22.47 1.5a26.54 26.54 0 0 1 24.46 30.5l-2.84 130.87c8.11 100.11 214.81 787.52 189.71 808.56 0 0-55.25 67-300.27 107.23s-371.65-56.31-371.65-56.31 118.27-626.17 135.09-760-85.77-172.84-85.77-172.84a28.16 28.16 0 0 1 5.64-44.08Z" transform="translate(-221.54 -316.06)"/><path fill="#fcbf1e" d="M1056.24 1363.34a28.1 28.1 0 0 1 34.71 4.79c36.4 38.51 114.18 132.33 174.26 113.82 55.39-17.06 70.43-87.8 79.71-122.25 3.29-12.21 41-18.41 53.64-17.57l22.47 1.5a26.54 26.54 0 0 1 24.46 30.5l-2.84 130.87c8.11 100.11 214.81 787.52 189.71 808.56 0 0-55.25 67-300.27 107.23s-371.65-56.31-371.65-56.31 118.27-626.17 135.09-760-85.77-172.84-85.77-172.84a28.16 28.16 0 0 1 5.64-44.08Z" transform="translate(-221.54 -316.06)"/><path fill="#fcbf1e" d="M1056.24 1366.34a28.1 28.1 0 0 1 34.71 4.79c36.4 38.51 114.18 132.33 174.26 113.82 55.39-17.06 70.43-87.8 79.71-122.25 3.29-12.21 41-18.41 53.64-17.57l22.47 1.5a26.54 26.54 0 0 1 24.46 30.5l-2.84 130.87c8.11 100.11 214.81 787.52 189.71 808.56 0 0-55.25 67-300.27 107.23s-371.65-56.31-371.65-56.31 118.27-626.17 135.09-760-85.77-172.84-85.77-172.84a28.16 28.16 0 0 1 5.64-44.08Z" transform="translate(-221.54 -316.06)"/><path fill="#f9dc30" d="M1070.92 1367.13c35.12 37.15 108.73 125.74 167.83 115.33-54.85-8.55-116.56-82.28-147.8-115.33a28 28 0 0 0-30.46-6.83 27.64 27.64 0 0 1 10.43 6.83ZM1442.65 1504l2.84-130.88a26.53 26.53 0 0 0-24.46-30.49l-22.47-1.5a72.35 72.35 0 0 0-12 .54l14.41 1a26.53 26.53 0 0 1 24.46 30.49l-2.82 130.84c8.12 100.11 214.82 787.52 189.72 808.56 0 0-55.25 67-300.27 107.23a722.68 722.68 0 0 1-105.93 9.73 709.41 709.41 0 0 0 126-9.73c245-40.25 300.27-107.23 300.27-107.23 25.06-21.04-181.64-708.45-189.75-808.56Z" transform="translate(-221.54 -316.06)"/><path fill="#ffa41b" d="M1379.9 2400a724.44 724.44 0 0 1-104.52 9.71c-144.72 2.58-255.2-128.61-228.86-270.93 36.13-195.24 86.31-471.43 96.83-555.14 16.82-133.87-85.77-172.84-85.77-172.84a28.16 28.16 0 0 1 5.63-44.08l13-7.69a28.11 28.11 0 0 0-20 3.29l-40.84 24.17a28.16 28.16 0 0 0-5.64 44.08s102.59 39 85.77 172.84-135.09 760.05-135.09 760.05 126.63 96.56 371.65 56.31c118.32-19.43 192.3-45.09 237.26-66.44-44.7 16.21-106.05 33-189.42 46.67ZM1313 1461.18c54.21-16.7 69.76-84.81 79.1-120-15.85.92-44.37 7-47.21 17.52-7.3 27.09-18.18 76.63-49.44 104.85a55.4 55.4 0 0 0 17.55-2.37Z" transform="translate(-221.54 -316.06)"/><path fill="none" stroke="#fff" stroke-linecap="round" stroke-linejoin="round" stroke-width="5" d="m1048.16 1173.8 98.72 931.94"/><path fill="#ffb4b1" d="M1265.45 2040.57h94.17l42.86-50.78a23.78 23.78 0 0 1 32.32-3.79 23.79 23.79 0 0 1 5.08 33.14l-15.63 21.43s57 28.17 126.07.61c11.42-4.56 24.41 1.17 29.34 12.44a23.22 23.22 0 0 1 .11 18.42c-7.3 17.2-30.23 50.09-100.12 59.5-96 12.93-243.75 31.39-243.75 31.39v-122.36Z" transform="translate(-221.54 -316.06)"/><path fill="#f99595" d="M1579.77 2058.22c-7.3 17.2-30.23 50.09-100.12 59.5-96 12.93-243.75 31.39-243.75 31.39v13.82s147.73-18.46 243.75-31.39c69.89-9.41 92.82-42.3 100.12-59.5a23 23 0 0 0 .67-16 20.72 20.72 0 0 1-.67 2.18Z" transform="translate(-221.54 -316.06)"/><path fill="#c6b5ff" d="M1081.59 1553.81c38.54-65.57-37.66-139-101.35-97.39C903.07 1506.77 830.61 1582 814.66 1691c-36.93 252.22 0 562.43 441.32 538.43l9.23-258.52s-132.7-20.31-230.69 20.31c0 0 31.27-199.72-26-313.13Z" transform="translate(-221.54 -316.06)"/><path fill="#aa9cef" d="M1036.38 1952.25c.92-.31 1.86-.58 2.78-.88.62-6.76 1.22-14.24 1.77-22.27-2.61 14.54-4.55 23.15-4.55 23.15Z" transform="translate(-221.54 -316.06)"/><path fill="#aa9cef" d="M1254.39 2078.25c-7.83 75.71-79.65 127.89-154.08 112-303.77-64.95-310.46-333-263.07-552.32a289.43 289.43 0 0 1 22.36-65.1A292.6 292.6 0 0 0 814.66 1691c-36.93 252.21 0 562.43 441.32 538.43l9.08-254.29ZM1031.75 1638.58l3.42-5.8-3.62 5.29c.08.17.13.35.2.51Z" transform="translate(-221.54 -316.06)"/><rect width="191.12" height="80.83" x="1214" y="1758.48" fill="#ff5733" rx="40.42" transform="rotate(-4.98 -2434.6 4188.894)"/><rect width="191.12" height="80.83" x="1193.74" y="1580.26" fill="#ff5733" rx="40.42" transform="rotate(-4.98 -2454.84 4010.611)"/><path fill="#1e013f" d="M1311.36 1003.26s24.87 125.76-53.9 132.67-110.46-42.84-110.46-42.84 21.51 96.52-23.56 107.8c0 0-12.16 94 47.12 105 0 0 32.33 111.11-81.33 90.79s-79.11-291.18-63.91-317.44 286.04-75.98 286.04-75.98Z" transform="translate(-221.54 -316.06)"/><path fill="#fcbf1e" d="M1147.56 892.19a173.6 173.6 0 0 1 173.6 173.6v18.14H974v-18.14a173.6 173.6 0 0 1 173.6-173.6Z" transform="rotate(-13.8 -268.758 1745.592)"/><path fill="#ff5733" d="M1141.92 965.11a37.57 37.57 0 0 0 27.52-45.45l-7.27-29.59a173.94 173.94 0 0 0-37.49 4.89 173.57 173.57 0 0 0-35.48 13l7.27 29.58a37.58 37.58 0 0 0 45.45 27.57Z" transform="translate(-221.54 -316.06)"/><path fill="#ffa41b" d="M1031.39 1102a173.6 173.6 0 0 1 61.69-178.2l-3.88-15.8a173.59 173.59 0 0 1 35.46-13 173.59 173.59 0 0 0-127.14 210l4.33 17.61 32.63-8ZM1162.17 890.07l.26 1.06c1.91-.42 3.83-.85 5.74-1.21a173.94 173.94 0 0 0-43.49 5 173.94 173.94 0 0 1 37.49-4.85Z" transform="translate(-221.54 -316.06)"/><path fill="#fff" d="M987.51 1634.51c3.42 6.91 6.29 14.07 9 21.26s5.2 14.5 7.56 21.84c4.65 14.69 8.68 29.58 12.2 44.59s6.5 30.14 9.08 45.35c1.34 7.59 2.43 15.22 3.58 22.85s2.08 15.28 2.91 22.94c3.59 30.64 5.51 61.46 6.33 92.31s.34 61.72-1.2 92.54l-4.35-1.81c.6-.63 1-1 1.56-1.48s1-.85 1.53-1.25 1-.79 1.56-1.16 1-.76 1.58-1.11c2.11-1.46 4.31-2.72 6.52-4a122 122 0 0 1 13.7-6.35 198.61 198.61 0 0 1 28.64-8.75c19.42-4.51 39.2-6.85 59-8.15 2.47-.19 5-.29 7.42-.41l7.43-.34c5-.1 9.9-.31 14.86-.33 9.9-.08 19.8 0 29.7.36 19.78.64 39.53 2 59.22 3.93a1.52 1.52 0 0 1-.28 3c-19.64-1.73-39.33-3-59-3.43q-14.77-.39-29.55-.11c-4.92.06-9.84.3-14.76.44l-7.36.4c-2.46.14-4.92.26-7.37.47-19.6 1.45-39.16 3.93-58.21 8.53a193.05 193.05 0 0 0-27.9 8.77 116.45 116.45 0 0 0-13.11 6.2c-2.09 1.2-4.16 2.41-6.1 3.78-.5.32-1 .67-1.45 1s-1 .7-1.4 1.07-.89.73-1.33 1.11-.87.79-1.12 1.06a2.53 2.53 0 0 1-4.4-1.63v-.08c1.94-30.69 2.81-61.44 2.44-92.2s-1.9-61.49-5.07-92.1c-.72-7.65-1.69-15.28-2.59-22.92s-2-15.25-3.26-22.84c-2.37-15.2-5.15-30.34-8.45-45.37s-7.13-30-11.58-44.68c-2.25-7.36-4.64-14.68-7.26-21.92s-5.4-14.43-8.72-21.38Z" transform="translate(-221.54 -316.06)"/><path fill="none" stroke="#fff" stroke-linecap="round" stroke-linejoin="round" stroke-width="5" d="M2713.94 1148.37s-162.8 200.53-46.33 403.38" transform="translate(-221.54 -316.06)"/><circle cx="1742.5" cy="1096.54" r="46.2" fill="#c6b5ff"/><g opacity=".43"><path fill="#c6b5ff" d="m868.52 1009-40.18-3.84a267.35 267.35 0 0 0-27-87.9l31.15-25.71a36.15 36.15 0 0 0 4.86-50.89l-29.05-35.23a36.14 36.14 0 0 0-50.88-4.86l-31.15 25.72a267.13 267.13 0 0 0-81.21-43.13L648.9 743a36.15 36.15 0 0 0-32.54-39.42l-45.46-4.34a36.15 36.15 0 0 0-39.42 32.54l-3.84 40.18a267.64 267.64 0 0 0-87.91 27L414 767.77a36.13 36.13 0 0 0-50.88-4.86L327.92 792a36.15 36.15 0 0 0-4.86 50.89L348.77 874a267.44 267.44 0 0 0-43.12 81.21l-40.18-3.84a36.14 36.14 0 0 0-39.42 32.55l-4.34 45.46a36.15 36.15 0 0 0 32.54 39.42l40.18 3.83a267.41 267.41 0 0 0 27 87.91l-31.14 25.71a36.15 36.15 0 0 0-4.87 50.89l29.08 35.21a36.13 36.13 0 0 0 50.88 4.86l31.15-25.71a267.46 267.46 0 0 0 81.21 43.13l-3.84 40.18a36.15 36.15 0 0 0 32.54 39.42l45.46 4.34a36.14 36.14 0 0 0 39.39-32.57l3.84-40.19a267.17 267.17 0 0 0 87.91-27l25.71 31.19a36.14 36.14 0 0 0 50.88 4.86l35.22-29.08a36.14 36.14 0 0 0 4.86-50.88L774 1203.79a267.55 267.55 0 0 0 43.12-81.21l40.19 3.83a36.14 36.14 0 0 0 39.41-32.54l4.35-45.46a36.16 36.16 0 0 0-32.55-39.41Z" transform="translate(-221.54 -316.06)"/><circle cx="339.85" cy="722.84" r="152.94" fill="#e7e4f9"/></g><g opacity=".43"><path fill="#c6b5ff" d="m916.6 521.36-20.09-1.92a133.67 133.67 0 0 0-13.48-44l15.57-12.86a18.08 18.08 0 0 0 2.4-25.39l-14.54-17.61a18.07 18.07 0 0 0-25.44-2.43L845.48 430a133.89 133.89 0 0 0-40.61-21.57l1.92-20.09a18.08 18.08 0 0 0-16.27-19.71l-22.73-2.17a18.07 18.07 0 0 0-19.71 16.27l-1.92 20.1a133.67 133.67 0 0 0-43.95 13.48l-12.86-15.57a18.06 18.06 0 0 0-25.44-2.43l-17.61 14.55a18.07 18.07 0 0 0-2.43 25.44l12.86 15.57a133.72 133.72 0 0 0-21.57 40.6l-20.09-1.91a18.07 18.07 0 0 0-19.71 16.27l-2.17 22.73a18.08 18.08 0 0 0 16.27 19.71l20.09 1.92A134 134 0 0 0 643 597.14L627.47 610a18.06 18.06 0 0 0-2.47 25.44l14.53 17.61a18.09 18.09 0 0 0 25.47 2.43l15.57-12.86a133.47 133.47 0 0 0 40.6 21.56l-1.92 20.09a18.08 18.08 0 0 0 16.3 19.73l22.73 2.17A18.07 18.07 0 0 0 778 689.88l1.92-20.09a133.74 133.74 0 0 0 44-13.48l12.85 15.57a18.08 18.08 0 0 0 25.45 2.43l17.61-14.54a18.08 18.08 0 0 0 2.43-25.44l-12.86-15.57a133.53 133.53 0 0 0 21.56-40.61l20.04 1.92a18.07 18.07 0 0 0 19.7-16.27l2.17-22.73a18.07 18.07 0 0 0-16.27-19.71Z" transform="translate(-221.54 -316.06)"/><circle cx="541.49" cy="220.26" r="76.47" fill="#e7e4f9"/></g><g opacity=".43"><path fill="#c6b5ff" d="m1078.93 736.69-12.62-1.2a83.88 83.88 0 0 0-8.46-27.6l9.77-8.08a11.34 11.34 0 0 0 1.53-16l-9.15-11.03a11.34 11.34 0 0 0-16-1.53l-9.78 8.08a83.83 83.83 0 0 0-25.5-13.54l1.2-12.62a11.34 11.34 0 0 0-10.21-12.38l-14.28-1.36a11.34 11.34 0 0 0-12.37 10.22l-1.21 12.61a84 84 0 0 0-27.6 8.47l-8.02-9.73a11.36 11.36 0 0 0-16-1.52l-11.06 9.13a11.34 11.34 0 0 0-1.52 16l8.07 9.78a84 84 0 0 0-13.54 25.5l-12.62-1.21a11.35 11.35 0 0 0-12.37 10.22l-1.37 14.27a11.36 11.36 0 0 0 10.22 12.38l12.62 1.21a84 84 0 0 0 8.47 27.6l-9.78 8.07a11.35 11.35 0 0 0-1.53 16l9.13 11a11.35 11.35 0 0 0 16 1.53l9.78-8.07a84.1 84.1 0 0 0 25.49 13.54L955 839a11.35 11.35 0 0 0 10.22 12.38l14.27 1.36a11.35 11.35 0 0 0 12.38-10.22l1.2-12.61a84 84 0 0 0 27.6-8.47l8.07 9.78a11.36 11.36 0 0 0 16 1.53l11.06-9.13a11.36 11.36 0 0 0 1.52-16l-8.07-9.78a83.81 83.81 0 0 0 13.54-25.5l12.62 1.21a11.34 11.34 0 0 0 12.37-10.22l1.37-14.27a11.36 11.36 0 0 0-10.22-12.37Z" transform="translate(-221.54 -316.06)"/><circle cx="760.96" cy="430.02" r="48.02" fill="#e7e4f9"/></g><path fill="none" stroke="#fff" stroke-linecap="round" stroke-linejoin="round" stroke-width="5" d="M1936.97 220.39h372.08M755.12 756.1l360.59-91.7"/><path fill="#c6b5ff" d="M1588.28 680.48H1367a59 59 0 0 0-59 59v41.36l-30.57 30.57a11.06 11.06 0 0 0 7.82 18.89H1308v27.21a59 59 0 0 0 59 59h221.31a59 59 0 0 0 59-59v-118a59 59 0 0 0-59.03-59.03Z" opacity=".43" transform="translate(-221.54 -316.06)"/><g opacity=".6"><circle cx="1151.66" cy="482.46" r="21.29" fill="#fff"/><circle cx="1252.28" cy="482.46" r="21.29" fill="#fff"/><circle cx="1352.91" cy="482.46" r="21.29" fill="#fff"/></g><path fill="#c6b5ff" d="M1836.47 316.06h221.3a59 59 0 0 1 59 59v41.36l30.59 30.58a11.07 11.07 0 0 1-7.83 18.9h-22.74v27.2a59 59 0 0 1-59 59h-221.3a59 59 0 0 1-59-59v-118a59 59 0 0 1 58.98-59.04Z" opacity=".43" transform="translate(-221.54 -316.06)"/><g opacity=".6"><circle cx="1830.01" cy="118.03" r="21.29" fill="#fff"/><circle cx="1729.38" cy="118.03" r="21.29" fill="#fff"/><circle cx="1628.75" cy="118.03" r="21.29" fill="#fff"/></g></svg>