<svg xmlns="http://www.w3.org/2000/svg" enable-background="new 0 0 3000 2500" viewBox="0 0 3000 2500"><rect width="2918.6" height="2432.2" x="40.7" y="33.9" fill="none"/><g opacity=".33"><ellipse cx="1315.9" cy="1865.4" fill="#0f0a26" opacity="0" rx="517.6" ry="206.4"/><ellipse cx="1316.1" cy="1864.6" fill="#0f0a26" opacity=".02" rx="512.6" ry="204.4"/><ellipse cx="1316.3" cy="1863.9" fill="#0f0a26" opacity=".039" rx="507.6" ry="202.4"/><ellipse cx="1316.5" cy="1863.1" fill="#0f0a26" opacity=".059" rx="502.5" ry="200.4"/><ellipse cx="1316.7" cy="1862.4" fill="#0f0a26" opacity=".078" rx="497.5" ry="198.4"/><ellipse cx="1316.8" cy="1861.6" fill="#0f0a26" opacity=".098" rx="492.5" ry="196.4"/><ellipse cx="1317" cy="1860.9" fill="#0f0a26" opacity=".118" rx="487.5" ry="194.4"/><ellipse cx="1317.2" cy="1860.1" fill="#0f0a26" opacity=".137" rx="482.5" ry="192.4"/><ellipse cx="1317.4" cy="1859.4" fill="#0f0a26" opacity=".157" rx="477.5" ry="190.4"/><ellipse cx="1317.5" cy="1858.6" fill="#0f0a26" opacity=".176" rx="472.4" ry="188.4"/><ellipse cx="1317.7" cy="1857.8" fill="#0f0a26" opacity=".196" rx="467.4" ry="186.4"/><ellipse cx="1317.9" cy="1857.1" fill="#0f0a26" opacity=".216" rx="462.4" ry="184.4"/><ellipse cx="1318.1" cy="1856.3" fill="#0f0a26" opacity=".235" rx="457.4" ry="182.4"/><ellipse cx="1318.3" cy="1855.6" fill="#0f0a26" opacity=".255" rx="452.4" ry="180.4"/><ellipse cx="1318.4" cy="1854.8" fill="#0f0a26" opacity=".275" rx="447.4" ry="178.4"/><ellipse cx="1318.6" cy="1854.1" fill="#0f0a26" opacity=".294" rx="442.3" ry="176.4"/><ellipse cx="1318.8" cy="1853.3" fill="#0f0a26" opacity=".314" rx="437.3" ry="174.4"/><ellipse cx="1319" cy="1852.6" fill="#0f0a26" opacity=".333" rx="432.3" ry="172.4"/><ellipse cx="1319.1" cy="1851.8" fill="#0f0a26" opacity=".353" rx="427.3" ry="170.4"/><ellipse cx="1319.3" cy="1851.1" fill="#0f0a26" opacity=".372" rx="422.3" ry="168.4"/><ellipse cx="1319.5" cy="1850.3" fill="#0f0a26" opacity=".392" rx="417.2" ry="166.4"/><ellipse cx="1319.7" cy="1849.5" fill="#0f0a26" opacity=".412" rx="412.2" ry="164.4"/><ellipse cx="1319.9" cy="1848.8" fill="#0f0a26" opacity=".431" rx="407.2" ry="162.4"/><ellipse cx="1320" cy="1848" fill="#0f0a26" opacity=".451" rx="402.2" ry="160.4"/><ellipse cx="1320.2" cy="1847.3" fill="#0f0a26" opacity=".471" rx="397.2" ry="158.4"/><ellipse cx="1320.4" cy="1846.5" fill="#0f0a26" opacity=".49" rx="392.2" ry="156.4"/><ellipse cx="1320.6" cy="1845.8" fill="#0f0a26" opacity=".51" rx="387.1" ry="154.4"/><ellipse cx="1320.8" cy="1845" fill="#0f0a26" opacity=".529" rx="382.1" ry="152.4"/><ellipse cx="1320.9" cy="1844.3" fill="#0f0a26" opacity=".549" rx="377.1" ry="150.4"/><ellipse cx="1321.1" cy="1843.5" fill="#0f0a26" opacity=".569" rx="372.1" ry="148.4"/><ellipse cx="1321.3" cy="1842.8" fill="#0f0a26" opacity=".588" rx="367.1" ry="146.4"/><ellipse cx="1321.5" cy="1842" fill="#0f0a26" opacity=".608" rx="362.1" ry="144.4"/><ellipse cx="1321.6" cy="1841.2" fill="#0f0a26" opacity=".627" rx="357" ry="142.4"/><ellipse cx="1321.8" cy="1840.5" fill="#0f0a26" opacity=".647" rx="352" ry="140.4"/><ellipse cx="1322" cy="1839.7" fill="#0f0a26" opacity=".667" rx="347" ry="138.4"/><ellipse cx="1322.2" cy="1839" fill="#0f0a26" opacity=".686" rx="342" ry="136.4"/><ellipse cx="1322.4" cy="1838.2" fill="#0f0a26" opacity=".706" rx="337" ry="134.4"/><ellipse cx="1322.5" cy="1837.5" fill="#0f0a26" opacity=".726" rx="332" ry="132.4"/><ellipse cx="1322.7" cy="1836.7" fill="#0f0a26" opacity=".745" rx="326.9" ry="130.4"/><ellipse cx="1322.9" cy="1836" fill="#0f0a26" opacity=".765" rx="321.9" ry="128.4"/><ellipse cx="1323.1" cy="1835.2" fill="#0f0a26" opacity=".784" rx="316.9" ry="126.4"/><ellipse cx="1323.2" cy="1834.5" fill="#0f0a26" opacity=".804" rx="311.9" ry="124.4"/><ellipse cx="1323.4" cy="1833.7" fill="#0f0a26" opacity=".824" rx="306.9" ry="122.4"/><ellipse cx="1323.6" cy="1832.9" fill="#0f0a26" opacity=".843" rx="301.9" ry="120.4"/><ellipse cx="1323.8" cy="1832.2" fill="#0f0a26" opacity=".863" rx="296.8" ry="118.4"/><ellipse cx="1324" cy="1831.4" fill="#0f0a26" opacity=".882" rx="291.8" ry="116.4"/><ellipse cx="1324.1" cy="1830.7" fill="#0f0a26" opacity=".902" rx="286.8" ry="114.4"/><ellipse cx="1324.3" cy="1829.9" fill="#0f0a26" opacity=".922" rx="281.8" ry="112.4"/><ellipse cx="1324.5" cy="1829.2" fill="#0f0a26" opacity=".941" rx="276.8" ry="110.4"/><ellipse cx="1324.7" cy="1828.4" fill="#0f0a26" opacity=".961" rx="271.8" ry="108.4"/><ellipse cx="1324.8" cy="1827.7" fill="#0f0a26" opacity=".98" rx="266.7" ry="106.4"/><ellipse cx="1325" cy="1826.9" fill="#0f0a26" rx="261.7" ry="104.4"/></g><g opacity=".33"><ellipse cx="1599.1" cy="1499.3" fill="#0f0a26" opacity="0" rx="393.1" ry="156.8"/><ellipse cx="1599.2" cy="1498.7" fill="#0f0a26" opacity=".02" rx="389.3" ry="155.2"/><ellipse cx="1599.3" cy="1498.1" fill="#0f0a26" opacity=".039" rx="385.5" ry="153.7"/><ellipse cx="1599.5" cy="1497.6" fill="#0f0a26" opacity=".059" rx="381.7" ry="152.2"/><ellipse cx="1599.6" cy="1497" fill="#0f0a26" opacity=".078" rx="377.9" ry="150.7"/><ellipse cx="1599.7" cy="1496.4" fill="#0f0a26" opacity=".098" rx="374.1" ry="149.2"/><ellipse cx="1599.9" cy="1495.8" fill="#0f0a26" opacity=".118" rx="370.3" ry="147.6"/><ellipse cx="1600" cy="1495.3" fill="#0f0a26" opacity=".137" rx="366.5" ry="146.1"/><ellipse cx="1600.2" cy="1494.7" fill="#0f0a26" opacity=".157" rx="362.6" ry="144.6"/><ellipse cx="1600.3" cy="1494.1" fill="#0f0a26" opacity=".176" rx="358.8" ry="143.1"/><ellipse cx="1600.4" cy="1493.6" fill="#0f0a26" opacity=".196" rx="355" ry="141.6"/><ellipse cx="1600.6" cy="1493" fill="#0f0a26" opacity=".216" rx="351.2" ry="140"/><ellipse cx="1600.7" cy="1492.4" fill="#0f0a26" opacity=".235" rx="347.4" ry="138.5"/><ellipse cx="1600.8" cy="1491.8" fill="#0f0a26" opacity=".255" rx="343.6" ry="137"/><ellipse cx="1601" cy="1491.3" fill="#0f0a26" opacity=".275" rx="339.8" ry="135.5"/><ellipse cx="1601.1" cy="1490.7" fill="#0f0a26" opacity=".294" rx="336" ry="134"/><ellipse cx="1601.2" cy="1490.1" fill="#0f0a26" opacity=".314" rx="332.2" ry="132.5"/><ellipse cx="1601.4" cy="1489.5" fill="#0f0a26" opacity=".333" rx="328.3" ry="130.9"/><ellipse cx="1601.5" cy="1489" fill="#0f0a26" opacity=".353" rx="324.5" ry="129.4"/><ellipse cx="1601.6" cy="1488.4" fill="#0f0a26" opacity=".372" rx="320.7" ry="127.9"/><ellipse cx="1601.8" cy="1487.8" fill="#0f0a26" opacity=".392" rx="316.9" ry="126.4"/><ellipse cx="1601.9" cy="1487.2" fill="#0f0a26" opacity=".412" rx="313.1" ry="124.9"/><ellipse cx="1602" cy="1486.7" fill="#0f0a26" opacity=".431" rx="309.3" ry="123.3"/><ellipse cx="1602.2" cy="1486.1" fill="#0f0a26" opacity=".451" rx="305.5" ry="121.8"/><ellipse cx="1602.3" cy="1485.5" fill="#0f0a26" opacity=".471" rx="301.7" ry="120.3"/><ellipse cx="1602.4" cy="1485" fill="#0f0a26" opacity=".49" rx="297.9" ry="118.8"/><ellipse cx="1602.6" cy="1484.4" fill="#0f0a26" opacity=".51" rx="294.1" ry="117.3"/><ellipse cx="1602.7" cy="1483.8" fill="#0f0a26" opacity=".529" rx="290.2" ry="115.7"/><ellipse cx="1602.9" cy="1483.2" fill="#0f0a26" opacity=".549" rx="286.4" ry="114.2"/><ellipse cx="1603" cy="1482.7" fill="#0f0a26" opacity=".569" rx="282.6" ry="112.7"/><ellipse cx="1603.1" cy="1482.1" fill="#0f0a26" opacity=".588" rx="278.8" ry="111.2"/><ellipse cx="1603.3" cy="1481.5" fill="#0f0a26" opacity=".608" rx="275" ry="109.7"/><ellipse cx="1603.4" cy="1480.9" fill="#0f0a26" opacity=".627" rx="271.2" ry="108.1"/><ellipse cx="1603.5" cy="1480.4" fill="#0f0a26" opacity=".647" rx="267.4" ry="106.6"/><ellipse cx="1603.7" cy="1479.8" fill="#0f0a26" opacity=".667" rx="263.6" ry="105.1"/><ellipse cx="1603.8" cy="1479.2" fill="#0f0a26" opacity=".686" rx="259.8" ry="103.6"/><ellipse cx="1603.9" cy="1478.7" fill="#0f0a26" opacity=".706" rx="255.9" ry="102.1"/><ellipse cx="1604.1" cy="1478.1" fill="#0f0a26" opacity=".726" rx="252.1" ry="100.5"/><ellipse cx="1604.2" cy="1477.5" fill="#0f0a26" opacity=".745" rx="248.3" ry="99"/><ellipse cx="1604.3" cy="1476.9" fill="#0f0a26" opacity=".765" rx="244.5" ry="97.5"/><ellipse cx="1604.5" cy="1476.4" fill="#0f0a26" opacity=".784" rx="240.7" ry="96"/><ellipse cx="1604.6" cy="1475.8" fill="#0f0a26" opacity=".804" rx="236.9" ry="94.5"/><ellipse cx="1604.7" cy="1475.2" fill="#0f0a26" opacity=".824" rx="233.1" ry="92.9"/><ellipse cx="1604.9" cy="1474.6" fill="#0f0a26" opacity=".843" rx="229.3" ry="91.4"/><ellipse cx="1605" cy="1474.1" fill="#0f0a26" opacity=".863" rx="225.5" ry="89.9"/><ellipse cx="1605.2" cy="1473.5" fill="#0f0a26" opacity=".882" rx="221.6" ry="88.4"/><ellipse cx="1605.3" cy="1472.9" fill="#0f0a26" opacity=".902" rx="217.8" ry="86.9"/><ellipse cx="1605.4" cy="1472.3" fill="#0f0a26" opacity=".922" rx="214" ry="85.3"/><ellipse cx="1605.6" cy="1471.8" fill="#0f0a26" opacity=".941" rx="210.2" ry="83.8"/><ellipse cx="1605.7" cy="1471.2" fill="#0f0a26" opacity=".961" rx="206.4" ry="82.3"/><ellipse cx="1605.8" cy="1470.6" fill="#0f0a26" opacity=".98" rx="202.6" ry="80.8"/><ellipse cx="1606" cy="1470.1" fill="#0f0a26" rx="198.8" ry="79.3"/></g><linearGradient id="a" x1="1246.419" x2="1763.894" y1="1422.428" y2="1477.192" gradientUnits="userSpaceOnUse"><stop offset="0" stop-color="#505faa"/><stop offset="1" stop-color="#2c3c91"/></linearGradient><path fill="url(#a)" d="M1278.9,1319l-114.5,47.1c-20.9,11.9-13,58.3,9.9,65.8l392.9,129.6c19.5,6.4,40.8,4,58.4-6.5l153.2-92.1
				L1278.9,1319z"/><linearGradient id="b" x1="1246.419" x2="1763.894" y1="1420.917" y2="1475.681" gradientUnits="userSpaceOnUse"><stop offset="0" stop-color="#8f92c7"/><stop offset="1" stop-color="#cfd5eb"/></linearGradient><path fill="url(#b)" d="M1278.9,1317.5l-114.5,47.1c-20.9,11.9-13,58.3,9.9,65.8l392.9,129.6c19.5,6.4,40.8,4,58.4-6.5l153.2-92.1
				L1278.9,1317.5z"/><linearGradient id="c" x1="1472.772" x2="1451.136" y1="1390.771" y2="1462.603" gradientUnits="userSpaceOnUse"><stop offset="0" stop-color="#8f92c7"/><stop offset="1" stop-color="#cfd5eb"/></linearGradient><path fill="url(#c)" d="M1278.9,1297l-109.7,62.4c-20.9,11.9-17.8,43,5,50.6l392.9,129.6c19.5,6.4,40.8,4,58.4-6.5l153.2-92.1
				L1278.9,1297z"/><linearGradient id="d" x1="1798.894" x2="1479.072" y1="760.237" y2="1144.743" gradientUnits="userSpaceOnUse"><stop offset="0" stop-color="#505faa"/><stop offset=".704" stop-color="#8f92c7"/><stop offset="1" stop-color="#bcbedd"/></linearGradient><path fill="url(#d)" d="M1945,1516.7c-6.9,0-13.8-1-20.4-2.9l-852.7-242.7c-36.3-10.3-76.8-53.1-68-89.8l173.4-635.3
				c8.4-35.1,39.5-59.6,75.5-59.6c4.7,0,9.4,0.4,14.1,1.3l869.6,159.5c16.6,3,19.6,0.4,28.9,14.5s23.6,43,19.9,59.4l-167.6,737.4
				C2009.8,1492.9,1980,1516.7,1945,1516.7z"/><linearGradient id="e" x1="1703.833" x2="1521.809" y1="1613.037" y2="531.097" gradientUnits="userSpaceOnUse"><stop offset="0" stop-color="#505faa"/><stop offset=".704" stop-color="#8f92c7"/><stop offset="1" stop-color="#bcbedd"/></linearGradient><path fill="url(#e)" d="M1931.1,1496.7c-6.9,0-13.8-1-20.4-2.9L1058,1251.1c-36.3-10.3-57.8-47.2-49-83.9L1163.3,526
				c8.4-35.1,39.5-59.6,75.5-59.6c4.7,0,9.4,0.4,14.1,1.3l869.6,159.5c16.6,3,30.9,12.5,40.1,26.6c9.3,14.1,12.3,30.9,8.6,47.4
				l-167.6,737.4C1996,1472.8,1966.1,1496.7,1931.1,1496.7z"/><linearGradient id="f" x1="1638.61" x2="1538.241" y1="657.276" y2="1230.568" gradientUnits="userSpaceOnUse"><stop offset="0" stop-color="#505faa"/><stop offset="1" stop-color="#2c3c91"/></linearGradient><path fill="url(#f)" d="M1249.3,487.8l869.6,159.5c22.9,4.2,37.7,26.7,32.6,49.4l-167.6,737.4c-6.9,30.3-37.8,48.6-67.7,40.1
				l-852.7-242.7c-25.7-7.3-41-33.6-34.8-59.5l154.4-641.2C1190.3,501.2,1219.3,482.3,1249.3,487.8z"/><linearGradient id="g" x1="1675.101" x2="668.951" y1="1777.934" y2="1739.863" gradientUnits="userSpaceOnUse"><stop offset="0" stop-color="#505faa"/><stop offset="1" stop-color="#2c3c91"/></linearGradient><path fill="url(#g)" d="M929.8,1490.9l820.6,266.1c20,7.2,19.5,61.4,1,71.7l-349,192.9c-22.3,12.4-49.3,13.1-72.3,2L574.7,1659
				c-21.3-10.3-22.2-68.5-0.8-78.3l249.9-85.3C857.2,1480.1,895.2,1478.6,929.8,1490.9z"/><linearGradient id="h" x1="1675.101" x2="668.951" y1="1776.489" y2="1738.418" gradientUnits="userSpaceOnUse"><stop offset="0" stop-color="#f1f3f9"/><stop offset="1" stop-color="#cfd5eb"/></linearGradient><path fill="url(#h)" d="M929.8,1489.5l820.6,266.1c20,7.2,19.5,61.4,1,71.7l-349,192.9c-22.3,12.4-49.3,13.1-72.3,2l-755.5-364.7
				c-21.3-10.3-22.2-68.5-0.8-78.3l249.9-85.3C857.2,1478.7,895.2,1477.1,929.8,1489.5z"/><linearGradient id="i" x1="552.158" x2="1762.46" y1="1665.414" y2="1793.498" gradientUnits="userSpaceOnUse"><stop offset="0" stop-color="#f1f3f9"/><stop offset="1" stop-color="#cfd5eb"/></linearGradient><path fill="url(#i)" d="M929.8,1459.9l818,293c20,7.2,22.2,34.6,3.6,44.8l-349,192.9c-22.3,12.4-49.3,13.1-72.3,2l-755.5-364.7
				c-21.3-10.3-20.9-40.7,0.6-50.4l248.5-113.2C857.2,1449.1,895.2,1447.5,929.8,1459.9z"/><linearGradient id="j" x1="1669.561" x2="817.772" y1="1204.164" y2="1584.373" gradientUnits="userSpaceOnUse"><stop offset="0" stop-color="#505faa"/><stop offset="1" stop-color="#2c3c91"/></linearGradient><path fill="url(#j)" d="M906.4,1529.4c15.1,6,22.6,8.9,37.7,14.9c4.5,1.8,11.2,1.8,15,0c12.7-6,19.1-9,32.5-15.3
						c4-1.9,3.6-4.8-0.9-6.6c-15.2-5.8-22.8-8.8-38-14.6c-4.5-1.8-11.5-1.7-15.5,0.2c-13.4,6.2-19.8,9.2-32.3,15
						C901.3,1524.8,901.9,1527.7,906.4,1529.4z"/><linearGradient id="k" x1="1670.337" x2="812.082" y1="1264.011" y2="1647.108" gradientUnits="userSpaceOnUse"><stop offset="0" stop-color="#505faa"/><stop offset="1" stop-color="#2c3c91"/></linearGradient><path fill="url(#k)" d="M1063.1,1550c-15.2-5.7-22.7-8.6-37.9-14.4c-4.5-1.7-11.5-1.6-15.5,0.3c-13.4,6.3-19.9,9.3-32.6,15.4
						c-3.8,1.8-3.2,4.7,1.3,6.4c15.1,5.9,22.6,8.8,37.7,14.7c4.5,1.8,11.3,1.7,15.1-0.1c12.9-6.1,19.4-9.3,32.8-15.7
						C1068,1554.7,1067.6,1551.8,1063.1,1550z"/><linearGradient id="l" x1="1669.346" x2="805.406" y1="1324.251" y2="1709.884" gradientUnits="userSpaceOnUse"><stop offset="0" stop-color="#505faa"/><stop offset="1" stop-color="#2c3c91"/></linearGradient><path fill="url(#l)" d="M1135.3,1577.2c-15.1-5.7-22.7-8.5-37.8-14.2c-4.5-1.7-11.5-1.5-15.5,0.4c-13.4,6.4-20,9.6-32.9,15.8
						c-3.9,1.9-3.3,4.8,1.2,6.5c15.1,5.8,22.6,8.8,37.7,14.6c4.5,1.7,11.3,1.6,15.2-0.3c13-6.4,19.6-9.6,33-16.2
						C1140.2,1581.9,1139.8,1578.9,1135.3,1577.2z"/><linearGradient id="m" x1="1666.792" x2="797.843" y1="1384.792" y2="1772.662" gradientUnits="userSpaceOnUse"><stop offset="0" stop-color="#505faa"/><stop offset="1" stop-color="#2c3c91"/></linearGradient><path fill="url(#m)" d="M1122.1,1613.4c15.1,5.8,22.6,8.7,37.6,14.4c4.5,1.7,11.3,1.5,15.3-0.4c13.2-6.6,19.8-9.9,33.2-16.7
						c4-2,3.6-5-0.9-6.7c-15.1-5.6-22.6-8.4-37.7-14c-4.5-1.7-11.4-1.4-15.5,0.6c-13.4,6.6-20,9.9-33.1,16.3
						C1117.1,1608.8,1117.6,1611.7,1122.1,1613.4z"/><linearGradient id="n" x1="1662.844" x2="789.451" y1="1445.564" y2="1835.417" gradientUnits="userSpaceOnUse"><stop offset="0" stop-color="#505faa"/><stop offset="1" stop-color="#2c3c91"/></linearGradient><path fill="url(#n)" d="M1193.7,1640.9c15,5.7,22.5,8.6,37.5,14.3c4.5,1.7,11.3,1.4,15.3-0.6c13.3-6.9,20-10.3,33.3-17.4
						c4-2.1,3.6-5.2-0.9-6.8c-15-5.5-22.5-8.3-37.6-13.8c-4.5-1.7-11.4-1.3-15.4,0.7c-13.4,6.9-20,10.2-33.2,16.9
						C1188.8,1636.2,1189.2,1639.2,1193.7,1640.9z"/><linearGradient id="o" x1="1657.63" x2="780.253" y1="1506.512" y2="1898.144" gradientUnits="userSpaceOnUse"><stop offset="0" stop-color="#505faa"/><stop offset="1" stop-color="#2c3c91"/></linearGradient><path fill="url(#o)" d="M1265.1,1668.2c14.9,5.7,22.4,8.5,37.3,14.2c4.5,1.7,11.3,1.3,15.4-0.8c13.5-7.1,20.2-10.7,33.5-18.1
						c4-2.2,3.6-5.3-0.9-6.9c-14.9-5.5-22.4-8.2-37.4-13.7c-4.5-1.6-11.3-1.2-15.3,0.9c-13.3,7.1-20,10.6-33.4,17.5
						C1260.3,1663.4,1260.6,1666.5,1265.1,1668.2z"/><linearGradient id="p" x1="1651.241" x2="770.228" y1="1567.598" y2="1960.853" gradientUnits="userSpaceOnUse"><stop offset="0" stop-color="#505faa"/><stop offset="1" stop-color="#2c3c91"/></linearGradient><path fill="url(#p)" d="M1421.4,1682.6c-14.9-5.4-22.3-8.1-37.2-13.6c-4.5-1.6-11.3-1.1-15.3,1.1c-13.3,7.4-20,11-33.5,18.2
						c-4,2.2-3.7,5.3,0.7,7c14.9,5.7,22.3,8.5,37.1,14.1c4.4,1.7,11.3,1.3,15.4-1c13.6-7.4,20.3-11.2,33.6-18.8
						C1426.3,1687.3,1425.8,1684.2,1421.4,1682.6z"/><linearGradient id="q" x1="1643.726" x2="759.321" y1="1628.803" y2="2023.572" gradientUnits="userSpaceOnUse"><stop offset="0" stop-color="#505faa"/><stop offset="1" stop-color="#2c3c91"/></linearGradient><path fill="url(#q)" d="M1492,1708.3c-14.8-5.4-22.2-8.1-37-13.5c-4.4-1.6-11.2-1.1-15.2,1.2c-13.2,7.7-20,11.4-33.6,19
						c-4.1,2.2-3.8,5.4,0.6,7.1c14.8,5.6,22.1,8.4,36.9,14c4.4,1.7,11.3,1.2,15.4-1.2c13.7-7.7,20.5-11.6,33.7-19.5
						C1496.8,1713.1,1496.4,1709.9,1492,1708.3z"/><linearGradient id="r" x1="1635.1" x2="747.43" y1="1690.124" y2="2086.35" gradientUnits="userSpaceOnUse"><stop offset="0" stop-color="#505faa"/><stop offset="1" stop-color="#2c3c91"/></linearGradient><path fill="url(#r)" d="M1477,1748.8c14.7,5.6,22,8.4,36.6,14c4.4,1.7,11.3,1.1,15.5-1.3c13.9-8.1,20.7-12.1,33.9-20.3
						c3.9-2.4,3.5-5.7-0.8-7.3c-14.7-5.4-22-8-36.7-13.4c-4.4-1.6-11.1-1-15.1,1.4c-13.2,7.9-20,11.9-33.8,19.7
						C1472.4,1743.9,1472.6,1747.1,1477,1748.8z"/><linearGradient id="s" x1="1625.334" x2="734.419" y1="1751.575" y2="2149.249" gradientUnits="userSpaceOnUse"><stop offset="0" stop-color="#505faa"/><stop offset="1" stop-color="#2c3c91"/></linearGradient><path fill="url(#s)" d="M1631.7,1759.3c-14.5-5.3-21.8-8-36.4-13.3c-4.4-1.6-11.1-0.9-15,1.6c-13.2,8.2-20,12.3-34,20.4
						c-4.2,2.4-4.1,5.7,0.3,7.4c14.5,5.6,21.8,8.3,36.3,13.9c4.3,1.7,11.3,1,15.5-1.5c14.1-8.4,20.9-12.6,34.1-21
						C1636.4,1764.3,1636,1760.9,1631.7,1759.3z"/><linearGradient id="t" x1="1496.317" x2="819.063" y1="1313.146" y2="1615.45" gradientUnits="userSpaceOnUse"><stop offset="0" stop-color="#505faa"/><stop offset="1" stop-color="#2c3c91"/></linearGradient><path fill="url(#t)" d="M1002.9,1578.8c-10.8-4.2-16.2-6.4-26.9-10.6c-4.3-1.7-6.4-2.5-10.7-4.2c-28.7-11.3-43-17-71.6-28.4
						c-4.5-1.8-11.1-1.9-14.6-0.2c-12,5.7-17.8,8.5-29.4,14c-3.5,1.7-2.7,4.5,1.7,6.3c28.1,11.6,42.2,17.4,70.3,29
						c4.2,1.7,6.3,2.6,10.5,4.3c10.6,4.4,15.9,6.5,26.5,10.9c4.4,1.8,11,1.9,14.6,0.1c12.3-5.9,18.4-8.8,31-14.8
						C1008,1583.4,1007.4,1580.5,1002.9,1578.8z"/><linearGradient id="u" x1="1621.063" x2="788.769" y1="1347.934" y2="1719.442" gradientUnits="userSpaceOnUse"><stop offset="0" stop-color="#505faa"/><stop offset="1" stop-color="#2c3c91"/></linearGradient><path fill="url(#u)" d="M1074.5,1606.8c-15-5.9-22.5-8.8-37.6-14.7c-4.5-1.8-11.2-1.7-15,0.1c-12.6,6-18.8,9-31.2,14.9
						c-3.7,1.8-3.1,4.7,1.3,6.5c14.8,6.1,22.2,9.1,37,15.1c4.4,1.8,11.1,1.8,14.8,0c12.6-6.1,19-9.1,31.8-15.3
						C1079.5,1611.5,1079,1608.6,1074.5,1606.8z"/><linearGradient id="v" x1="1625.391" x2="780.327" y1="1406.043" y2="1783.252" gradientUnits="userSpaceOnUse"><stop offset="0" stop-color="#505faa"/><stop offset="1" stop-color="#2c3c91"/></linearGradient><path fill="url(#v)" d="M1062.5,1642.4c14.8,6,22.2,9,36.9,15.1c4.4,1.8,11.1,1.7,15-0.2c13-6.3,19.5-9.5,32.5-16
						c3.9-1.9,3.5-4.9-1-6.7c-15-5.8-22.5-8.7-37.5-14.6c-4.5-1.7-11.3-1.6-15.1,0.2c-12.9,6.3-19.3,9.4-32,15.5
						C1057.6,1637.6,1058.1,1640.6,1062.5,1642.4z"/><linearGradient id="w" x1="1626.943" x2="769.746" y1="1465.157" y2="1847.781" gradientUnits="userSpaceOnUse"><stop offset="0" stop-color="#505faa"/><stop offset="1" stop-color="#2c3c91"/></linearGradient><path fill="url(#w)" d="M1132.9,1671.1c14.7,6,22.1,9,36.8,15c4.4,1.8,11.2,1.6,15.2-0.3c13.3-6.6,20-9.9,33.3-16.7
						c4-2,3.6-5-0.9-6.8c-14.9-5.8-22.4-8.7-37.4-14.5c-4.5-1.7-11.3-1.6-15.2,0.4c-13.1,6.5-19.7,9.7-32.7,16.1
						C1128.1,1666.3,1128.5,1669.3,1132.9,1671.1z"/><linearGradient id="x" x1="1625.845" x2="757.042" y1="1525.183" y2="1912.988" gradientUnits="userSpaceOnUse"><stop offset="0" stop-color="#505faa"/><stop offset="1" stop-color="#2c3c91"/></linearGradient><path fill="url(#x)" d="M1203,1699.6c14.7,6,22,9,36.7,14.9c4.4,1.8,11.2,1.6,15.3-0.5c13.6-6.9,20.4-10.4,34-17.4
						c4.1-2.1,3.7-5.2-0.7-6.9c-14.9-5.7-22.3-8.6-37.2-14.4c-4.5-1.7-11.3-1.5-15.3,0.6c-13.4,6.8-20.1,10.2-33.5,16.8
						C1198.3,1694.8,1198.6,1697.8,1203,1699.6z"/><linearGradient id="y" x1="1622.183" x2="742.192" y1="1586.05" y2="1978.849" gradientUnits="userSpaceOnUse"><stop offset="0" stop-color="#505faa"/><stop offset="1" stop-color="#2c3c91"/></linearGradient><path fill="url(#y)" d="M1359,1717c-14.8-5.7-22.2-8.6-37-14.3c-4.4-1.7-11.3-1.4-15.4,0.7c-13.6,7.1-20.5,10.6-34.2,17.6
						c-4.1,2.1-3.9,5.2,0.5,7c14.6,6,21.9,8.9,36.5,14.9c4.4,1.8,11.3,1.5,15.4-0.7c13.9-7.2,20.9-10.8,34.7-18.2
						C1363.6,1721.9,1363.4,1718.7,1359,1717z"/><linearGradient id="z" x1="1616.005" x2="725.126" y1="1647.699" y2="2045.357" gradientUnits="userSpaceOnUse"><stop offset="0" stop-color="#505faa"/><stop offset="1" stop-color="#2c3c91"/></linearGradient><path fill="url(#z)" d="M1429.2,1744.1c-14.7-5.7-22-8.5-36.8-14.2c-4.4-1.7-11.3-1.3-15.5,0.9c-13.9,7.4-20.9,11.1-34.9,18.4
						c-4.2,2.2-4.1,5.4,0.3,7.1c14.5,5.9,21.8,8.9,36.2,14.8c4.3,1.8,11.3,1.4,15.6-0.9c14.3-7.5,21.4-11.3,35.5-19
						C1433.7,1749.1,1433.6,1745.8,1429.2,1744.1z"/><linearGradient id="A" x1="1578.622" x2="861.822" y1="1751.997" y2="2071.952" gradientUnits="userSpaceOnUse"><stop offset="0" stop-color="#505faa"/><stop offset="1" stop-color="#2c3c91"/></linearGradient><path fill="url(#A)" d="M1567.9,1798c-27.5-10.7-41.3-16.1-69.1-26.9c-9.4-3.7-14.1-5.5-23.6-9.1c-5.2-2-7.7-3-12.9-5
						c-4.4-1.7-11.3-1.2-15.5,1.1c-14.1,7.7-21.3,11.6-35.6,19.2c-4.3,2.3-4.3,5.5,0,7.3c5.1,2.1,7.6,3.1,12.7,5.2
						c9.3,3.8,13.9,5.7,23.2,9.5c27.3,11.2,40.9,16.8,67.9,28c4.2,1.8,11.3,1.2,15.8-1.2c15-8.2,22.4-12.3,37-20.6
						C1572.2,1803,1572.2,1799.6,1567.9,1798z"/><linearGradient id="B" x1="1559.263" x2="777.601" y1="1256.586" y2="1605.494" gradientUnits="userSpaceOnUse"><stop offset="0" stop-color="#505faa"/><stop offset="1" stop-color="#2c3c91"/></linearGradient><path fill="url(#B)" d="M797.9,1581.3c14.3,6.2,21.5,9.3,35.8,15.6c4.3,1.9,10.7,2,14.2,0.3c11.9-5.6,17.7-8.4,29.5-14.1
						c3.5-1.7,2.8-4.5-1.6-6.4c-14.7-6.1-22-9.2-36.6-15.3c-4.4-1.8-10.7-2-14.1-0.3c-11.5,5.5-17.2,8.3-28.7,13.8
						C793,1576.6,793.6,1579.5,797.9,1581.3z"/><linearGradient id="C" x1="1571.833" x2="774.152" y1="1311.325" y2="1667.383" gradientUnits="userSpaceOnUse"><stop offset="0" stop-color="#505faa"/><stop offset="1" stop-color="#2c3c91"/></linearGradient><path fill="url(#C)" d="M945.9,1605.9c-14.7-6.1-22-9.2-36.7-15.3c-4.4-1.8-10.8-1.9-14.4-0.2c-11.9,5.7-17.8,8.5-29.7,14.1
						c-3.6,1.7-3,4.6,1.3,6.5c14.4,6.2,21.6,9.4,36,15.6c4.3,1.9,10.8,2,14.4,0.2c12.2-5.8,18.3-8.7,30.5-14.5
						C950.9,1610.6,950.3,1607.8,945.9,1605.9z"/><linearGradient id="D" x1="1580.985" x2="768.233" y1="1367.654" y2="1730.439" gradientUnits="userSpaceOnUse"><stop offset="0" stop-color="#505faa"/><stop offset="1" stop-color="#2c3c91"/></linearGradient><path fill="url(#D)" d="M1015.9,1635c-14.7-6.1-22-9.1-36.7-15.2c-4.4-1.8-10.9-1.9-14.6-0.1c-12.3,5.8-18.4,8.8-30.7,14.6
						c-3.7,1.7-3.2,4.7,1.1,6.5c14.4,6.3,21.6,9.4,36.1,15.6c4.3,1.9,10.9,1.9,14.6,0.1c12.6-6,18.9-9,31.4-15
						C1020.9,1639.8,1020.3,1636.8,1015.9,1635z"/><linearGradient id="E" x1="1586.924" x2="759.939" y1="1425.408" y2="1794.547" gradientUnits="userSpaceOnUse"><stop offset="0" stop-color="#505faa"/><stop offset="1" stop-color="#2c3c91"/></linearGradient><path fill="url(#E)" d="M1003.7,1670.6c14.4,6.3,21.6,9.4,36.1,15.6c4.3,1.9,10.9,1.9,14.8,0c12.9-6.2,19.4-9.3,32.3-15.6
						c3.9-1.9,3.4-4.9-0.9-6.7c-14.7-6.1-22-9.1-36.7-15.2c-4.4-1.8-11-1.8-14.8,0c-12.7,6.1-19,9.1-31.7,15.1
						C999,1665.7,999.4,1668.7,1003.7,1670.6z"/><linearGradient id="F" x1="1589.82" x2="749.327" y1="1484.444" y2="1859.612" gradientUnits="userSpaceOnUse"><stop offset="0" stop-color="#505faa"/><stop offset="1" stop-color="#2c3c91"/></linearGradient><path fill="url(#F)" d="M1072.5,1700.4c14.4,6.3,21.6,9.4,36,15.6c4.3,1.9,11,1.8,15-0.1c13.3-6.5,19.9-9.7,33.2-16.2
						c4-2,3.6-5-0.7-6.8c-14.6-6.1-22-9.1-36.6-15.1c-4.4-1.8-11.1-1.7-15,0.1c-13,6.3-19.5,9.5-32.5,15.7
						C1067.8,1695.5,1068.2,1698.5,1072.5,1700.4z"/><linearGradient id="G" x1="1589.797" x2="736.412" y1="1544.629" y2="1925.552" gradientUnits="userSpaceOnUse"><stop offset="0" stop-color="#505faa"/><stop offset="1" stop-color="#2c3c91"/></linearGradient><path fill="url(#G)" d="M1141,1730.2c14.4,6.3,21.5,9.4,35.9,15.6c4.3,1.9,11,1.8,15.1-0.3c13.6-6.7,20.4-10.1,34-16.9
						c4.1-2,3.8-5.2-0.5-7c-14.6-6-21.9-9-36.5-15.1c-4.4-1.8-11.2-1.7-15.2,0.3c-13.4,6.6-20,9.9-33.4,16.4
						C1136.5,1725.3,1136.7,1728.4,1141,1730.2z"/><linearGradient id="H" x1="1586.947" x2="721.169" y1="1605.853" y2="1992.308" gradientUnits="userSpaceOnUse"><stop offset="0" stop-color="#505faa"/><stop offset="1" stop-color="#2c3c91"/></linearGradient><path fill="url(#H)" d="M1294.8,1750.4c-14.5-6-21.7-9-36.3-15c-4.3-1.8-11.2-1.6-15.3,0.5c-13.7,6.9-20.6,10.3-34.2,17.1
						c-4.1,2-3.9,5.2,0.4,7.1c14.3,6.2,21.4,9.4,35.7,15.6c4.3,1.9,11.1,1.7,15.2-0.4c13.9-7,20.9-10.6,34.9-17.7
						C1299.2,1755.4,1299.1,1752.2,1294.8,1750.4z"/><linearGradient id="I" x1="1581.316" x2="703.531" y1="1668.024" y2="2059.838" gradientUnits="userSpaceOnUse"><stop offset="0" stop-color="#505faa"/><stop offset="1" stop-color="#2c3c91"/></linearGradient><path fill="url(#I)" d="M1363.6,1779c-14.4-6-21.6-9-36-15c-4.3-1.8-11.2-1.5-15.4,0.7c-14.1,7.2-21.1,10.8-35.1,17.9
						c-4.2,2.1-4.1,5.3,0.1,7.2c14.2,6.2,21.3,9.3,35.4,15.5c4.2,1.9,11.1,1.6,15.3-0.6c14.2-7.3,21.4-11,35.7-18.4
						C1367.9,1784,1367.9,1780.7,1363.6,1779z"/><linearGradient id="J" x1="1572.909" x2="683.39" y1="1731.064" y2="2128.117" gradientUnits="userSpaceOnUse"><stop offset="0" stop-color="#505faa"/><stop offset="1" stop-color="#2c3c91"/></linearGradient><path fill="url(#J)" d="M1344.5,1819.3c14.1,6.2,21.1,9.3,35,15.5c4.2,1.9,11.1,1.5,15.4-0.8c14.6-7.6,21.9-11.5,36.6-19.2
						c4.4-2.3,4.5-5.6,0.2-7.4c-14.2-6-21.4-8.9-35.7-14.9c-4.3-1.8-11.3-1.4-15.6,0.8c-14.4,7.5-21.6,11.2-35.9,18.6
						C1340.4,1814.2,1340.3,1817.5,1344.5,1819.3z"/><linearGradient id="K" x1="1561.696" x2="660.589" y1="1794.919" y2="2197.144" gradientUnits="userSpaceOnUse"><stop offset="0" stop-color="#505faa"/><stop offset="1" stop-color="#2c3c91"/></linearGradient><path fill="url(#K)" d="M1499.4,1835.7c-14.1-5.9-21.2-8.9-35.3-14.8c-4.2-1.8-11.3-1.3-15.7,1c-14.8,7.8-22.2,11.7-36.8,19.4
						c-4.4,2.3-4.5,5.7-0.4,7.5c13.9,6.2,20.8,9.3,34.6,15.4c4.1,1.8,11.1,1.4,15.5-0.9c14.9-7.9,22.5-11.9,37.5-20
						C1503.3,1840.9,1503.6,1837.5,1499.4,1835.7z"/><linearGradient id="L" x1="1413.098" x2="762.663" y1="1353.609" y2="1643.941" gradientUnits="userSpaceOnUse"><stop offset="0" stop-color="#505faa"/><stop offset="1" stop-color="#2c3c91"/></linearGradient><path fill="url(#L)" d="M889.5,1632.7c-8-3.5-11.9-5.2-19.9-8.7c-6.4-2.8-9.5-4.2-15.9-7c-27.3-12-40.9-17.9-68-29.8
						c-4.3-1.9-10.5-2-14.1-0.3c-11.8,5.6-17.8,8.5-30.2,14.3c-3.7,1.7-3.4,4.7,0.8,6.6c26.7,12,40.1,18,67,30.1
						c6.3,2.8,9.4,4.2,15.7,7.1c7.8,3.5,11.8,5.3,19.6,8.8c4.2,1.9,10.8,2,14.6,0.2c12.7-6,19-8.9,31.4-14.7
						C894.3,1637.5,893.8,1634.6,889.5,1632.7z"/><linearGradient id="M" x1="1553.141" x2="741.938" y1="1381.687" y2="1743.781" gradientUnits="userSpaceOnUse"><stop offset="0" stop-color="#505faa"/><stop offset="1" stop-color="#2c3c91"/></linearGradient><path fill="url(#M)" d="M957.9,1662.7c-14.4-6.3-21.5-9.4-35.9-15.7c-4.3-1.9-10.8-2-14.5-0.2c-12.5,5.9-18.8,8.8-31.5,14.8
						c-3.8,1.8-3.5,4.8,0.7,6.7c14.2,6.4,21.3,9.6,35.4,16c4.2,1.9,10.8,2,14.7,0.2c12.9-6.1,19.3-9.1,32-15.1
						C962.6,1667.5,962.2,1664.5,957.9,1662.7z"/><linearGradient id="N" x1="1555.003" x2="734.447" y1="1441.571" y2="1807.84" gradientUnits="userSpaceOnUse"><stop offset="0" stop-color="#505faa"/><stop offset="1" stop-color="#2c3c91"/></linearGradient><path fill="url(#N)" d="M944.3,1698.9c14.2,6.4,21.3,9.7,35.5,16.1c4.2,1.9,10.9,2,14.8,0.1c13.1-6.3,19.5-9.4,32.5-15.6
						c3.9-1.9,3.5-4.9-0.8-6.8c-14.4-6.3-21.5-9.5-35.9-15.8c-4.3-1.9-10.9-1.9-14.7-0.1c-12.8,6.1-19.2,9.1-32.1,15.2
						C939.7,1693.9,940,1696.9,944.3,1698.9z"/><linearGradient id="O" x1="1554.663" x2="725.598" y1="1502.514" y2="1872.582" gradientUnits="userSpaceOnUse"><stop offset="0" stop-color="#505faa"/><stop offset="1" stop-color="#2c3c91"/></linearGradient><path fill="url(#O)" d="M1011.9,1729.6c14.2,6.5,21.3,9.7,35.5,16.2c4.2,1.9,10.9,1.9,14.8,0c13.2-6.5,19.8-9.7,33-16.1
						c4-1.9,3.7-5-0.6-6.9c-14.3-6.3-21.5-9.5-35.8-15.8c-4.3-1.9-10.9-1.9-14.8,0c-13,6.3-19.6,9.4-32.6,15.7
						C1007.4,1724.6,1007.7,1727.7,1011.9,1729.6z"/><linearGradient id="P" x1="1552.26" x2="715.414" y1="1564.347" y2="1937.887" gradientUnits="userSpaceOnUse"><stop offset="0" stop-color="#505faa"/><stop offset="1" stop-color="#2c3c91"/></linearGradient><path fill="url(#P)" d="M1079.5,1760.5c14.2,6.5,21.2,9.7,35.3,16.2c4.2,1.9,10.9,1.9,14.8-0.1c13.3-6.7,20-10,33.5-16.7
						c4-2,3.9-5.2-0.4-7c-14.3-6.3-21.4-9.5-35.7-15.8c-4.3-1.9-11-1.8-14.9,0.1c-13.3,6.5-19.9,9.8-33.1,16.3
						C1075,1755.4,1075.3,1758.5,1079.5,1760.5z"/><linearGradient id="Q" x1="1547.889" x2="703.88" y1="1626.914" y2="2003.652" gradientUnits="userSpaceOnUse"><stop offset="0" stop-color="#505faa"/><stop offset="1" stop-color="#2c3c91"/></linearGradient><path fill="url(#Q)" d="M1230.6,1782.9c-14.2-6.3-21.3-9.4-35.5-15.7c-4.3-1.9-11-1.8-15,0.3c-13.5,6.8-20.3,10.1-33.6,16.9
						c-4,2-3.8,5.2,0.4,7.2c14.1,6.5,21.1,9.7,35.1,16.2c4.2,1.9,10.8,1.8,14.9-0.2c13.4-6.9,20.3-10.4,34-17.3
						C1234.9,1788,1234.8,1784.8,1230.6,1782.9z"/><linearGradient id="R" x1="1541.607" x2="690.936" y1="1690.084" y2="2069.795" gradientUnits="userSpaceOnUse"><stop offset="0" stop-color="#505faa"/><stop offset="1" stop-color="#2c3c91"/></linearGradient><path fill="url(#R)" d="M1297.9,1812.8c-14.1-6.3-21.1-9.4-35.2-15.7c-4.2-1.9-11-1.7-15.1,0.4c-13.8,7-20.6,10.5-34.1,17.5
						c-4,2.1-3.9,5.3,0.3,7.3c14,6.5,20.9,9.7,34.8,16.2c4.2,1.9,10.8,1.8,14.8-0.4c13.6-7.1,20.5-10.7,34.5-17.9
						C1302.1,1818,1302.1,1814.7,1297.9,1812.8z"/><linearGradient id="S" x1="1491.114" x2="817.32" y1="1802.397" y2="2103.156" gradientUnits="userSpaceOnUse"><stop offset="0" stop-color="#505faa"/><stop offset="1" stop-color="#2c3c91"/></linearGradient><path fill="url(#S)" d="M1430.4,1872.4c-26.2-11.9-39.4-17.8-65.9-29.7c-9-4-13.5-6.1-22.5-10.1c-4.9-2.2-7.4-3.3-12.3-5.5
						c-4.2-1.9-11-1.6-15.2,0.6c-14.1,7.3-21,10.9-34.6,18.1c-4.1,2.1-4,5.5,0.2,7.4c4.9,2.3,7.3,3.4,12.2,5.7
						c8.9,4.2,13.4,6.3,22.3,10.4c26.2,12.3,39.2,18.4,65.1,30.6c4.1,1.9,10.7,1.6,14.8-0.6c13.9-7.6,21.1-11.4,35.6-19.2
						C1434.3,1877.7,1434.5,1874.3,1430.4,1872.4z"/><linearGradient id="T" x1="1557.962" x2="723.656" y1="1259.905" y2="1632.312" gradientUnits="userSpaceOnUse"><stop offset="0" stop-color="#505faa"/><stop offset="1" stop-color="#2c3c91"/></linearGradient><path fill="url(#T)" d="M764,1629.7c-14-6.3-21-9.5-35-15.8c-4.2-1.9-10.7-2-14.6-0.2c-13.1,6-19.8,9.1-33.9,15.5
						c-4.2,1.9-4.3,5-0.1,6.9c14,6.3,21,9.4,35.1,15.8c4.2,1.9,11.1,1.9,15.3,0c14-6.4,20.7-9.5,33.8-15.5
						C768.4,1634.6,768.2,1631.6,764,1629.7z"/><linearGradient id="U" x1="1550.54" x2="716.012" y1="1323.498" y2="1696.004" gradientUnits="userSpaceOnUse"><stop offset="0" stop-color="#505faa"/><stop offset="1" stop-color="#2c3c91"/></linearGradient><path fill="url(#U)" d="M831.1,1660.1c-14.1-6.4-21.2-9.6-35.3-16c-4.2-1.9-10.8-2-14.7-0.2c-13.1,6.1-19.9,9.2-33.8,15.5
						c-4.2,1.9-4.2,5,0,6.9c14.1,6.4,21.2,9.6,35.4,16c4.2,1.9,11.1,1.9,15.2,0c13.8-6.4,20.5-9.5,33.7-15.6
						C835.6,1665,835.3,1662,831.1,1660.1z"/><linearGradient id="V" x1="1542.526" x2="708.934" y1="1387.882" y2="1759.97" gradientUnits="userSpaceOnUse"><stop offset="0" stop-color="#505faa"/><stop offset="1" stop-color="#2c3c91"/></linearGradient><path fill="url(#V)" d="M898.5,1690.7c-14.2-6.5-21.2-9.7-35.4-16.1c-4.2-1.9-10.8-2-14.8-0.2c-13.2,6.1-19.9,9.3-33.6,15.6
						c-4.1,1.9-4,5,0.2,7c14.2,6.5,21.3,9.7,35.6,16.2c4.3,1.9,11,2,15.1,0c13.6-6.4,20.2-9.5,33.4-15.8
						C903,1695.7,902.7,1692.6,898.5,1690.7z"/><linearGradient id="W" x1="1373.918" x2="792.484" y1="1616.894" y2="1876.427" gradientUnits="userSpaceOnUse"><stop offset="0" stop-color="#505faa"/><stop offset="1" stop-color="#2c3c91"/></linearGradient><path fill="url(#W)" d="M1168,1814.7c-3.6-1.7-5.4-2.5-9-4.2c-10.4-4.8-15.6-7.3-26.1-12.1c-12.8-5.9-19.1-8.9-31.9-14.8
						c-14.1-6.5-21.2-9.8-35.3-16.3c-12.8-5.9-19.2-8.9-32.1-14.8c-14.2-6.5-21.2-9.8-35.4-16.3c-27-12.4-40.6-18.6-67.6-30.9
						c-4.2-1.9-10.9-2-14.8-0.1c-13.2,6.2-19.8,9.4-33.4,15.8c-4,1.9-3.9,5.1,0.4,7c27.2,12.5,40.8,18.7,68,31.3
						c14.3,6.6,21.4,9.9,35.7,16.5c12.9,6,19.4,9,32.3,15c14.2,6.6,21.4,9.9,35.6,16.6c12.9,6,19.3,9,32.2,15.1
						c10.5,4.9,15.8,7.4,26.3,12.3c3.6,1.7,5.5,2.6,9.1,4.3c4.2,2,10.7,2,14.4-0.1c12.6-6.8,19.1-10.2,32.2-17.1
						C1172.4,1819.9,1172.2,1816.7,1168,1814.7z"/><linearGradient id="X" x1="1499.756" x2="684.489" y1="1713.774" y2="2077.682" gradientUnits="userSpaceOnUse"><stop offset="0" stop-color="#505faa"/><stop offset="1" stop-color="#2c3c91"/></linearGradient><path fill="url(#X)" d="M1234.6,1845.8c-13.9-6.5-20.9-9.8-34.8-16.3c-4.2-2-10.8-1.9-14.7,0.2c-13.1,6.9-19.5,10.3-32.1,17.2
						c-3.8,2-3.3,5.3,0.9,7.3c14.1,6.6,21.1,10,35.1,16.6c4.2,2,10.5,1.9,14.2-0.2c12.4-6.9,18.8-10.4,31.9-17.5
						C1238.9,1851.1,1238.7,1847.8,1234.6,1845.8z"/><linearGradient id="Y" x1="1491.362" x2="681.738" y1="1778.404" y2="2139.793" gradientUnits="userSpaceOnUse"><stop offset="0" stop-color="#505faa"/><stop offset="1" stop-color="#2c3c91"/></linearGradient><path fill="url(#Y)" d="M1300.4,1876.8c-13.7-6.5-20.6-9.7-34.4-16.2c-4.1-1.9-10.7-1.8-14.6,0.3c-13.1,7.1-19.5,10.6-31.8,17.6
						c-3.7,2.1-3.2,5.4,0.9,7.4c13.9,6.6,20.8,9.9,34.7,16.6c4.1,2,10.4,1.9,14-0.2c12.1-7.1,18.5-10.7,31.6-17.9
						C1304.6,1882.1,1304.5,1878.8,1300.4,1876.8z"/><linearGradient id="Z" x1="1483.076" x2="679.501" y1="1842.483" y2="2201.173" gradientUnits="userSpaceOnUse"><stop offset="0" stop-color="#505faa"/><stop offset="1" stop-color="#2c3c91"/></linearGradient><path fill="url(#Z)" d="M1365.4,1907.7c-13.5-6.5-20.3-9.7-34-16.2c-4.1-1.9-10.6-1.7-14.5,0.4c-13.1,7.3-19.4,10.9-31.5,18
						c-3.6,2.1-3.1,5.4,1,7.4c13.7,6.6,20.6,9.9,34.2,16.5c4.1,2,10.2,1.8,13.7-0.3c11.9-7.2,18.2-10.9,31.3-18.3
						C1369.5,1913,1369.5,1909.6,1365.4,1907.7z"/><linearGradient id="aa" x1="1669.561" x2="817.772" y1="1196.883" y2="1577.093" gradientUnits="userSpaceOnUse"><stop offset="0" stop-color="#505faa"/><stop offset="1" stop-color="#9aa3ce"/></linearGradient><path fill="url(#aa)" d="M906.4,1522.2c15.1,6,22.6,8.9,37.7,14.9c4.5,1.8,11.2,1.8,15,0c12.7-6,19.1-9,32.5-15.3
						c4-1.9,3.6-4.8-0.9-6.6c-15.2-5.8-22.8-8.8-38-14.6c-4.5-1.8-11.5-1.7-15.5,0.2c-13.4,6.2-19.8,9.2-32.3,15
						C901.3,1517.5,901.9,1520.4,906.4,1522.2z"/><linearGradient id="ab" x1="1670.337" x2="812.082" y1="1256.731" y2="1639.828" gradientUnits="userSpaceOnUse"><stop offset="0" stop-color="#505faa"/><stop offset="1" stop-color="#9aa3ce"/></linearGradient><path fill="url(#ab)" d="M1063.1,1542.8c-15.2-5.7-22.7-8.6-37.9-14.4c-4.5-1.7-11.5-1.6-15.5,0.3c-13.4,6.3-19.9,9.3-32.6,15.4
						c-3.8,1.8-3.2,4.7,1.3,6.4c15.1,5.9,22.6,8.8,37.7,14.7c4.5,1.8,11.3,1.7,15.1-0.1c12.9-6.1,19.4-9.3,32.8-15.7
						C1068,1547.4,1067.6,1544.5,1063.1,1542.8z"/><linearGradient id="ac" x1="1669.346" x2="805.406" y1="1316.971" y2="1702.604" gradientUnits="userSpaceOnUse"><stop offset="0" stop-color="#505faa"/><stop offset="1" stop-color="#9aa3ce"/></linearGradient><path fill="url(#ac)" d="M1135.3,1569.9c-15.1-5.7-22.7-8.5-37.8-14.2c-4.5-1.7-11.5-1.5-15.5,0.4c-13.4,6.4-20,9.6-32.9,15.8
						c-3.9,1.9-3.3,4.8,1.2,6.5c15.1,5.8,22.6,8.8,37.7,14.6c4.5,1.7,11.3,1.6,15.2-0.3c13-6.4,19.6-9.6,33-16.2
						C1140.2,1574.6,1139.8,1571.6,1135.3,1569.9z"/><linearGradient id="ad" x1="1666.792" x2="797.843" y1="1377.512" y2="1765.382" gradientUnits="userSpaceOnUse"><stop offset="0" stop-color="#505faa"/><stop offset="1" stop-color="#9aa3ce"/></linearGradient><path fill="url(#ad)" d="M1122.1,1606.2c15.1,5.8,22.6,8.7,37.6,14.4c4.5,1.7,11.3,1.5,15.3-0.4c13.2-6.6,19.8-9.9,33.2-16.7
						c4-2,3.6-5-0.9-6.7c-15.1-5.6-22.6-8.4-37.7-14c-4.5-1.7-11.4-1.4-15.5,0.6c-13.4,6.6-20,9.9-33.1,16.3
						C1117.1,1601.5,1117.6,1604.4,1122.1,1606.2z"/><linearGradient id="ae" x1="1662.844" x2="789.451" y1="1438.284" y2="1828.137" gradientUnits="userSpaceOnUse"><stop offset="0" stop-color="#505faa"/><stop offset="1" stop-color="#9aa3ce"/></linearGradient><path fill="url(#ae)" d="M1193.7,1633.6c15,5.7,22.5,8.6,37.5,14.3c4.5,1.7,11.3,1.4,15.3-0.6c13.3-6.9,20-10.3,33.3-17.4
						c4-2.1,3.6-5.2-0.9-6.8c-15-5.5-22.5-8.3-37.6-13.8c-4.5-1.7-11.4-1.3-15.4,0.7c-13.4,6.9-20,10.2-33.2,16.9
						C1188.8,1628.9,1189.2,1631.9,1193.7,1633.6z"/><linearGradient id="af" x1="1657.63" x2="780.253" y1="1499.232" y2="1890.864" gradientUnits="userSpaceOnUse"><stop offset="0" stop-color="#505faa"/><stop offset="1" stop-color="#9aa3ce"/></linearGradient><path fill="url(#af)" d="M1265.1,1660.9c14.9,5.7,22.4,8.5,37.3,14.2c4.5,1.7,11.3,1.3,15.4-0.8c13.5-7.1,20.2-10.7,33.5-18.1
						c4-2.2,3.6-5.3-0.9-6.9c-14.9-5.5-22.4-8.2-37.4-13.7c-4.5-1.6-11.3-1.2-15.3,0.9c-13.3,7.1-20,10.6-33.4,17.5
						C1260.3,1656.1,1260.6,1659.2,1265.1,1660.9z"/><linearGradient id="ag" x1="1651.241" x2="770.228" y1="1560.318" y2="1953.573" gradientUnits="userSpaceOnUse"><stop offset="0" stop-color="#505faa"/><stop offset="1" stop-color="#9aa3ce"/></linearGradient><path fill="url(#ag)" d="M1421.4,1675.3c-14.9-5.4-22.3-8.1-37.2-13.6c-4.5-1.6-11.3-1.1-15.3,1.1c-13.3,7.4-20,11-33.5,18.2
						c-4,2.2-3.7,5.3,0.7,7c14.9,5.7,22.3,8.5,37.1,14.1c4.4,1.7,11.3,1.3,15.4-1c13.6-7.4,20.3-11.2,33.6-18.8
						C1426.3,1680.1,1425.8,1676.9,1421.4,1675.3z"/><linearGradient id="ah" x1="1643.726" x2="759.321" y1="1621.523" y2="2016.293" gradientUnits="userSpaceOnUse"><stop offset="0" stop-color="#505faa"/><stop offset="1" stop-color="#9aa3ce"/></linearGradient><path fill="url(#ah)" d="M1492,1701c-14.8-5.4-22.2-8.1-37-13.5c-4.4-1.6-11.2-1.1-15.2,1.2c-13.2,7.7-20,11.4-33.6,19
						c-4.1,2.2-3.8,5.4,0.6,7.1c14.8,5.6,22.1,8.4,36.9,14c4.4,1.7,11.3,1.2,15.4-1.2c13.7-7.7,20.5-11.6,33.7-19.5
						C1496.8,1705.8,1496.4,1702.6,1492,1701z"/><linearGradient id="ai" x1="1635.1" x2="747.43" y1="1682.844" y2="2079.07" gradientUnits="userSpaceOnUse"><stop offset="0" stop-color="#505faa"/><stop offset="1" stop-color="#9aa3ce"/></linearGradient><path fill="url(#ai)" d="M1477,1741.5c14.7,5.6,22,8.4,36.6,14c4.4,1.7,11.3,1.1,15.5-1.3c13.9-8.1,20.7-12.1,33.9-20.3
						c3.9-2.4,3.5-5.7-0.8-7.3c-14.7-5.4-22-8-36.7-13.4c-4.4-1.6-11.1-1-15.1,1.4c-13.2,7.9-20,11.9-33.8,19.7
						C1472.4,1736.6,1472.6,1739.9,1477,1741.5z"/><linearGradient id="aj" x1="1625.334" x2="734.419" y1="1744.295" y2="2141.969" gradientUnits="userSpaceOnUse"><stop offset="0" stop-color="#505faa"/><stop offset="1" stop-color="#9aa3ce"/></linearGradient><path fill="url(#aj)" d="M1631.7,1752c-14.5-5.3-21.8-8-36.4-13.3c-4.4-1.6-11.1-0.9-15,1.6c-13.2,8.2-20,12.3-34,20.4
						c-4.2,2.4-4.1,5.7,0.3,7.4c14.5,5.6,21.8,8.3,36.3,13.9c4.3,1.7,11.3,1,15.5-1.5c14.1-8.4,20.9-12.6,34.1-21
						C1636.4,1757,1636,1753.6,1631.7,1752z"/><linearGradient id="ak" x1="1496.317" x2="819.063" y1="1305.866" y2="1608.17" gradientUnits="userSpaceOnUse"><stop offset="0" stop-color="#505faa"/><stop offset="1" stop-color="#9aa3ce"/></linearGradient><path fill="url(#ak)" d="M1002.9,1571.5c-10.8-4.2-16.2-6.4-26.9-10.6c-4.3-1.7-6.4-2.5-10.7-4.2c-28.7-11.3-43-17-71.6-28.4
						c-4.5-1.8-11.1-1.9-14.6-0.2c-12,5.7-17.8,8.5-29.4,14c-3.5,1.7-2.7,4.5,1.7,6.3c28.1,11.6,42.2,17.4,70.3,29
						c4.2,1.7,6.3,2.6,10.5,4.3c10.6,4.4,15.9,6.5,26.5,10.9c4.4,1.8,11,1.9,14.6,0.1c12.3-5.9,18.4-8.8,31-14.8
						C1008,1576.1,1007.4,1573.2,1002.9,1571.5z"/><linearGradient id="al" x1="1621.063" x2="788.769" y1="1340.654" y2="1712.162" gradientUnits="userSpaceOnUse"><stop offset="0" stop-color="#505faa"/><stop offset="1" stop-color="#9aa3ce"/></linearGradient><path fill="url(#al)" d="M1074.5,1599.5c-15-5.9-22.5-8.8-37.6-14.7c-4.5-1.8-11.2-1.7-15,0.1c-12.6,6-18.8,9-31.2,14.9
						c-3.7,1.8-3.1,4.7,1.3,6.5c14.8,6.1,22.2,9.1,37,15.1c4.4,1.8,11.1,1.8,14.8,0c12.6-6.1,19-9.1,31.8-15.3
						C1079.5,1604.2,1079,1601.3,1074.5,1599.5z"/><linearGradient id="am" x1="1625.391" x2="780.327" y1="1398.763" y2="1775.972" gradientUnits="userSpaceOnUse"><stop offset="0" stop-color="#505faa"/><stop offset="1" stop-color="#9aa3ce"/></linearGradient><path fill="url(#am)" d="M1062.5,1635.1c14.8,6,22.2,9,36.9,15.1c4.4,1.8,11.1,1.7,15-0.2c13-6.3,19.5-9.5,32.5-16
						c3.9-1.9,3.5-4.9-1-6.7c-15-5.8-22.5-8.7-37.5-14.6c-4.5-1.7-11.3-1.6-15.1,0.2c-12.9,6.3-19.3,9.4-32,15.5
						C1057.6,1630.4,1058.1,1633.3,1062.5,1635.1z"/><linearGradient id="an" x1="1626.943" x2="769.746" y1="1457.877" y2="1840.501" gradientUnits="userSpaceOnUse"><stop offset="0" stop-color="#505faa"/><stop offset="1" stop-color="#9aa3ce"/></linearGradient><path fill="url(#an)" d="M1132.9,1663.8c14.7,6,22.1,9,36.8,15c4.4,1.8,11.2,1.6,15.2-0.3c13.3-6.6,20-9.9,33.3-16.7
						c4-2,3.6-5-0.9-6.8c-14.9-5.8-22.4-8.7-37.4-14.5c-4.5-1.7-11.3-1.6-15.2,0.4c-13.1,6.5-19.7,9.7-32.7,16.1
						C1128.1,1659,1128.5,1662,1132.9,1663.8z"/><linearGradient id="ao" x1="1625.845" x2="757.042" y1="1517.903" y2="1905.708" gradientUnits="userSpaceOnUse"><stop offset="0" stop-color="#505faa"/><stop offset="1" stop-color="#9aa3ce"/></linearGradient><path fill="url(#ao)" d="M1203,1692.3c14.7,6,22,9,36.7,14.9c4.4,1.8,11.2,1.6,15.3-0.5c13.6-6.9,20.4-10.4,34-17.4
						c4.1-2.1,3.7-5.2-0.7-6.9c-14.9-5.7-22.3-8.6-37.2-14.4c-4.5-1.7-11.3-1.5-15.3,0.6c-13.4,6.8-20.1,10.2-33.5,16.8
						C1198.3,1687.5,1198.6,1690.6,1203,1692.3z"/><linearGradient id="ap" x1="1622.183" x2="742.192" y1="1578.769" y2="1971.569" gradientUnits="userSpaceOnUse"><stop offset="0" stop-color="#505faa"/><stop offset="1" stop-color="#9aa3ce"/></linearGradient><path fill="url(#ap)" d="M1359,1709.7c-14.8-5.7-22.2-8.6-37-14.3c-4.4-1.7-11.3-1.4-15.4,0.7c-13.6,7.1-20.5,10.6-34.2,17.6
						c-4.1,2.1-3.9,5.2,0.5,7c14.6,6,21.9,8.9,36.5,14.9c4.4,1.8,11.3,1.5,15.4-0.7c13.9-7.2,20.9-10.8,34.7-18.2
						C1363.6,1714.6,1363.4,1711.4,1359,1709.7z"/><linearGradient id="aq" x1="1616.005" x2="725.126" y1="1640.419" y2="2038.077" gradientUnits="userSpaceOnUse"><stop offset="0" stop-color="#505faa"/><stop offset="1" stop-color="#9aa3ce"/></linearGradient><path fill="url(#aq)" d="M1429.2,1736.9c-14.7-5.7-22-8.5-36.8-14.2c-4.4-1.7-11.3-1.3-15.5,0.9c-13.9,7.4-20.9,11.1-34.9,18.4
						c-4.2,2.2-4.1,5.4,0.3,7.1c14.5,5.9,21.8,8.9,36.2,14.8c4.3,1.8,11.3,1.4,15.6-0.9c14.3-7.5,21.4-11.3,35.5-19
						C1433.7,1741.8,1433.6,1738.6,1429.2,1736.9z"/><linearGradient id="ar" x1="1578.622" x2="861.822" y1="1744.717" y2="2064.672" gradientUnits="userSpaceOnUse"><stop offset="0" stop-color="#505faa"/><stop offset="1" stop-color="#9aa3ce"/></linearGradient><path fill="url(#ar)" d="M1567.9,1790.7c-27.5-10.7-41.3-16.1-69.1-26.9c-9.4-3.7-14.1-5.5-23.6-9.1c-5.2-2-7.7-3-12.9-5
						c-4.4-1.7-11.3-1.2-15.5,1.1c-14.1,7.7-21.3,11.6-35.6,19.2c-4.3,2.3-4.3,5.5,0,7.3c5.1,2.1,7.6,3.1,12.7,5.2
						c9.3,3.8,13.9,5.7,23.2,9.5c27.3,11.2,40.9,16.8,67.9,28c4.2,1.8,11.3,1.2,15.8-1.2c15-8.2,22.4-12.3,37-20.6
						C1572.2,1795.7,1572.2,1792.4,1567.9,1790.7z"/><linearGradient id="as" x1="1559.263" x2="777.601" y1="1249.306" y2="1598.214" gradientUnits="userSpaceOnUse"><stop offset="0" stop-color="#505faa"/><stop offset="1" stop-color="#9aa3ce"/></linearGradient><path fill="url(#as)" d="M797.9,1574c14.3,6.2,21.5,9.3,35.8,15.6c4.3,1.9,10.7,2,14.2,0.3c11.9-5.6,17.7-8.4,29.5-14.1
						c3.5-1.7,2.8-4.5-1.6-6.4c-14.7-6.1-22-9.2-36.6-15.3c-4.4-1.8-10.7-2-14.1-0.3c-11.5,5.5-17.2,8.3-28.7,13.8
						C793,1569.3,793.6,1572.2,797.9,1574z"/><linearGradient id="at" x1="1571.833" x2="774.152" y1="1304.045" y2="1660.103" gradientUnits="userSpaceOnUse"><stop offset="0" stop-color="#505faa"/><stop offset="1" stop-color="#9aa3ce"/></linearGradient><path fill="url(#at)" d="M945.9,1598.7c-14.7-6.1-22-9.2-36.7-15.3c-4.4-1.8-10.8-1.9-14.4-0.2c-11.9,5.7-17.8,8.5-29.7,14.1
						c-3.6,1.7-3,4.6,1.3,6.5c14.4,6.2,21.6,9.4,36,15.6c4.3,1.9,10.8,2,14.4,0.2c12.2-5.8,18.3-8.7,30.5-14.5
						C950.9,1603.4,950.3,1600.5,945.9,1598.7z"/><linearGradient id="au" x1="1580.985" x2="768.233" y1="1360.374" y2="1723.159" gradientUnits="userSpaceOnUse"><stop offset="0" stop-color="#505faa"/><stop offset="1" stop-color="#9aa3ce"/></linearGradient><path fill="url(#au)" d="M1015.9,1627.7c-14.7-6.1-22-9.1-36.7-15.2c-4.4-1.8-10.9-1.9-14.6-0.1c-12.3,5.8-18.4,8.8-30.7,14.6
						c-3.7,1.7-3.2,4.7,1.1,6.5c14.4,6.3,21.6,9.4,36.1,15.6c4.3,1.9,10.9,1.9,14.6,0.1c12.6-6,18.9-9,31.4-15
						C1020.9,1632.5,1020.3,1629.5,1015.9,1627.7z"/><linearGradient id="av" x1="1586.924" x2="759.939" y1="1418.128" y2="1787.267" gradientUnits="userSpaceOnUse"><stop offset="0" stop-color="#505faa"/><stop offset="1" stop-color="#9aa3ce"/></linearGradient><path fill="url(#av)" d="M1003.7,1663.3c14.4,6.3,21.6,9.4,36.1,15.6c4.3,1.9,10.9,1.9,14.8,0c12.9-6.2,19.4-9.3,32.3-15.6
						c3.9-1.9,3.4-4.9-0.9-6.7c-14.7-6.1-22-9.1-36.7-15.2c-4.4-1.8-11-1.8-14.8,0c-12.7,6.1-19,9.1-31.7,15.1
						C999,1658.5,999.4,1661.4,1003.7,1663.3z"/><linearGradient id="aw" x1="1589.82" x2="749.327" y1="1477.164" y2="1852.332" gradientUnits="userSpaceOnUse"><stop offset="0" stop-color="#505faa"/><stop offset="1" stop-color="#9aa3ce"/></linearGradient><path fill="url(#aw)" d="M1072.5,1693.1c14.4,6.3,21.6,9.4,36,15.6c4.3,1.9,11,1.8,15-0.1c13.3-6.5,19.9-9.7,33.2-16.2
						c4-2,3.6-5-0.7-6.8c-14.6-6.1-22-9.1-36.6-15.1c-4.4-1.8-11.1-1.7-15,0.1c-13,6.3-19.5,9.5-32.5,15.7
						C1067.8,1688.2,1068.2,1691.3,1072.5,1693.1z"/><linearGradient id="ax" x1="1589.797" x2="736.412" y1="1537.349" y2="1918.271" gradientUnits="userSpaceOnUse"><stop offset="0" stop-color="#505faa"/><stop offset="1" stop-color="#9aa3ce"/></linearGradient><path fill="url(#ax)" d="M1141,1722.9c14.4,6.3,21.5,9.4,35.9,15.6c4.3,1.9,11,1.8,15.1-0.3c13.6-6.7,20.4-10.1,34-16.9
						c4.1-2,3.8-5.2-0.5-7c-14.6-6-21.9-9-36.5-15.1c-4.4-1.8-11.2-1.7-15.2,0.3c-13.4,6.6-20,9.9-33.4,16.4
						C1136.5,1718,1136.7,1721.1,1141,1722.9z"/><linearGradient id="ay" x1="1586.947" x2="721.169" y1="1598.573" y2="1985.028" gradientUnits="userSpaceOnUse"><stop offset="0" stop-color="#505faa"/><stop offset="1" stop-color="#9aa3ce"/></linearGradient><path fill="url(#ay)" d="M1294.8,1743.1c-14.5-6-21.7-9-36.3-15c-4.3-1.8-11.2-1.6-15.3,0.5c-13.7,6.9-20.6,10.3-34.2,17.1
						c-4.1,2-3.9,5.2,0.4,7.1c14.3,6.2,21.4,9.4,35.7,15.6c4.3,1.9,11.1,1.7,15.2-0.4c13.9-7,20.9-10.6,34.9-17.7
						C1299.2,1748.1,1299.1,1744.9,1294.8,1743.1z"/><linearGradient id="az" x1="1581.316" x2="703.531" y1="1660.744" y2="2052.558" gradientUnits="userSpaceOnUse"><stop offset="0" stop-color="#505faa"/><stop offset="1" stop-color="#9aa3ce"/></linearGradient><path fill="url(#az)" d="M1363.6,1771.7c-14.4-6-21.6-9-36-15c-4.3-1.8-11.2-1.5-15.4,0.7c-14.1,7.2-21.1,10.8-35.1,17.9
						c-4.2,2.1-4.1,5.3,0.1,7.2c14.2,6.2,21.3,9.3,35.4,15.5c4.2,1.9,11.1,1.6,15.3-0.6c14.2-7.3,21.4-11,35.7-18.4
						C1367.9,1776.7,1367.9,1773.5,1363.6,1771.7z"/><linearGradient id="aA" x1="1572.909" x2="683.39" y1="1723.784" y2="2120.836" gradientUnits="userSpaceOnUse"><stop offset="0" stop-color="#505faa"/><stop offset="1" stop-color="#9aa3ce"/></linearGradient><path fill="url(#aA)" d="M1344.5,1812.1c14.1,6.2,21.1,9.3,35,15.5c4.2,1.9,11.1,1.5,15.4-0.8c14.6-7.6,21.9-11.5,36.6-19.2
						c4.4-2.3,4.5-5.6,0.2-7.4c-14.2-6-21.4-8.9-35.7-14.9c-4.3-1.8-11.3-1.4-15.6,0.8c-14.4,7.5-21.6,11.2-35.9,18.6
						C1340.4,1806.9,1340.3,1810.2,1344.5,1812.1z"/><linearGradient id="aB" x1="1561.696" x2="660.589" y1="1787.639" y2="2189.863" gradientUnits="userSpaceOnUse"><stop offset="0" stop-color="#505faa"/><stop offset="1" stop-color="#9aa3ce"/></linearGradient><path fill="url(#aB)" d="M1499.4,1828.5c-14.1-5.9-21.2-8.9-35.3-14.8c-4.2-1.8-11.3-1.3-15.7,1c-14.8,7.8-22.2,11.7-36.8,19.4
						c-4.4,2.3-4.5,5.7-0.4,7.5c13.9,6.2,20.8,9.3,34.6,15.4c4.1,1.8,11.1,1.4,15.5-0.9c14.9-7.9,22.5-11.9,37.5-20
						C1503.3,1833.6,1503.6,1830.2,1499.4,1828.5z"/><linearGradient id="aC" x1="1413.098" x2="762.663" y1="1346.329" y2="1636.661" gradientUnits="userSpaceOnUse"><stop offset="0" stop-color="#505faa"/><stop offset="1" stop-color="#9aa3ce"/></linearGradient><path fill="url(#aC)" d="M889.5,1625.4c-8-3.5-11.9-5.2-19.9-8.7c-6.4-2.8-9.5-4.2-15.9-7c-27.3-12-40.9-17.9-68-29.8
						c-4.3-1.9-10.5-2-14.1-0.3c-11.8,5.6-17.8,8.5-30.2,14.3c-3.7,1.7-3.4,4.7,0.8,6.6c26.7,12,40.1,18,67,30.1
						c6.3,2.8,9.4,4.2,15.7,7.1c7.8,3.5,11.8,5.3,19.6,8.8c4.2,1.9,10.8,2,14.6,0.2c12.7-6,19-8.9,31.4-14.7
						C894.3,1630.2,893.8,1627.3,889.5,1625.4z"/><linearGradient id="aD" x1="1553.141" x2="741.938" y1="1374.407" y2="1736.501" gradientUnits="userSpaceOnUse"><stop offset="0" stop-color="#505faa"/><stop offset="1" stop-color="#9aa3ce"/></linearGradient><path fill="url(#aD)" d="M957.9,1655.4c-14.4-6.3-21.5-9.4-35.9-15.7c-4.3-1.9-10.8-2-14.5-0.2c-12.5,5.9-18.8,8.8-31.5,14.8
						c-3.8,1.8-3.5,4.8,0.7,6.7c14.2,6.4,21.3,9.6,35.4,16c4.2,1.9,10.8,2,14.7,0.2c12.9-6.1,19.3-9.1,32-15.1
						C962.6,1660.2,962.2,1657.3,957.9,1655.4z"/><linearGradient id="aE" x1="1555.003" x2="734.447" y1="1434.291" y2="1800.56" gradientUnits="userSpaceOnUse"><stop offset="0" stop-color="#505faa"/><stop offset="1" stop-color="#9aa3ce"/></linearGradient><path fill="url(#aE)" d="M944.3,1691.6c14.2,6.4,21.3,9.7,35.5,16.1c4.2,1.9,10.9,2,14.8,0.1c13.1-6.3,19.5-9.4,32.5-15.6
						c3.9-1.9,3.5-4.9-0.8-6.8c-14.4-6.3-21.5-9.5-35.9-15.8c-4.3-1.9-10.9-1.9-14.7-0.1c-12.8,6.1-19.2,9.1-32.1,15.2
						C939.7,1686.6,940,1689.7,944.3,1691.6z"/><linearGradient id="aF" x1="1554.663" x2="725.598" y1="1495.234" y2="1865.302" gradientUnits="userSpaceOnUse"><stop offset="0" stop-color="#505faa"/><stop offset="1" stop-color="#9aa3ce"/></linearGradient><path fill="url(#aF)" d="M1011.9,1722.3c14.2,6.5,21.3,9.7,35.5,16.2c4.2,1.9,10.9,1.9,14.8,0c13.2-6.5,19.8-9.7,33-16.1
						c4-1.9,3.7-5-0.6-6.9c-14.3-6.3-21.5-9.5-35.8-15.8c-4.3-1.9-10.9-1.9-14.8,0c-13,6.3-19.6,9.4-32.6,15.7
						C1007.4,1717.3,1007.7,1720.4,1011.9,1722.3z"/><linearGradient id="aG" x1="1552.26" x2="715.414" y1="1557.066" y2="1930.607" gradientUnits="userSpaceOnUse"><stop offset="0" stop-color="#505faa"/><stop offset="1" stop-color="#9aa3ce"/></linearGradient><path fill="url(#aG)" d="M1079.5,1753.2c14.2,6.5,21.2,9.7,35.3,16.2c4.2,1.9,10.9,1.9,14.8-0.1c13.3-6.7,20-10,33.5-16.7
						c4-2,3.9-5.2-0.4-7c-14.3-6.3-21.4-9.5-35.7-15.8c-4.3-1.9-11-1.8-14.9,0.1c-13.3,6.5-19.9,9.8-33.1,16.3
						C1075,1748.1,1075.3,1751.3,1079.5,1753.2z"/><linearGradient id="aH" x1="1547.889" x2="703.88" y1="1619.634" y2="1996.372" gradientUnits="userSpaceOnUse"><stop offset="0" stop-color="#505faa"/><stop offset="1" stop-color="#9aa3ce"/></linearGradient><path fill="url(#aH)" d="M1230.6,1775.6c-14.2-6.3-21.3-9.4-35.5-15.7c-4.3-1.9-11-1.8-15,0.3c-13.5,6.8-20.3,10.1-33.6,16.9
						c-4,2-3.8,5.2,0.4,7.1c14.1,6.5,21.1,9.7,35.1,16.2c4.2,1.9,10.8,1.8,14.9-0.2c13.4-6.9,20.3-10.4,34-17.3
						C1234.9,1780.7,1234.8,1777.5,1230.6,1775.6z"/><linearGradient id="aI" x1="1541.607" x2="690.936" y1="1682.804" y2="2062.515" gradientUnits="userSpaceOnUse"><stop offset="0" stop-color="#505faa"/><stop offset="1" stop-color="#9aa3ce"/></linearGradient><path fill="url(#aI)" d="M1297.9,1805.6c-14.1-6.3-21.1-9.4-35.2-15.7c-4.2-1.9-11-1.7-15.1,0.4c-13.8,7-20.6,10.5-34.1,17.5
						c-4,2.1-3.9,5.3,0.3,7.3c14,6.5,20.9,9.7,34.8,16.2c4.2,1.9,10.8,1.8,14.8-0.4c13.6-7.1,20.5-10.7,34.5-17.9
						C1302.1,1810.7,1302.1,1807.4,1297.9,1805.6z"/><linearGradient id="aJ" x1="1491.114" x2="817.32" y1="1795.117" y2="2095.876" gradientUnits="userSpaceOnUse"><stop offset="0" stop-color="#505faa"/><stop offset="1" stop-color="#9aa3ce"/></linearGradient><path fill="url(#aJ)" d="M1430.4,1865.1c-26.2-11.9-39.4-17.8-65.9-29.7c-9-4-13.5-6.1-22.5-10.1c-4.9-2.2-7.4-3.3-12.3-5.5
						c-4.2-1.9-11-1.6-15.2,0.6c-14.1,7.3-21,10.9-34.6,18.1c-4.1,2.1-4,5.5,0.2,7.4c4.9,2.3,7.3,3.4,12.2,5.7
						c8.9,4.2,13.4,6.3,22.3,10.4c26.2,12.3,39.2,18.4,65.1,30.6c4.1,1.9,10.7,1.6,14.8-0.6c13.9-7.6,21.1-11.4,35.6-19.2
						C1434.3,1870.4,1434.5,1867,1430.4,1865.1z"/><linearGradient id="aK" x1="1557.962" x2="723.656" y1="1252.625" y2="1625.032" gradientUnits="userSpaceOnUse"><stop offset="0" stop-color="#505faa"/><stop offset="1" stop-color="#9aa3ce"/></linearGradient><path fill="url(#aK)" d="M764,1622.4c-14-6.3-21-9.5-35-15.8c-4.2-1.9-10.7-2-14.6-0.2c-13.1,6-19.8,9.1-33.9,15.5
						c-4.2,1.9-4.3,5-0.1,6.9c14,6.3,21,9.4,35.1,15.8c4.2,1.9,11.1,1.9,15.3,0c14-6.4,20.7-9.5,33.8-15.5
						C768.4,1627.3,768.2,1624.3,764,1622.4z"/><linearGradient id="aL" x1="1550.54" x2="716.012" y1="1316.218" y2="1688.724" gradientUnits="userSpaceOnUse"><stop offset="0" stop-color="#505faa"/><stop offset="1" stop-color="#9aa3ce"/></linearGradient><path fill="url(#aL)" d="M831.1,1652.8c-14.1-6.4-21.2-9.6-35.3-16c-4.2-1.9-10.8-2-14.7-0.2c-13.1,6.1-19.9,9.2-33.8,15.5
						c-4.2,1.9-4.2,5,0,6.9c14.1,6.4,21.2,9.6,35.4,16c4.2,1.9,11.1,1.9,15.2,0c13.8-6.4,20.5-9.5,33.7-15.6
						C835.6,1657.7,835.3,1654.7,831.1,1652.8z"/><linearGradient id="aM" x1="1542.526" x2="708.934" y1="1380.602" y2="1752.69" gradientUnits="userSpaceOnUse"><stop offset="0" stop-color="#505faa"/><stop offset="1" stop-color="#9aa3ce"/></linearGradient><path fill="url(#aM)" d="M898.5,1683.4c-14.2-6.5-21.2-9.7-35.4-16.1c-4.2-1.9-10.8-2-14.8-0.2c-13.2,6.1-19.9,9.3-33.6,15.6
						c-4.1,1.9-4,5,0.2,7c14.2,6.5,21.3,9.7,35.6,16.2c4.3,1.9,11,2,15.1,0c13.6-6.4,20.2-9.5,33.4-15.8
						C903,1688.4,902.7,1685.4,898.5,1683.4z"/><linearGradient id="aN" x1="1373.918" x2="792.484" y1="1609.614" y2="1869.147" gradientUnits="userSpaceOnUse"><stop offset="0" stop-color="#505faa"/><stop offset="1" stop-color="#9aa3ce"/></linearGradient><path fill="url(#aN)" d="M1168,1807.5c-3.6-1.7-5.4-2.5-9-4.2c-10.4-4.8-15.6-7.3-26.1-12.1c-12.8-5.9-19.1-8.9-31.9-14.8
						c-14.1-6.5-21.2-9.8-35.3-16.3c-12.8-5.9-19.2-8.9-32.1-14.8c-14.2-6.5-21.2-9.8-35.4-16.3c-27-12.4-40.6-18.6-67.6-30.9
						c-4.2-1.9-10.9-2-14.8-0.1c-13.2,6.2-19.8,9.4-33.4,15.8c-4,1.9-3.9,5.1,0.4,7c27.2,12.5,40.8,18.7,68,31.3
						c14.3,6.6,21.4,9.9,35.7,16.5c12.9,6,19.4,9,32.3,15c14.2,6.6,21.4,9.9,35.6,16.6c12.9,6,19.3,9,32.2,15.1
						c10.5,4.9,15.8,7.4,26.3,12.3c3.6,1.7,5.5,2.6,9.1,4.3c4.2,2,10.7,2,14.4-0.1c12.6-6.8,19.1-10.2,32.2-17.1
						C1172.4,1812.7,1172.2,1809.4,1168,1807.5z"/><linearGradient id="aO" x1="1499.756" x2="684.489" y1="1706.494" y2="2070.402" gradientUnits="userSpaceOnUse"><stop offset="0" stop-color="#505faa"/><stop offset="1" stop-color="#9aa3ce"/></linearGradient><path fill="url(#aO)" d="M1234.6,1838.6c-13.9-6.5-20.9-9.8-34.8-16.3c-4.2-2-10.8-1.9-14.7,0.2c-13.1,6.9-19.5,10.3-32.1,17.2
						c-3.8,2-3.3,5.3,0.9,7.3c14.1,6.6,21.1,10,35.1,16.6c4.2,2,10.5,1.9,14.2-0.2c12.4-6.9,18.8-10.4,31.9-17.5
						C1238.9,1843.8,1238.7,1840.5,1234.6,1838.6z"/><linearGradient id="aP" x1="1491.362" x2="681.738" y1="1771.124" y2="2132.513" gradientUnits="userSpaceOnUse"><stop offset="0" stop-color="#505faa"/><stop offset="1" stop-color="#9aa3ce"/></linearGradient><path fill="url(#aP)" d="M1300.4,1869.6c-13.7-6.5-20.6-9.7-34.4-16.2c-4.1-1.9-10.7-1.8-14.6,0.3c-13.1,7.1-19.5,10.6-31.8,17.6
						c-3.7,2.1-3.2,5.4,0.9,7.4c13.9,6.6,20.8,9.9,34.7,16.6c4.1,2,10.4,1.9,14-0.2c12.1-7.1,18.5-10.7,31.6-17.9
						C1304.6,1874.8,1304.5,1871.5,1300.4,1869.6z"/><linearGradient id="aQ" x1="1483.076" x2="679.501" y1="1835.203" y2="2193.893" gradientUnits="userSpaceOnUse"><stop offset="0" stop-color="#505faa"/><stop offset="1" stop-color="#9aa3ce"/></linearGradient><path fill="url(#aQ)" d="M1365.4,1900.4c-13.5-6.5-20.3-9.7-34-16.2c-4.1-1.9-10.6-1.7-14.5,0.4c-13.1,7.3-19.4,10.9-31.5,18
						c-3.6,2.1-3.1,5.4,1,7.4c13.7,6.6,20.6,9.9,34.2,16.5c4.1,2,10.2,1.8,13.7-0.3c11.9-7.2,18.2-10.9,31.3-18.3
						C1369.5,1905.7,1369.5,1902.3,1365.4,1900.4z"/><g><linearGradient id="aR" x1="1018.462" x2="1244.63" y1="1229.632" y2="560.608" gradientUnits="userSpaceOnUse"><stop offset="0" stop-color="#f58b21"/><stop offset="1" stop-color="#f5b419"/></linearGradient><path fill="url(#aR)" d="M1485.2,752.3l-53.1,197.9c-28.4,105.8-103.9,192-203.2,233.3c-0.1,0.1-0.2,0.1-0.4,0.2
				c-6.6,2.8-13.4,5.3-20.2,7.7l-161,48.1L931.9,1117c-75.9-87.3-103.4-207.8-73.1-320.8l53.1-197.9c1,0.2,4.6,0.9,10.4,1.8
				c34.6,5.3,148.6,17.2,269.2-31.8c0.7-0.2,1.3-0.5,2-0.8l37.1-11.6l26.5,28.9C1350.6,705.9,1478.5,750,1485.2,752.3z" opacity=".61"/><linearGradient id="aS" x1="1312.873" x2="1367.778" y1="615.648" y2="998.015" gradientUnits="userSpaceOnUse"><stop offset="0" stop-color="#f58b21"/><stop offset="1" stop-color="#a75918"/></linearGradient><path fill="url(#aS)" d="M1497.3,747.6l-53.1,197.9c-29.6,110.1-110.1,198.8-215.4,238.1c99.3-41.3,174.8-127.5,203.2-233.3
				l53.1-197.9c-6.8-2.3-134.7-46.4-228.1-167.6l-26.5-28.9l-37.1,11.6c3.9-1.5,7.8-3,11.8-4.6l37.4-11.7l26.6,28.9
				C1362.7,701.2,1490.6,745.3,1497.3,747.6z"/><linearGradient id="aT" x1="1222.396" x2="1082.42" y1="734.076" y2="1135.796" gradientUnits="userSpaceOnUse"><stop offset="0" stop-color="#f58b21"/><stop offset="1" stop-color="#a75918"/></linearGradient><path fill="url(#aT)" d="M1298.5,979.8c1.5-4.8,2.9-9.6,4.2-14.4l53.1-197.9l-35.5-9l-53.1,197.9c-1.3,4.9-2.7,9.7-4.2,14.4
				c-0.4,1.1-0.7,2.2-1.1,3.4c-1.5,4.7-3.1,9.4-4.8,14c-1.2,3.2-2.4,6.3-3.7,9.4c-0.2,0.4-0.4,0.9-0.6,1.3c-1.1,2.7-2.3,5.4-3.4,8.1
				c-0.5,1.1-1,2.1-1.5,3.2c-0.9,2-1.8,4.1-2.8,6.1c-0.6,1.2-1.2,2.4-1.8,3.6c-0.9,1.8-1.8,3.6-2.7,5.4c-0.8,1.5-1.6,3.1-2.4,4.6
				c-0.8,1.6-1.7,3.2-2.6,4.8c-0.8,1.5-1.7,3-2.5,4.5c-0.9,1.6-1.8,3.2-2.7,4.7c-0.9,1.5-1.8,3-2.7,4.4c-0.9,1.5-1.9,3.1-2.8,4.6
				c-0.9,1.5-1.8,2.9-2.8,4.3c-0.9,1.4-1.8,2.8-2.8,4.2c-1.5,2.2-3,4.5-4.6,6.7c-0.7,1.1-1.5,2.1-2.2,3.2c-2.2,3.1-4.5,6.1-6.8,9.1
				c-0.1,0.1-0.2,0.3-0.3,0.4c-2.4,3.1-4.9,6.2-7.4,9.2c-0.8,1-1.6,1.9-2.4,2.8c-1.8,2.1-3.5,4.2-5.3,6.2c-1.1,1.2-2.1,2.4-3.2,3.6
				c-1.3,1.4-2.6,2.8-3.9,4.2c-1.2,1.2-2.3,2.5-3.5,3.7c-1.3,1.4-2.7,2.7-4,4.1c-1.2,1.2-2.4,2.4-3.7,3.6c-1.4,1.3-2.7,2.6-4.1,3.9
				c-1.2,1.2-2.5,2.3-3.8,3.5c-1.4,1.3-2.8,2.5-4.2,3.8c-1.3,1.1-2.6,2.2-3.9,3.4c-1.4,1.2-2.9,2.5-4.4,3.7c-1.3,1.1-2.6,2.2-4,3.2
				c-1.5,1.2-3,2.4-4.5,3.5c-1.3,1-2.7,2.1-4,3.1c-1.5,1.2-3.1,2.3-4.6,3.4c-1.4,1-2.7,2-4.1,3c-1.6,1.1-3.2,2.2-4.8,3.3
				c-1.4,0.9-2.8,1.9-4.2,2.8c-1.6,1.1-3.3,2.1-4.9,3.1c-1.4,0.9-2.8,1.8-4.3,2.7c-1.7,1-3.3,2-5,3c-1.4,0.9-2.9,1.7-4.3,2.5
				c-1.7,1-3.5,1.9-5.2,2.9c-1.4,0.8-2.9,1.6-4.3,2.4c-1.8,1-3.6,1.9-5.4,2.8c-1.4,0.7-2.9,1.5-4.3,2.2c-1.9,0.9-3.8,1.8-5.7,2.7
				c-1.4,0.7-2.8,1.3-4.2,2c-2,0.9-4,1.8-6,2.6c-1.3,0.6-2.7,1.2-4,1.7c-2.2,0.9-4.5,1.8-6.8,2.7c-1.2,0.4-2.3,0.9-3.4,1.4
				c-3.4,1.3-6.9,2.6-10.4,3.7l-161.1,48.1l35.5,9l161.1-48.1c3.5-1.2,6.9-2.4,10.4-3.7c1.1-0.4,2.3-0.9,3.4-1.3
				c2.3-0.9,4.6-1.8,6.8-2.7c1.3-0.6,2.7-1.2,4-1.7c2-0.9,4.1-1.7,6.1-2.6c1.4-0.6,2.8-1.3,4.2-2c1.9-0.9,3.8-1.8,5.7-2.7
				c1.4-0.7,2.9-1.5,4.3-2.2c1.8-0.9,3.6-1.8,5.4-2.8c1.5-0.8,2.9-1.6,4.3-2.4c1.7-1,3.5-1.9,5.2-2.9c1.4-0.8,2.9-1.7,4.3-2.5
				c1.7-1,3.4-2,5-3c1.4-0.9,2.8-1.8,4.3-2.7c1.6-1,3.3-2.1,4.9-3.1c1.4-0.9,2.8-1.9,4.2-2.8c1.6-1.1,3.2-2.2,4.8-3.3
				c1.4-1,2.7-2,4.1-3c1.6-1.1,3.1-2.3,4.6-3.4c1.4-1,2.7-2.1,4-3.1c1.5-1.2,3-2.3,4.5-3.5c1.3-1.1,2.6-2.1,3.9-3.2
				c1.5-1.2,2.9-2.4,4.4-3.7c1.3-1.1,2.6-2.2,3.8-3.3c1.4-1.3,2.8-2.5,4.3-3.8c1.3-1.2,2.5-2.3,3.8-3.5c1.4-1.3,2.8-2.6,4.1-3.9
				c1.2-1.2,2.4-2.4,3.7-3.6c1.3-1.3,2.7-2.7,4-4.1c1.2-1.2,2.4-2.4,3.5-3.7c1.3-1.4,2.6-2.8,3.9-4.2c0.7-0.7,1.4-1.5,2.1-2.2
				c0.4-0.5,0.8-0.9,1.2-1.4c1.8-2,3.6-4.1,5.3-6.2c0.8-1,1.6-1.9,2.4-2.8c2.5-3,5-6.1,7.4-9.2c0.1-0.1,0.2-0.2,0.3-0.3
				c2.3-3,4.6-6.1,6.8-9.2c0.7-1,1.5-2.1,2.2-3.1c1.6-2.2,3.1-4.4,4.6-6.7c0.4-0.5,0.7-1,1.1-1.6c0.6-0.9,1.1-1.8,1.7-2.7
				c0.9-1.4,1.9-2.9,2.8-4.3c1-1.5,1.9-3.1,2.8-4.6c0.9-1.5,1.8-2.9,2.7-4.4c0.9-1.6,1.8-3.1,2.7-4.7c0.9-1.5,1.7-3,2.5-4.5
				c0.9-1.6,1.7-3.2,2.6-4.8c0.8-1.5,1.6-3.1,2.4-4.6c0.3-0.6,0.6-1.1,0.9-1.7c0.6-1.2,1.2-2.4,1.8-3.7c0.6-1.2,1.2-2.4,1.8-3.7
				c1-2,1.9-4,2.8-6.1c0.5-1.1,1-2.1,1.5-3.2c1.2-2.7,2.3-5.4,3.5-8.2c0.2-0.4,0.4-0.8,0.5-1.3c1.2-3,2.4-6,3.5-9.1
				c0-0.1,0.1-0.2,0.1-0.3c1.7-4.6,3.3-9.3,4.8-14C1297.8,982,1298.1,980.9,1298.5,979.8z"/><linearGradient id="aU" x1="1065.65" x2="1355.815" y1="664.73" y2="664.73" gradientUnits="userSpaceOnUse"><stop offset="0" stop-color="#f58b21"/><stop offset="1" stop-color="#a75918"/></linearGradient><path fill="url(#aU)" d="M1354.8,767.1c-0.1,0-0.3-0.1-0.4-0.2c-0.4-0.1-0.8-0.3-1.3-0.5c-0.3-0.1-0.6-0.2-0.9-0.3
				c-0.5-0.2-1-0.4-1.6-0.6c-0.4-0.1-0.8-0.3-1.3-0.5c-0.6-0.2-1.2-0.5-1.9-0.7c-0.5-0.2-1-0.4-1.5-0.6c-0.7-0.3-1.5-0.6-2.2-0.9
				c-0.6-0.2-1.2-0.5-1.9-0.7c-0.8-0.3-1.7-0.7-2.5-1c-0.7-0.3-1.4-0.6-2.1-0.9c-0.9-0.4-1.9-0.8-2.8-1.2c-0.8-0.3-1.6-0.7-2.4-1
				c-1-0.4-2.1-0.9-3.2-1.4c-0.9-0.4-1.8-0.8-2.7-1.2c-0.9-0.4-1.8-0.8-2.7-1.2c-1-0.5-2.1-1-3.2-1.5c-0.9-0.4-1.9-0.9-2.8-1.3
				c-1.1-0.5-2.3-1.1-3.4-1.7c-1-0.5-2-1-3-1.5c-1.2-0.6-2.4-1.2-3.6-1.8c-1.1-0.5-2.1-1.1-3.2-1.6c-1.3-0.6-2.5-1.3-3.8-2
				c-1.1-0.6-2.2-1.2-3.4-1.8c-1.3-0.7-2.7-1.4-4-2.2c-1.1-0.6-2.3-1.2-3.5-1.9c-1.4-0.8-2.8-1.6-4.2-2.4c-1.2-0.7-2.3-1.3-3.5-2
				c-1.5-0.8-3-1.7-4.5-2.6c-1.2-0.7-2.4-1.4-3.6-2.1c-2.1-1.2-4.2-2.5-6.3-3.8c-0.5-0.3-1-0.6-1.5-0.9c-2.6-1.6-5.3-3.3-8-5.1
				c-0.8-0.5-1.5-1-2.3-1.5c-2-1.3-4-2.6-6-3.9c-1-0.7-2-1.4-3-2c-1.8-1.2-3.6-2.5-5.5-3.8c-1.1-0.7-2.1-1.5-3.2-2.2
				c-1.9-1.3-3.7-2.6-5.6-4c-1-0.7-2-1.5-3.1-2.2c-2.1-1.6-4.3-3.2-6.4-4.8c-0.7-0.6-1.5-1.1-2.2-1.7c-2.9-2.2-5.8-4.5-8.7-6.8
				c-0.9-0.7-1.8-1.4-2.6-2.2c-2.1-1.7-4.3-3.5-6.4-5.2c-1.2-1-2.3-2-3.5-2.9c-1.9-1.6-3.7-3.2-5.6-4.8c-1.2-1.1-2.5-2.2-3.7-3.3
				c-1.8-1.6-3.6-3.2-5.4-4.8c-1.3-1.2-2.6-2.4-3.8-3.6c-1.7-1.6-3.5-3.3-5.2-5c-1.3-1.3-2.6-2.5-3.9-3.8c-1.7-1.7-3.4-3.4-5.2-5.2
				c-1.3-1.3-2.6-2.6-3.9-3.9c-1.7-1.8-3.4-3.6-5.1-5.4c-1.3-1.3-2.5-2.7-3.8-4.1c-1.8-1.9-3.5-3.9-5.2-5.8c-1.2-1.3-2.4-2.7-3.6-4
				c-1.9-2.2-3.8-4.5-5.8-6.8c-0.9-1.1-1.9-2.2-2.8-3.4c-2.8-3.5-5.6-7-8.4-10.6l-26.6-28.9l-35.5-9l26.6,28.9
				c2.8,3.6,5.6,7.1,8.4,10.6c0.9,1.2,1.9,2.3,2.9,3.4c1.6,1.9,3.1,3.8,4.7,5.6c0.3,0.4,0.7,0.8,1,1.2c1.2,1.4,2.4,2.7,3.6,4.1
				c1.7,2,3.5,3.9,5.2,5.8c1.3,1.4,2.5,2.7,3.8,4.1c1.7,1.8,3.4,3.6,5.1,5.4c1.3,1.3,2.6,2.7,3.9,4c1.7,1.7,3.4,3.5,5.1,5.1
				c1.3,1.3,2.6,2.6,3.9,3.8c1.7,1.7,3.5,3.3,5.2,4.9c1.3,1.2,2.6,2.4,3.9,3.6c1.8,1.6,3.6,3.2,5.3,4.8c1.2,1.1,2.5,2.2,3.7,3.3
				c1.9,1.6,3.7,3.2,5.6,4.8c1.2,1,2.3,2,3.5,3c2.1,1.8,4.3,3.5,6.4,5.2c0.9,0.7,1.8,1.5,2.6,2.2c0.1,0.1,0.2,0.2,0.4,0.3
				c2.8,2.2,5.6,4.4,8.4,6.5c0.7,0.6,1.5,1.1,2.2,1.7c2.2,1.6,4.3,3.3,6.5,4.8c1,0.8,2.1,1.5,3.1,2.2c1.9,1.3,3.7,2.7,5.5,4
				c1.1,0.8,2.2,1.5,3.2,2.3c1.8,1.3,3.6,2.5,5.4,3.7c1,0.7,2,1.4,3,2.1c2,1.3,4,2.6,5.9,3.9c0.8,0.5,1.5,1,2.3,1.5
				c2.7,1.7,5.4,3.4,8,5.1c0.5,0.3,1.1,0.7,1.6,1c1.8,1.1,3.5,2.2,5.3,3.2c0.3,0.2,0.6,0.4,0.9,0.6c1.2,0.7,2.4,1.4,3.7,2.2
				c1.5,0.9,2.9,1.7,4.4,2.6c1.2,0.7,2.4,1.4,3.6,2c1.4,0.8,2.8,1.6,4.2,2.4c1.2,0.6,2.3,1.3,3.5,1.9c1.4,0.7,2.7,1.5,4,2.2
				c1.1,0.6,2.3,1.2,3.4,1.8c1.3,0.7,2.6,1.3,3.8,2c1.1,0.6,2.2,1.1,3.2,1.6c1.2,0.6,2.5,1.2,3.7,1.8c1,0.5,2,1,3,1.5
				c1.2,0.6,2.3,1.1,3.5,1.7c0.9,0.5,1.9,0.9,2.8,1.3c1.1,0.5,2.2,1,3.3,1.5c0.9,0.4,1.8,0.8,2.6,1.2c0.4,0.2,0.8,0.4,1.2,0.5
				c0.6,0.2,1,0.5,1.6,0.7c1.1,0.5,2.1,0.9,3.1,1.4c0.8,0.4,1.6,0.7,2.4,1c1,0.4,1.9,0.8,2.8,1.2c0.8,0.3,1.5,0.6,2.2,0.9
				c0.9,0.4,1.7,0.7,2.5,1c0.6,0.3,1.3,0.5,1.9,0.8c0.8,0.3,1.5,0.6,2.2,0.9c0.5,0.2,1,0.4,1.5,0.6c0.7,0.3,1.3,0.5,1.9,0.7
				c0.4,0.2,0.9,0.3,1.3,0.5c0.6,0.2,1.1,0.4,1.6,0.6c0.3,0.1,0.6,0.2,0.9,0.3c0.5,0.2,0.9,0.3,1.3,0.5c0.1,0.1,0.3,0.1,0.4,0.2
				c0.5,0.2,0.8,0.3,1,0.4l35.5,9C1355.6,767.4,1355.2,767.3,1354.8,767.1z"/><linearGradient id="aV" x1="867.717" x2="1057.766" y1="1193.756" y2="631.576" gradientUnits="userSpaceOnUse"><stop offset="0" stop-color="#f58b21"/><stop offset="1" stop-color="#f5b419"/></linearGradient><path fill="url(#aV)" d="M1065.6,562l26.6,28.9c93.4,121.1,221.3,165.2,228,167.5l-53.1,197.9
					c-30.3,113.1-114.4,203.6-223.8,241.1l-161.1,48.1L767,1123.1c-76-87.4-103.4-207.8-73.1-320.9L747,604.4
					c7,1.4,139.8,27.3,281.2-30.7L1065.6,562z"/><linearGradient id="aW" x1="758.125" x2="932.7" y1="1130.283" y2="613.875" gradientUnits="userSpaceOnUse"><stop offset="0" stop-color="#f58b21"/><stop offset="1" stop-color="#a75918"/></linearGradient><path fill="url(#aW)" d="M1058.2,589.9l12.2,13.2l-20.8,6.6C970.3,642,894,648.8,843.8,648.8c-27.5,0-50.1-2-65.9-3.9l-47.4,176.7
					c-28.2,105.3-3,216.8,67.6,298.2l92.2,97.9l-0.6,0.2l-104.7-111c-70.6-81.4-95.8-192.8-67.6-298.2l47.4-176.7
					c15.8,2,38.4,3.9,65.9,3.9c50.2,0,126.4-6.8,205.6-39.1L1058.2,589.9z"/><linearGradient id="aX" x1="1055.644" x2="946.5" y1="605.924" y2="1069.389" gradientUnits="userSpaceOnUse"><stop offset="0" stop-color="#f58b21"/><stop offset="1" stop-color="#f5b419"/></linearGradient><path fill="url(#aX)" d="M1289.3,779.6L1243.6,950c-28.3,105.3-105.9,189.1-207.7,224.1l-145.6,43.4l-92.2-97.9
					c-70.6-81.4-95.8-192.8-67.6-298.2l47.4-176.7c15.8,2,38.4,3.9,65.9,3.9c50.2,0,126.4-6.8,205.6-39.1l20.8-6.6l3.2,3.5
					c15.5,20,31.9,38.1,48.6,54.2C1182.7,723.7,1249.1,760.9,1289.3,779.6z"/><linearGradient id="aY" x1="1090.932" x2="1101.307" y1="647.732" y2="617.041" gradientUnits="userSpaceOnUse"><stop offset="0" stop-color="#f58b21"/><stop offset="1" stop-color="#f5b419"/></linearGradient><path fill="url(#aY)" d="M1073.6,606.7l-3.2-3.5l0.8-0.2l15.4,16.7c11.5,14.8,23.4,28.5,35.7,41.2
					C1105.5,644.8,1089.1,626.7,1073.6,606.7z"/><path fill="none" stroke="#f1f2f2" stroke-miterlimit="10" stroke-width="6.45" d="M969.9,974.9l-49.1-12.8c-18-4.7-28.8-23.1-24.1-41.1l10.6-40.4c3.1-11.9,15.3-19.1,27.2-15.9l71.1,18.6
						c11.9,3.1,19.1,15.3,15.9,27.2l-10.6,40.4C1006.3,968.8,987.9,979.6,969.9,974.9z"/><path fill="none" stroke="#f1f2f2" stroke-miterlimit="10" stroke-width="6.45" d="M991.9,790.6L991.9,790.6c-20.3-5.3-41.1,6.9-46.4,27.2l-12.1,46.5l73.6,19.2l12.1-46.5
						C1024.4,816.7,1012.2,795.9,991.9,790.6z"/><path fill="none" stroke="#f1f2f2" stroke-miterlimit="10" stroke-width="6.45" d="M975.3,911c1.7-6.6-2.2-13.4-8.9-15.1c-6.6-1.7-13.4,2.2-15.1,8.9c-1.2,4.6,0.4,9.3,3.6,12.3l-4.3,16.4
						c-0.8,3.1,1,6.2,4.1,7s6.2-1,7-4.1l4.3-16.4C970.4,918.9,974,915.6,975.3,911z"/><circle cx="968.6" cy="886.9" r="128.4" fill="none" stroke="#f1f2f2" stroke-miterlimit="10" stroke-width="6.45" transform="rotate(-23.234 968.637 886.88)"/></g><g><path fill="#b1b3d8" d="M2430.2,896.1L2307,1463c-3.4,18.5-21.7,30.1-40.1,25.4l-766.5-193.8c-4.4-1.1-8.4-3-11.8-5.6
				c-10.4-7.6-15.9-21.1-12.8-34.3l118.8-513.5c3.9-16.9,20.3-27.6,37.5-24.4l771,140.5c11.5,2.1,20.6,9.8,24.9,19.8
				C2430.6,882.8,2431.5,889.4,2430.2,896.1z" opacity=".79"/><linearGradient id="aZ" x1="1489.4" x2="2440.87" y1="1182.135" y2="1182.135" gradientTransform="matrix(1.0017 .01875 0 1 -3.253 -36.207)" gradientUnits="userSpaceOnUse"><stop offset="0" stop-color="#505faa"/><stop offset="1" stop-color="#9aa3ce"/></linearGradient><path fill="url(#aZ)" d="M2441.2,909.8l-123.3,566.9c-3.3,18.5-21.6,30.1-40,25.4l-766.5-193.8c-10.5-2.7-18.7-10.1-22.7-19.4
				c3.4,2.6,7.4,4.5,11.8,5.6l766.5,193.8c18.4,4.7,36.7-6.9,40.1-25.4l123.3-566.9c1.2-6.7,0.3-13.3-2.2-19.1
				C2438,884.3,2443.5,896.9,2441.2,909.8z"/><path fill="#fff" d="M2203.7,1291.4L1650,1168.9c-17.7-4.2-29.6-21.9-26.5-39.5v0c3-17.6,19.8-28.5,37.5-24.3l554.9,117.2
					c17.7,4.2,29.3,23.1,25.9,42.2l0,0C2238.4,1283.5,2221.4,1295.6,2203.7,1291.4z"/><path fill="#fff" d="M1851.6,1120.6l-186.5-40.4c-4.6-1-7.7-5.5-6.9-10.1l0,0c0.8-4.6,5.2-7.5,9.8-6.5l186.5,40.4
					c4.6,1,7.7,5.5,6.9,10.1l0,0C1860.6,1118.7,1856.2,1121.6,1851.6,1120.6z"/><path fill="#fff" d="M2177.9,1399l-551.9-130.8c-17.7-4.2-29.6-21.9-26.5-39.5v0c3-17.6,19.8-28.5,37.5-24.3l553,125.6
					c17.7,4.2,29.3,23.1,25.9,42.2v0C2212.7,1391.2,2195.6,1403.2,2177.9,1399z"/><ellipse cx="1646.8" cy="1235.4" fill="#afafaf" rx="9.3" ry="9.9" transform="rotate(-40.442 1646.771 1235.34)"/><ellipse cx="1678.3" cy="1242.9" fill="#afafaf" rx="9.3" ry="9.9" transform="rotate(-40.442 1678.295 1242.813)"/><ellipse cx="1709.9" cy="1250.3" fill="#afafaf" rx="9.3" ry="9.9" transform="rotate(-40.442 1709.82 1250.288)"/><ellipse cx="1741.4" cy="1257.8" fill="#afafaf" rx="9.3" ry="9.9" transform="rotate(-40.442 1741.343 1257.762)"/><ellipse cx="1772.9" cy="1265.3" fill="#afafaf" rx="9.3" ry="9.9" transform="rotate(-40.442 1772.868 1265.237)"/><path fill="#afafaf" d="M1664.8,1129.6l2,10.9c0.2,1.2,0.4,2.6,0.5,3.7l0.1,0c0.5-0.9,1.1-2.2,1.7-3.3l5.1-9.1l3.3,0.8l-6.7,11
						c-3.2,5.3-5.2,7.9-7.6,9.2c-1.7,1-3.3,1.1-4.1,1.1l-0.3-2.8c0.8-0.1,1.9-0.3,3-0.9c1-0.5,2.2-1.4,3.2-2.8
						c0.2-0.3,0.3-0.5,0.4-0.7c0-0.2,0-0.4-0.1-0.9l-3.6-17.1L1664.8,1129.6z"/><path fill="#afafaf" d="M1693.8,1145.1c-1.1,6.3-5.9,8-10,7c-4.6-1.1-7.6-5.3-6.6-10.6c1-5.7,5.2-8.1,9.9-7
						C1691.9,1135.6,1694.6,1139.9,1693.8,1145.1z M1680.3,1142.1c-0.6,3.7,1,7,4,7.7c2.9,0.7,5.6-1.5,6.3-5.4
						c0.5-2.9-0.3-6.8-4-7.7C1683,1135.9,1680.8,1138.9,1680.3,1142.1z"/><path fill="#afafaf" d="M1711.2,1153.3c-0.3,1.7-0.5,3.3-0.6,4.6l-2.7-0.6l0.3-2.8l-0.1,0c-1,1.2-3.1,2.5-6.1,1.8
						c-2.7-0.6-5.6-2.8-4.6-8.8l1.7-9.9l3.1,0.7l-1.6,9.4c-0.5,3.2,0.1,5.6,2.9,6.3c2.1,0.5,3.7-0.6,4.5-1.8
						c0.3-0.4,0.5-0.9,0.5-1.5l1.8-10.4l3.1,0.7L1711.2,1153.3z"/><path fill="#afafaf" d="M1717.5,1147.5c0.3-2,0.6-3.7,0.8-5.3l2.7,0.6l-0.5,3.3l0.1,0c1.2-2.1,3.3-3.1,5.3-2.6
						c0.3,0.1,0.6,0.2,0.9,0.3l-0.5,2.9c-0.3-0.1-0.6-0.3-1-0.4c-2.2-0.5-4,0.8-4.8,3c-0.1,0.4-0.3,0.9-0.4,1.4l-1.5,9l-3-0.7
						L1717.5,1147.5z"/><path fill="#afafaf" d="M1737.5,1156.1c-0.6,4.2,1.7,6.5,4.8,7.2c2.2,0.5,3.6,0.5,4.8,0.2l0.2,2.3c-1.2,0.2-3.1,0.4-5.8-0.3
						c-5.2-1.2-7.8-5.4-6.9-10.5c0.9-5.1,4.6-8.4,9.5-7.3c5.5,1.3,6.2,6.5,5.6,9.6c-0.1,0.6-0.3,1.1-0.3,1.4L1737.5,1156.1z
						 M1746.9,1156c0.4-1.9,0-5.2-3.4-6c-3.1-0.7-5,1.8-5.6,3.9L1746.9,1156z"/><path fill="#afafaf" d="M1754.1,1155.4c0.3-1.7,0.5-3.2,0.6-4.6l2.7,0.6l-0.3,2.8l0.1,0c1.2-1.4,3.1-2.5,5.9-1.9
						c2.3,0.5,3.8,2.4,4.2,4.5l0.1,0c0.7-0.8,1.5-1.4,2.3-1.8c1.1-0.5,2.3-0.7,4-0.3c2.2,0.5,5.3,2.8,4.3,8.7l-1.7,10l-3-0.7
						l1.6-9.6c0.6-3.3-0.3-5.5-2.8-6.1c-1.8-0.4-3.3,0.6-4.1,1.9c-0.2,0.4-0.4,0.9-0.5,1.5l-1.8,10.5l-3-0.7l1.7-10.1
						c0.5-2.7-0.4-4.9-2.7-5.5c-1.9-0.5-3.6,0.8-4.3,2.2c-0.3,0.4-0.4,0.9-0.5,1.4l-1.7,10.2l-3-0.7L1754.1,1155.4z"/><path fill="#afafaf" d="M1790.6,1176.8l0.1-2.2l-0.1,0c-1.2,1.1-3.2,1.9-5.6,1.3c-3.4-0.8-4.8-3.6-4.4-6.1
						c0.7-4.1,4.7-5.5,11.3-3.9l0.1-0.4c0.2-1.4,0.3-4-3.2-4.8c-1.6-0.4-3.3-0.3-4.6,0.2l-0.4-2.2c1.6-0.6,3.7-0.7,5.8-0.2
						c5.2,1.2,5.8,5,5.3,8.4l-1.1,6.3c-0.2,1.5-0.4,2.9-0.4,4.1L1790.6,1176.8z M1791.6,1168.1c-3.4-0.9-7.3-1.2-7.8,2.1
						c-0.3,2,0.8,3.3,2.4,3.6c2.2,0.5,3.8-0.5,4.6-1.9c0.2-0.3,0.3-0.6,0.3-0.9L1791.6,1168.1z"/><path fill="#afafaf" d="M1798.1,1178.6l2.9-16.9l3.1,0.7l-2.9,16.9L1798.1,1178.6z M1805.3,1157.7c-0.1,1.1-1.1,1.7-2.3,1.4
						c-1.1-0.3-1.7-1.3-1.5-2.3c0.2-1.1,1.1-1.7,2.3-1.5C1804.8,1155.6,1805.4,1156.6,1805.3,1157.7z"/><path fill="#afafaf" d="M1810.6,1155.7l3.1,0.7l-4.2,24.8l-3.1-0.7L1810.6,1155.7z"/><linearGradient id="ba" x1="24.844" x2="268.854" y1="2055.806" y2="2055.806" gradientTransform="matrix(.9326 -.1407 .2375 .7545 1344.296 -572.388)" gradientUnits="userSpaceOnUse"><stop offset="0" stop-color="#fffeff"/><stop offset="1" stop-color="#cfd5eb"/></linearGradient><path fill="url(#ba)" d="M2081.6,939.6c4.9,33.9-4.6,67.6-24.9,92.3c-17.1,20.8-41.5,35.4-69.9,39.6
					c-46.3,6.9-90.3-15.5-113.5-52.6c-8.1-12.9-13.7-27.7-16.1-43.7c-7.8-53.8,24.8-117.8,94.8-130.2
					C2021,832.6,2074.6,891.1,2081.6,939.6z"/><linearGradient id="bb" x1="28.773" x2="212.399" y1="2137.101" y2="2137.101" gradientTransform="matrix(.9326 -.1407 .2375 .7545 1344.296 -572.388)" gradientUnits="userSpaceOnUse"><stop offset="0" stop-color="#e5939b"/><stop offset="1" stop-color="#c44d53"/></linearGradient><path fill="url(#bb)" d="M2056.6,1031.8c-17.1,20.8-41.5,35.4-69.9,39.6c-46.3,6.9-90.3-15.5-113.5-52.6
					c10.7-15.9,30.1-40.7,47.7-40.5c26,0.3,86.4,2,98.8,7.1C2029.2,989.3,2048.1,1018.1,2056.6,1031.8z"/><linearGradient id="bc" x1="105.894" x2="155.785" y1="2036.002" y2="2049.244" gradientTransform="matrix(.9326 -.1407 .2375 .7545 1344.296 -572.388)" gradientUnits="userSpaceOnUse"><stop offset="0" stop-color="#fac7b3"/><stop offset="1" stop-color="#f19470"/></linearGradient><path fill="url(#bc)" d="M1917.6,900c0,0-0.3,25.8,0.8,28.6c1,2.9,3.5,7.7,3.5,7.7s-3.2,5.9-2.5,10.6c0.7,4.7,3.4,28,7.1,30.2
						c3.7,2.2,18.4,0.1,18.4,0.1c-0.6,5-0.9,7.5-1.4,12.4c0,0,6.6,11.9,25,9.4c18.4-2.4,25-10.8,25-10.8c1.8-32.7,2.6-49,4.3-81.6
						C1965.6,904.1,1949.6,902.7,1917.6,900z"/><path fill="#d87c60" d="M1944.8,977.3c0,0,9.9-0.8,19.2-4.7c9.2-3.9,11.6-5.8,11.6-5.8s-2.1,9-13.2,13
						c-11.1,4-13.4,15.5-13.4,15.5c-1.5-1.3-2.3-2-3.8-3.3c-0.7-1-1.1-1.4-1.8-2.4C1943.9,984.8,1944.2,982.3,1944.8,977.3z"/><path fill="#202e5b" d="M1915.3,906.6c0,0,9.5,20.5,35.1,23.2c25.6,2.7,17.1,12.7,23.1,16.5c6,3.8,7.9-17.2,16-14.1
						c8.1,3.1,2.7,20.9,5.4,27.3c2.7,6.4,12.9,0.5,25.6-17.9c12.7-18.4,9.4-37.5-1.5-49c-11-11.5-17.3-14.4-17.3-14.4
						s-29.1-17.8-53.1-15.8c-24,2.1-36.8,35.2-37,45s6.2,12.7,6.2,12.7S1918.2,911.4,1915.3,906.6z"/></g></svg>