<svg xmlns="http://www.w3.org/2000/svg" xmlns:xlink="http://www.w3.org/1999/xlink" version="1.1" x="0px" y="0px" viewBox="0 0 66 82.5" enable-background="new 0 0 66 66" xml:space="preserve"><g><g><path d="M46.8,42.4c0,0.9-1.1,1.3-1.7,0.7L41.9,40c-0.9-0.9-2.6-0.8-3.3,0.3c-0.6,0.9-0.5,2.1,0.2,2.9c7.7,6.6,8,6.3,8,7.2v7.9h8    v-18c-0.1-3.1-5.1-7.2-8-9.3V42.4z"/></g><g><path d="M57.5,59.2l-13.3-0.1c-0.2,0-0.4,0.2-0.4,0.4L43.7,63c0,0.2,0.2,0.4,0.4,0.4l13.3,0.1c0.2-0.2,0.3-0.3,0.5-0.5v-3.4    C57.9,59.4,57.7,59.2,57.5,59.2z"/></g><g><path d="M44.8,55.9V53c0,2.1-1.9,0.6-33.7,1.1c-0.6,0-1.1-0.5-1.1-1.1V15.3h34.8V27l2,1.4V5.6c0-1.7-1.4-3.1-3.1-3.1H11.2    c-1.7,0-3.1,1.4-3.1,3.1V53c0,1.7,1.4,3.1,3.1,3.1C45.7,56,43.7,56.3,44.8,55.9z M38.1,8.9c0,0.6-0.4,1-1,1H35c-0.6,0-1-0.4-1-1    c0-0.5,0.4-1,1-1h2.1C37.7,7.9,38.1,8.3,38.1,8.9z M24.3,7.9h6.3c0.5,0,1,0.5,1,1c0,0.6-0.5,1-1,1h-6.3c-0.6,0-1-0.4-1-1    C23.3,8.3,23.7,7.9,24.3,7.9z"/></g><g><path d="M40.7,28.2c0.5,0,1-0.5,1-1c0-0.6-0.5-1-1-1h-8c-0.5,0-1,0.4-1,1c0,0.5,0.5,1,1,1H40.7z"/></g><g><path d="M36.9,34.5h3.8c0.5,0,1-0.4,1-1c0-0.5-0.5-1-1-1h-3.8c-0.5,0-1,0.5-1,1C35.9,34.1,36.3,34.5,36.9,34.5z"/></g><g><path d="M32.7,21.9h4.9c0.6,0,1-0.4,1-1c0-0.5-0.4-1-1-1h-4.9c-0.5,0-1,0.5-1,1C31.7,21.4,32.1,21.9,32.7,21.9z"/></g><g><path d="M26.8,27.8c-0.4-0.2-0.8-0.1-1.1,0.2l-2.8,2.8L20,28c-0.3-0.3-0.8-0.4-1.1-0.2c-3.2,1.5-5.2,4.8-5.2,8.3    c0,3.3,5,4.4,9.2,4.4s9.2-1.2,9.2-4.4C32,32.5,30,29.3,26.8,27.8z"/></g><g><path d="M30.4,43.6H14.1c-0.5,0-1,0.4-1,1c0,0.5,0.5,1,1,1h16.3c0.5,0,1-0.5,1-1C31.4,44.1,31,43.6,30.4,43.6z"/></g><g><path d="M30.4,48.9H14.1c-0.5,0-1,0.4-1,1c0,0.5,0.5,1,1,1h16.3c0.5,0,1-0.5,1-1C31.4,49.3,31,48.9,30.4,48.9z"/></g><g><path d="M22.8,27.1c2.4,0,4.3-1.9,4.3-4.3c0-2.4-1.9-4.3-4.3-4.3s-4.3,1.9-4.3,4.3C18.5,25.2,20.4,27.1,22.8,27.1z"/></g></g><text x="0" y="81" fill="#000000" font-size="5px" font-weight="bold" font-family="'Helvetica Neue', Helvetica, Arial-Unicode, Arial, Sans-serif">Created by ProSymbols</text><text x="0" y="86" fill="#000000" font-size="5px" font-weight="bold" font-family="'Helvetica Neue', Helvetica, Arial-Unicode, Arial, Sans-serif">from the Noun Project</text></svg>