<svg width="24" height="24" viewBox="0 0 24 24" fill="none" xmlns="http://www.w3.org/2000/svg">
<g id="carbon:scis-transparent-supply">
<path id="Vector" d="M17.25 17.25V19.5H6.375C5.47989 19.5 4.62145 19.1444 3.98851 18.5115C3.35558 17.8786 3 17.0201 3 16.125C3 15.2299 3.35558 14.3715 3.98851 13.7385C4.62145 13.1056 5.47989 12.75 6.375 12.75H6.75V11.25H6.375C5.08207 11.25 3.84209 11.7636 2.92785 12.6779C2.01361 13.5921 1.5 14.8321 1.5 16.125C1.5 17.4179 2.01361 18.6579 2.92785 19.5721C3.84209 20.4864 5.08207 21 6.375 21H17.25V23.25H23.25V17.25H17.25ZM21.75 21.75H18.75V18.75H21.75V21.75Z" fill="#1310A7"/>
<path id="Vector_2" d="M15.75 16.5H14.25V14.25H9.75V16.5H8.25V14.25C8.2504 13.8523 8.40856 13.471 8.68978 13.1898C8.971 12.9086 9.3523 12.7504 9.75 12.75H14.25C14.6477 12.7504 15.029 12.9086 15.3102 13.1898C15.5914 13.471 15.7496 13.8523 15.75 14.25V16.5ZM12 12C11.555 12 11.12 11.868 10.75 11.6208C10.38 11.3736 10.0916 11.0222 9.92127 10.611C9.75097 10.1999 9.70642 9.74751 9.79323 9.31105C9.88005 8.87459 10.0943 8.47368 10.409 8.15901C10.7237 7.84434 11.1246 7.63005 11.561 7.54323C11.9975 7.45642 12.4499 7.50097 12.861 7.67127C13.2722 7.84157 13.6236 8.12996 13.8708 8.49997C14.118 8.86998 14.25 9.30499 14.25 9.75C14.2494 10.3466 14.0122 10.9185 13.5903 11.3403C13.1685 11.7622 12.5966 11.9994 12 12ZM12 9C11.8517 9 11.7067 9.04399 11.5833 9.1264C11.46 9.20881 11.3639 9.32594 11.3071 9.46299C11.2503 9.60003 11.2355 9.75083 11.2644 9.89632C11.2933 10.0418 11.3648 10.1754 11.4697 10.2803C11.5746 10.3852 11.7082 10.4567 11.8537 10.4856C11.9992 10.5145 12.15 10.4997 12.287 10.4429C12.4241 10.3861 12.5412 10.29 12.6236 10.1667C12.706 10.0433 12.75 9.89834 12.75 9.75C12.7498 9.55115 12.6707 9.3605 12.5301 9.21989C12.3895 9.07928 12.1989 9.0002 12 9Z" fill="#1310A7"/>
<path id="Vector_3" d="M17.625 3H6.75V0.75H0.75V6.75H6.75V4.5H17.625C18.5201 4.5 19.3785 4.85558 20.0115 5.48851C20.6444 6.12145 21 6.97989 21 7.875C21 8.77011 20.6444 9.62855 20.0115 10.2615C19.3785 10.8944 18.5201 11.25 17.625 11.25H17.25V12.75H17.625C18.9179 12.75 20.1579 12.2364 21.0721 11.3221C21.9864 10.4079 22.5 9.16793 22.5 7.875C22.5 6.58207 21.9864 5.34209 21.0721 4.42785C20.1579 3.51361 18.9179 3 17.625 3ZM5.25 5.25H2.25V2.25H5.25V5.25Z" fill="#1310A7"/>
</g>
</svg>
