<svg xmlns="http://www.w3.org/2000/svg" data-name="Layer 1" viewBox="160.497 170.853 2679.006 2655.533"><path fill="#cedbee" d="M2306.38 2082.64H560.68a143 143 0 0 1-143-143V492.65a143 143 0 0 1 143-143h1745.71a143.06 143.06 0 0 1 143.05 143v1446.94a143.06 143.06 0 0 1-143.06 143.05Z"/><path fill="#fff" d="M2360.68 567.39v1306.38a134.13 134.13 0 0 1-134.12 134.13h-1586a134.13 134.13 0 0 1-134.13-134.13V567.39a134.08 134.08 0 0 1 134.08-134.13h1586.05a134.13 134.13 0 0 1 134.12 134.13Z"/><path fill="#cedbee" d="M2360.68 636.08v-14.57h-164.27V433.26h-14.57v188.25h-292.26V433.26H1875v188.25h-281.47V433.26H1579v188.25h-292.31V433.26h-14.56v188.25h-290.3V433.26h-14.57v188.25H675V433.26h-14.57v188.25h-154v14.57h154v275.44h-154v14.57h154v292.26h-154v14.57h154v261.36h-154v14.57h154v292.26h-154v14.57h154v192.21H675v-192.21h292.26v192.21h14.57v-192.21h290.29v192.21h14.56v-192.21h292.26v192.21h14.57v-192.21H1875v192.21h14.57v-192.21h292.26v192.21h14.57v-192.21h164.27v-14.57h-164.28v-292.26h164.27v-14.57h-164.27v-261.35h164.27v-14.57h-164.27V926.09h164.27v-14.57h-164.27V636.08Zm-1393.42 1165H675v-292.22h292.26Zm0-306.84H675v-261.31h292.26Zm0-275.93H675V926.09h292.26Zm0-306.83H675v-275.4h292.26Zm304.87 889.6h-290.3v-292.22h290.29v292.26Zm0-306.84h-290.3v-261.31h290.29v261.35Zm0-275.93h-290.3V926.09h290.29v292.26Zm0-306.83h-290.3v-275.4h290.29v275.44ZM1579 1801.12h-292.31v-292.26H1579Zm0-306.84h-292.31v-261.35H1579Zm0-275.93h-292.31V926.09H1579Zm0-306.83h-292.31V636.08H1579Zm296 889.6h-281.46v-292.26H1875Zm0-306.84h-281.46v-261.35H1875Zm0-275.93h-281.46V926.09H1875Zm0-306.83h-281.46V636.08H1875Zm306.83 889.6h-292.24v-292.26h292.26Zm0-306.84h-292.24v-261.35h292.26Zm0-275.93h-292.24V926.09h292.26Zm0-306.83h-292.24V636.08h292.26Z"/><path fill="#aec6d3" d="M929.18 984.15h-164a15.75 15.75 0 0 1-15.75-15.75 15.75 15.75 0 0 1 15.75-15.75h164a15.75 15.75 0 0 1 15.75 15.75 15.75 15.75 0 0 1-15.75 15.75ZM1105.68 984.39h-76.62a15.75 15.75 0 0 1-15.75-15.75 15.75 15.75 0 0 1 15.75-15.75h76.62a15.75 15.75 0 0 1 15.75 15.75 15.75 15.75 0 0 1-15.75 15.75Z"/><path fill="#cedbee" d="M2025.31 1881.23h-83.67a15 15 0 0 1-15-15 15.06 15.06 0 0 1 15.05-15h83.67a15 15 0 0 1 15 15 15.06 15.06 0 0 1-15.05 15ZM2055.84 1638.68h-108.51a20.72 20.72 0 0 1-20.72-20.72v-34.25a20.72 20.72 0 0 1 20.72-20.72h108.51a20.72 20.72 0 0 1 20.72 20.72V1618a20.72 20.72 0 0 1-20.72 20.68ZM2713.23 909.92v176.67a28.23 28.23 0 0 1-28.24 28.23h-49.56v76.38l-84.69-76.38h-246.41a28.23 28.23 0 0 1-28.24-28.23V909.92a28.24 28.24 0 0 1 28.24-28.24H2685a28.24 28.24 0 0 1 28.23 28.24Z"/><path fill="#aec6d3" d="m2639.93 1201.31-90.92-82h-244.68a32.78 32.78 0 0 1-32.75-32.73V909.92a32.74 32.74 0 0 1 32.75-32.74H2685a32.77 32.77 0 0 1 32.73 32.74v176.67a32.77 32.77 0 0 1-32.73 32.73h-45.06Zm-335.6-315.13a23.75 23.75 0 0 0-23.75 23.74v176.67a23.77 23.77 0 0 0 23.75 23.73h248.13l78.47 70.76v-70.76H2685a23.76 23.76 0 0 0 23.73-23.73V909.92a23.76 23.76 0 0 0-23.73-23.74Z"/><path fill="#fff" d="M2584.51 948.32H2350a8.41 8.41 0 0 1-8.41-8.41 8.41 8.41 0 0 1 8.41-8.41h234.47a8.41 8.41 0 0 1 8.4 8.41 8.41 8.41 0 0 1-8.36 8.41ZM2555.49 1005.52h-207a6.86 6.86 0 0 1-6.87-6.86v-3.09a6.86 6.86 0 0 1 6.87-6.86h207a6.86 6.86 0 0 1 6.86 6.86v3.09a6.86 6.86 0 0 1-6.86 6.86ZM2500.45 1060.53H2350a8.41 8.41 0 0 1-8.41-8.41 8.41 8.41 0 0 1 8.41-8.41h150.41a8.41 8.41 0 0 1 8.41 8.41 8.4 8.4 0 0 1-8.37 8.41Z"/><path fill="#dfe9f4" d="M2495.23 736.67h-411a32.1 32.1 0 0 1-32.09-32.09V555.83a32.1 32.1 0 0 1 32.09-32.09h411a32.1 32.1 0 0 1 32.09 32.09v148.75a32.1 32.1 0 0 1-32.09 32.09Z"/><path fill="#dfe9f4" d="m2059.63 676.51-65.8 109.52 157.45-62.05-91.65-47.47z"/><path fill="#aec6d3" d="M2281.13 594.25H2119.2a9 9 0 0 1-9-9 9 9 0 0 1 9-9.05h161.93a9 9 0 0 1 9 9.05 9 9 0 0 1-9 9ZM2444.94 594.25H2327a9 9 0 0 1-9.05-9 9 9 0 0 1 9.05-9.05h118a9.06 9.06 0 0 1 9.06 9.05 9.06 9.06 0 0 1-9.12 9ZM2281.13 639.85H2119.2a9 9 0 0 1-9-9.05 9 9 0 0 1 9-9h161.93a9 9 0 0 1 9 9 9.05 9.05 0 0 1-9 9.05ZM2222.62 694.84h-103.41a9 9 0 0 1-9.05-9.05 9 9 0 0 1 9.05-9h103.41a9 9 0 0 1 9.05 9 9.05 9.05 0 0 1-9.05 9.05ZM2444.94 639.85H2327a9 9 0 0 1-9.05-9.05 9 9 0 0 1 9.05-9h118a9.06 9.06 0 0 1 9.06 9 9.06 9.06 0 0 1-9.12 9.05ZM2454 528.24h-355.8a4.5 4.5 0 0 1 0-9H2454a4.5 4.5 0 0 1 0 9Z"/><path fill="#aec6d3" d="M2505.32 741.18h-395.16a4.5 4.5 0 0 1 0-9h395.16a17.53 17.53 0 0 0 17.5-17.5V594.25a4.5 4.5 0 0 1 9 0v120.43a26.53 26.53 0 0 1-26.5 26.5Z"/><path fill="#cedbee" d="M2666.53 1747h-360.66a21.32 21.32 0 0 1-21.32-21.32v-152a21.32 21.32 0 0 1 21.32-21.32h360.66a21.32 21.32 0 0 1 21.32 21.32v152a21.33 21.33 0 0 1-21.32 21.32Z"/><path fill="#aec6d3" d="M2666.53 1751.53h-360.66a25.86 25.86 0 0 1-25.83-25.82v-152a25.85 25.85 0 0 1 25.83-25.82h360.66a25.84 25.84 0 0 1 25.81 25.82v152a25.86 25.86 0 0 1-25.81 25.82Zm-360.66-194.6a16.84 16.84 0 0 0-16.83 16.82v152a16.85 16.85 0 0 0 16.83 16.82h360.66a16.84 16.84 0 0 0 16.81-16.83v-152a16.83 16.83 0 0 0-16.81-16.82Z"/><path fill="#cedbee" d="M2687.84 1720.71v93.07l-119.87-83.2 119.87-9.87z"/><path fill="#fff" d="M2546.59 1618.94H2367a10.35 10.35 0 0 1-10.35-10.34 10.34 10.34 0 0 1 10.34-10.34h179.56a10.34 10.34 0 0 1 10.34 10.34 10.32 10.32 0 0 1-10.3 10.34ZM2502 1683.81h-137.39c-4.37 0-7.91-4.63-7.91-10.34a12.25 12.25 0 0 1 2-6.89 7.25 7.25 0 0 1 5.9-3.45H2502c4.37 0 7.9 4.63 7.9 10.34.02 5.71-3.52 10.34-7.9 10.34Z"/><path fill="#dfe9f4" d="M2420.56 1449.49h-363.68a31.32 31.32 0 0 1-31.32-31.32v-169.55a31.32 31.32 0 0 1 31.33-31.32h363.68a31.32 31.32 0 0 1 31.32 31.32v169.55a31.34 31.34 0 0 1-31.33 31.32Z"/><path fill="#aec6d3" d="M2420.55 1454h-363.67a35.86 35.86 0 0 1-35.82-35.82v-169.56a35.8 35.8 0 0 1 35.82-35.82h363.69a35.85 35.85 0 0 1 35.81 35.82v169.55a35.88 35.88 0 0 1-35.83 35.83Zm-363.67-232.2a26.8 26.8 0 0 0-26.82 26.82v169.55a26.85 26.85 0 0 0 26.82 26.82h363.67a26.86 26.86 0 0 0 26.83-26.83v-169.54a26.85 26.85 0 0 0-26.81-26.82Z"/><path fill="#aec6d3" d="M2236.37 1289.91h-123.62a8.46 8.46 0 0 1-8.46-8.46 8.46 8.46 0 0 1 8.46-8.46h123.62a8.46 8.46 0 0 1 8.46 8.46 8.46 8.46 0 0 1-8.46 8.46ZM2340.71 1289.91h-69.57a8.47 8.47 0 0 1-8.46-8.46 8.47 8.47 0 0 1 8.46-8.46h69.57a8.46 8.46 0 0 1 8.46 8.46 8.46 8.46 0 0 1-8.46 8.46ZM2236.37 1344.44h-123.62a8.46 8.46 0 0 1-8.46-8.46 8.46 8.46 0 0 1 8.46-8.46h123.62a8.46 8.46 0 0 1 8.46 8.46 8.46 8.46 0 0 1-8.46 8.46ZM2237.91 1396.14h-126.73a6.9 6.9 0 0 1-6.9-6.91v-3.11a6.91 6.91 0 0 1 6.9-6.91h126.73a6.91 6.91 0 0 1 6.91 6.91v3.11a6.89 6.89 0 0 1-6.91 6.91ZM2340.71 1344.44h-69.57a8.47 8.47 0 0 1-8.46-8.46 8.47 8.47 0 0 1 8.46-8.46h69.57a8.46 8.46 0 0 1 8.46 8.46 8.46 8.46 0 0 1-8.46 8.46Z"/><circle cx="1115.55" cy="543.72" r="38.54" fill="#7394bc"/><path fill="#dfe9f4" d="M1205.18 487.08s22.91-104.61-19.27-140.54c-31.05-26.45-60.84-27.26-70.78-26.67-9.94-.6-39.73.22-70.78 26.67-42.18 35.93-19.28 140.54-19.28 140.54s-27.72 45.59-27.72 52.64c0 5.36 235.56 5.36 235.56 0 0-7.04-27.73-52.64-27.73-52.64Z"/><path fill="#aec6d3" d="M1018.93 437.76a4.51 4.51 0 0 1-4.49-4.23c-2.76-45.89 11.18-72.4 23.36-86.56 13.45-15.64 27.65-20.11 28.25-20.29a4.5 4.5 0 0 1 2.64 8.61c-.23.07-12.73 4.15-24.44 18-15.65 18.49-22.85 46.05-20.82 79.72a4.5 4.5 0 0 1-4.22 4.76ZM1000.49 535.44a4.51 4.51 0 0 1-3.93-6.69l20.85-37.58v-22.68a4.5 4.5 0 0 1 9 0v25l-22 39.62a4.51 4.51 0 0 1-3.92 2.33ZM1231.12 547.93h-67.95a4.5 4.5 0 0 1 0-9h62.67l-24.2-57.21.25-1.33c.13-.72 13.21-72.38.44-96.14a4.5 4.5 0 1 1 7.93-4.26c13.37 24.89 2.58 90.18.72 100.7l25.21 59.59a5.51 5.51 0 0 1-5.07 7.65Zm-3.22-4.14Z"/><circle cx="1196.9" cy="349.19" r="47.94" fill="#92b1dd" transform="rotate(-76.71 1196.965 349.168)"/><path fill="#cedbee" d="M1014 1693.44H325.46a43.19 43.19 0 0 1-43.19-43.19v-535.49a43.19 43.19 0 0 1 43.19-43.19H1014a43.19 43.19 0 0 1 43.19 43.19v535.49a43.18 43.18 0 0 1-43.19 43.19Z"/><path fill="#fff" d="M339.85 1126.57h659.72v506.24H339.85z"/><path fill="#92b1dd" d="m485.5 1269.93-.07-34.3-17 28.38h-4.29l-17-27.94v33.85H438v-51.74h7.92l20.54 34.3 20.18-34.3h7.91l.07 51.74h-9.12ZM547.36 1261.87v8.06h-38.8v-51.74h37.77v8.06h-28.16v13.45h25v7.91h-25v14.27h29.19ZM596.88 1261.87v8.06h-38.8v-51.74h37.77v8.06h-28.16v13.45h25v7.91h-25v14.27h29.19ZM618.09 1226.32h-17.15v-8.13h43.9v8.13H627.7v43.61h-9.61ZM652.09 1218.19h9.61v51.74h-9.61ZM721.64 1218.19v51.74h-7.91l-28.53-35v35h-9.53v-51.74h7.9l28.54 35v-35ZM770.87 1243.47H780v20.62a28.88 28.88 0 0 1-9.31 4.88 35.87 35.87 0 0 1-10.94 1.7 29.55 29.55 0 0 1-14.27-3.44 25.56 25.56 0 0 1-10-9.5 27.62 27.62 0 0 1 0-27.34 25.44 25.44 0 0 1 10-9.5 29.88 29.88 0 0 1 14.38-3.44 31.38 31.38 0 0 1 11.83 2.14 23.14 23.14 0 0 1 8.94 6.28l-6.06 5.91a19.45 19.45 0 0 0-14.27-5.91 20.11 20.11 0 0 0-9.72 2.29 16.73 16.73 0 0 0-6.65 6.43 18.51 18.51 0 0 0-2.4 9.46 18.21 18.21 0 0 0 2.4 9.31 17.17 17.17 0 0 0 6.65 6.5 19.46 19.46 0 0 0 9.65 2.37 20.83 20.83 0 0 0 10.64-2.66v-16.1ZM501.65 1549.55a21.25 21.25 0 0 1-7.69-9.17 37.79 37.79 0 0 1 0-28.6 21.09 21.09 0 0 1 7.69-9.16 21.21 21.21 0 0 1 22.21 0 21 21 0 0 1 7.71 9.16 37.79 37.79 0 0 1 0 28.6 21.21 21.21 0 0 1-7.71 9.17 20.26 20.26 0 0 1-11.12 3.14 20 20 0 0 1-11.09-3.14Zm19.84-9.79q3.21-4.58 3.21-13.67t-3.21-13.67a10.59 10.59 0 0 0-17.44 0q-3.23 4.59-3.22 13.67t3.22 13.67a10.59 10.59 0 0 0 17.44 0ZM574.86 1506.13q5.86 6.66 5.88 19.07a32.17 32.17 0 0 1-3.18 14.89 22.11 22.11 0 0 1-8.91 9.39 26.69 26.69 0 0 1-13.27 3.21 31.62 31.62 0 0 1-7.5-.85 20.41 20.41 0 0 1-6.1-2.48l3.55-7.24a17.6 17.6 0 0 0 9.83 2.51q7.47 0 11.68-4.58c2.81-3 4.21-7.47 4.21-13.23v-.07a14.38 14.38 0 0 1-5.84 4 22.12 22.12 0 0 1-8 1.37 20.81 20.81 0 0 1-9.17-2 14.89 14.89 0 0 1-8.65-13.93 15.7 15.7 0 0 1 2.51-8.83 16.58 16.58 0 0 1 6.8-5.88 21.82 21.82 0 0 1 9.61-2.07q10.69.07 16.55 6.72Zm-8.21 16a8.33 8.33 0 0 0 .07-12.61q-2.85-2.48-7.87-2.48a10.87 10.87 0 0 0-7.32 2.4 8.72 8.72 0 0 0 0 12.82 11.31 11.31 0 0 0 7.54 2.36 11 11 0 0 0 7.58-2.53ZM587.83 1550.73a6.15 6.15 0 1 1 4.29 1.74 5.9 5.9 0 0 1-4.29-1.74ZM614 1549.55a21.25 21.25 0 0 1-7.69-9.17 37.79 37.79 0 0 1 0-28.6 21.09 21.09 0 0 1 7.69-9.16 21.21 21.21 0 0 1 22.21 0 21.07 21.07 0 0 1 7.72 9.16 37.79 37.79 0 0 1 0 28.6 21.23 21.23 0 0 1-7.72 9.17 20.24 20.24 0 0 1-11.12 3.14 20 20 0 0 1-11.09-3.14Zm19.85-9.79q3.21-4.58 3.22-13.67t-3.22-13.67a10.59 10.59 0 0 0-17.44 0q-3.21 4.59-3.22 13.67t3.22 13.67a10.06 10.06 0 0 0 8.68 4.58 10.17 10.17 0 0 0 8.75-4.58ZM663.73 1549.55a21.25 21.25 0 0 1-7.69-9.17 37.79 37.79 0 0 1 0-28.6 21 21 0 0 1 7.69-9.16 21.21 21.21 0 0 1 22.21 0 21 21 0 0 1 7.71 9.16 37.79 37.79 0 0 1 0 28.6 21.14 21.14 0 0 1-7.71 9.17 20.26 20.26 0 0 1-11.12 3.14 20 20 0 0 1-11.09-3.14Zm19.85-9.79q3.21-4.58 3.21-13.67t-3.21-13.67a10.59 10.59 0 0 0-17.44 0q-3.21 4.59-3.22 13.67t3.22 13.67a10.59 10.59 0 0 0 17.44 0ZM760.63 1540h-25.87l-5.1 12h-9.9l23.24-51.79h9.46l23.4 51.79h-10.05Zm-3.18-7.54-9.76-22.62-9.69 22.6ZM830 1552l-.07-34.3-17 28.38h-4.33l-17-27.94v33.85h-9.17v-51.79h7.91l20.55 34.3 20.18-34.3H839l.07 51.74H830Z"/><path fill="#cedbee" d="M911.55 1365.12H453.26a10.11 10.11 0 0 1-10.11-10.12 10.11 10.11 0 0 1 10.11-10.11h458.29a10.11 10.11 0 0 1 10.11 10.11 10.11 10.11 0 0 1-10.11 10.12ZM912 1411.18H453.73a10.11 10.11 0 0 1-10.11-10.11 10.11 10.11 0 0 1 10.11-10.07H912a10.12 10.12 0 0 1 10.11 10.11 10.11 10.11 0 0 1-10.11 10.07ZM683.11 1458.19H453.26a10.11 10.11 0 0 1-10.11-10.11 10.11 10.11 0 0 1 10.11-10.08h229.85a10.11 10.11 0 0 1 10.11 10.11 10.12 10.12 0 0 1-10.11 10.08Z"/><path fill="#aec6d3" d="M360.83 1067.08h555.33v9H360.83zM325.63 1689.18h562.9v9h-562.9zM1051.83 1169.97h9v430.71h-9zM344.35 1528.93h-9v-406.75h457.93v9H344.35v397.75z"/><path fill="#2c4fa0" d="M1892.61 2070.89c-13-25.58-35.58-37.94-62.73-41.74-93.58-13.1-241.7 75.58-241.7 75.58l1.17 20.72-2.41.44 1.24-21.16s-127.41-73.35-223.68-76.78c-40.3-1.44-75.12 9.38-92.88 42.93 0 0-18.16 40.89-14.61 163.1s27.44 354.41 27.44 354.41h275.4l3.93-67.36 10.67-182.12c8.58.09 17.91.16 26.94.22l10.28 182.5 3.76 66.76h264.84s23-232.2 26.4-354.41-14.06-163.09-14.06-163.09Z"/><path fill="#273657" d="m1329.66 2518.13 234.13 2.91-3.94 67.36h-275.39s-23.91-232.2-27.46-354.4 14.61-163.1 14.61-163.1c17.76-33.56 52.6-44.37 92.88-42.93l59.16 91.11s-109.05-17.86-135.37 79.91 41.38 319.14 41.38 319.14Z" opacity=".58"/><path fill="#273657" d="M1906.66 2234c-3.4 122.21-26.4 354.41-26.4 354.41h-264.84l-3.76-66.76 208.71 2.6s41.36-212.93 39.94-310.7-140.54-102.94-140.54-102.94 56.91-52.79 110.09-81.46c27.15 3.8 49.71 16.16 62.73 41.74.02 0 17.47 40.89 14.07 163.11Z" opacity=".58"/><path fill="#273657" d="m1564.2 2143.51 5.65 163.1s46.06-38.54 43.7-165.45-48.41-1.41-48.41-1.41" opacity=".58"/><path fill="#6cc58d" d="M1904.73 2070.89s-47.94 23.12-124.68 46.05a1118.74 1118.74 0 0 1-124.4 29.62c-10.29 9.69-140.67 9.69-151 0-38-6.74-73-15.09-104.14-23.77-88.46-24.66-144.93-51.9-144.93-51.9s92.13-220 82.26-353c-4.94-66.49-22.9-178.41-36.71-278.62s-23.46-188.83-11.71-208.35c7.36-12.21 34.3-32.34 67.82-54.24 8-5.22 16.34-10.53 24.89-15.86 70.32-43.81 154.07-88.77 154.07-88.77l43.93 6.82 43.94-6.82s89.35 48 161 93.09c9.9 6.24 19.47 12.43 28.41 18.43 28.6 19.18 50.83 36.43 57.4 47.35 20.7 34.36-25 282.78-42.89 432.42-2.43 20.25-4.35 38.69-5.52 54.55-9.86 133.02 82.26 353 82.26 353Z"/><path fill="#3e9a83" d="M1400.55 2122.79c-88.46-24.66-144.93-51.9-144.93-51.9s92.13-220 82.26-353c-4.94-66.49-22.9-178.41-36.71-278.62 4.75-26.13 7.56-41.48 7.56-41.48l7.29 59s19.74 93.07 41.36 122.21 142.42 209.17 142.42 209.17l-123.15 68.63s-61.48 200.39 23.9 265.99Z" opacity=".78"/><path fill="#3e9a83" d="m1792.65 1849.73-160.75-48.41 173.92-134-1.41-23c1.92 1.18 11.14 8.41 23.6 19-2.44 20.25-4.35 38.69-5.52 54.55-9.87 133 82.26 353 82.26 353s-47.94 23.12-124.68 46.05c82.37-63.64 12.58-267.19 12.58-267.19Z" opacity=".78"/><path fill="#6cc58d" d="M1870.91 1230.92a84.8 84.8 0 0 1 24.91 33.84c38.36 94.65 136 356 104.35 431.5-39 93.07-165.45 60.17-211.52 0-67.19-87.74 39-202.12 39-202.12Z"/><path fill="#3e9a83" d="m1854.12 1527.14-1.32-123.47-28.09 115.2c-14.48 8.64-52 34.5-1 44.61 61.58 12.22 118.45 33.84 118.45 33.84-25.24-34.09-63.34-57.52-88.04-70.18Z" opacity=".78"/><path fill="#6cc58d" d="M1364.67 1750.79s-8.62 2.39-22.63 5.71c-25.07 5.94-67.41 14.84-108.53 18.33-45.44 3.85-89.37 1.1-106.93-19.57-18.84-22.2-23-61.65-17.26-111.65 7.17-62.22 29.69-140.8 58.38-222.79 59.23-169.22 121.74-189.9 121.74-189.9s60.64 85.55 41.36 187.08c-8.87 46.72-19.48 95.09-28.35 133.69-10.45 45.31-18.45 77.12-18.45 77.12l55.34 5.3 6 .57Z"/><path fill="#273657" d="M1364.67 1750.79s-8.62 2.39-22.63 5.71c-14-10.36-25.75-28.41-27.19-55.53-2.14-40.38 15.82-59.85 24.55-66.85l6 .57Z"/><path fill="#3e9a83" d="M1302.48 1551.69c-10.42 45.28-18.43 77.12-18.43 77.12l-83.18 39c1.13-.87 73.4-56.67 101.45-116.93Z" opacity=".78"/><path fill="#3e9a83" d="M1233.51 1774.82c-45.44 3.85-89.37 1.1-106.93-19.57-18.84-22.2-23-61.65-17.26-111.65 3.39 32.44 13 67.26 36.54 87.68 28.88 25.04 62.75 37.44 87.65 43.54Z" opacity=".78"/><path fill="#dfe9f4" d="m1848.75 1489.91-38.81 267.27-4.44 30.67a25.89 25.89 0 0 1-25.62 22.17H1404a25.89 25.89 0 0 1-25.62-22.17l-43.25-297.93a25.78 25.78 0 0 1 5.18-19.62c.4-.51.82-1 1.25-1.49a25.79 25.79 0 0 1 19.19-8.5h462.38a25.88 25.88 0 0 1 25.62 29.6Z"/><circle cx="1769.82" cy="1528.93" r="26.32" fill="#92b1dd"/><path fill="#cedbee" d="m1809.94 1757.18-4.44 30.67a25.89 25.89 0 0 1-25.62 22.17H1404a25.89 25.89 0 0 1-25.62-22.17l-43.25-297.93a25.78 25.78 0 0 1 5.18-19.62l39.17 96s55.45 17.39 87.9 41.83-40 151.35-40 151.35 248.65 33.84 332.79 15.51c20.52-4.46 36.83-10.79 49.77-17.81Z"/><path fill="#ffb2a8" d="M1341.17 1645s31.49-50.76 74.74-53.11 45.12 9.87 44.18 17.86-45.59 10.34-45.59 10.34 66.51-10.11 79.67 2.59 7.76 18.1-68.86 24.21c0 0 83-5.41 85.31 11s-85.31 20-85.31 20 66-12 68.86 6.82-75.44 26.56-83 28-12.22 41.83-46.53 38.07-42.74-80.84-23.47-105.78Z"/><path fill="#f27c85" d="M1409.55 1624.47a6 6 0 0 1-.47-12l53.59-4.23a6 6 0 1 1 .95 12l-53.59 4.23ZM1420.13 1652.91a6 6 0 0 1-.29-12l67.21-3.29a6 6 0 1 1 .59 12l-67.21 3.29ZM1422.48 1683a6 6 0 0 1-.21-12l64.86-2.35a6 6 0 0 1 .43 12l-64.86 2.35Z"/><path fill="#343a28" d="M1554.1 587.91s-69.57-63.93-164 23-32.9 178.62-32.9 178.62-95.42 23.5-80.85 151.35 176.22 169.72 260.82 147.12 96.83-.94 96.83-.94 153.23 27.73 213.87-96.83-66.28-187.08-66.28-187.08 49.35-114.22-18.33-199.77-172.97-60.13-209.16-15.47Z"/><path fill="#ffb2a8" d="M1651.7 1152.43c-25.38-91.66-3.29-166.86-3.29-166.86l-61.4-1.15v-.26l-6.9.13-6.9-.13v.26l-61.4 1.15s22.09 75.21-3.29 166.86 56.88 85.55 56.88 85.55l14.73-7.36 14.73 7.36s82.22 6.1 56.84-85.55Z"/><path fill="#f27c85" d="m1527.78 991.67 106.7 17.39s-3.07 58-49.59 55.7-61.34-57.58-61.34-57.58Z"/><path fill="#fff" d="M1813.49 1183.57c-46.48 67.72-131.78 173.61-209.58 171.65-81.38-2-190.57-114.22-246.64-178.54 8-5.22 16.34-10.53 24.89-15.86 70.32-43.81 154.07-88.77 154.07-88.77l43.93 6.82 43.94-6.82s89.35 48 161 93.09c9.9 6.24 19.45 12.43 28.39 18.43Z"/><path fill="#ffb2a8" d="M1785.06 1160.79c-32.11 51.53-112.5 167.43-184.91 165.55-76-2-181.71-124.9-218-170 70.32-45 154.07-91.17 154.07-91.17l43.93 7 43.94-7s89.37 49.27 160.97 95.62ZM1739.62 698.81s-.32 69.44-3.09 139.87c-.08 2-.16 4.07-.25 6.11-.52 12.68-1.13 25.34-1.83 37.56-4.33 75.62-71 140.45-138.82 149.41a18.91 18.91 0 0 1-6 1c-1.86 0-3.73 0-5.6-.07s-3.74.09-5.6.07a19.24 19.24 0 0 1-6-1c-67.84-9-134.49-73.79-138.82-149.41-.7-12.22-1.32-24.87-1.83-37.56q-.14-3.06-.25-6.11c-2.77-70.42-3.09-139.87-3.09-139.87 41.62-72 115-73.81 155.63-68.27 40.54-5.54 113.93-3.78 155.55 68.27Z"/><path fill="#343a28" d="M1417.31 798s96.36-40.42 144.77-121.27c0 0 86 108.58 185.68 117 0 0 43.7-189.43-149.47-185.2S1403.68 738.79 1417.31 798Z"/><circle cx="1655.86" cy="849.95" r="15.04" fill="#343a28"/><path fill="#343a28" d="M1625.78 813.76c.93-10.34 25.38-16.45 45.12-8.46s22.1 22.56 10.81 19.7-30.55-6.58-43.71-4.23-12.22-7.01-12.22-7.01Z"/><ellipse cx="1411" cy="872.26" fill="#ffb2a8" rx="31.82" ry="49.11" transform="rotate(-23.78 1410.916 872.231)"/><path fill="#f27c85" d="M1432.31 890.16c-5.13-7.86-11.64-12.26-16.16-10.27-5 2.19-5.87 11.4-2.5 21.64-8-2.16-16.32-10-21.19-21-7-15.82-4.31-32.31 5.94-36.83s24.21 4.65 31.18 20.47c4.09 9.28 4.85 18.83 2.73 25.99Z"/><ellipse cx="1756.53" cy="872.43" fill="#ffb2a8" rx="49.11" ry="31.82" transform="rotate(-66.22 1756.572 872.425)"/><path fill="#f27c85" d="M1735.19 890.16c5.13-7.86 11.64-12.26 16.17-10.27 5 2.19 5.87 11.4 2.5 21.64 8-2.16 16.31-10 21.18-21 7-15.82 4.32-32.31-5.93-36.83s-24.21 4.65-31.19 20.47c-4.09 9.28-4.86 18.83-2.73 25.99Z"/><circle cx="1517.19" cy="849.95" r="15.04" fill="#343a28"/><path fill="#343a28" d="M1547.29 813.76c-.94-10.34-25.38-16.45-45.12-8.46s-22.09 22.56-10.81 19.74 30.55-6.58 43.7-4.23 12.23-7.05 12.23-7.05Z"/><path fill="#f27c85" d="M1592.68 923.72c-6.93 0-16.76-1.24-21.52-7.57-3.56-4.74-3.59-11.12-.08-19 11.28-25.23 8.67-75.89 8.63-76.4a3.53 3.53 0 1 1 7-.38c.12 2.15 2.73 52.86-9.23 79.66-2.39 5.34-2.63 9.34-.72 11.87 4.15 5.52 17.91 5 22.4 4.35a3.53 3.53 0 0 1 1 7 61.8 61.8 0 0 1-7.48.47ZM1587 960.37c-14.74 0-26.47-11.78-27-12.29a3.53 3.53 0 0 1 5-5c.1.1 10.19 10.18 21.93 10.18h.39c5.92-.11 11.4-2.87 16.28-8.2a3.52 3.52 0 1 1 5.2 4.76c-6.25 6.83-13.44 10.36-21.39 10.5Z"/><path fill="#fff" d="M1728.41 838.67a62.51 62.51 0 0 0-124.73-2.24 33.75 33.75 0 0 0-24-3.95 37 37 0 0 0-7.58 2.49 62.52 62.52 0 0 0-124.59 3.7h-16c.08 2 .16 4.07.25 6.11h15.77a62.52 62.52 0 0 0 125-3.06v-.12c4.54-2.57 17.11-7.88 31 1.93a62.52 62.52 0 0 0 124.93 1.25h7.86q.13-3.06.25-6.11Zm-218.49 59.46a56.41 56.41 0 1 1 56.41-56.4 56.46 56.46 0 0 1-56.41 56.4Zm156 0a56.41 56.41 0 1 1 56.42-56.4 56.48 56.48 0 0 1-56.34 56.4Z"/><ellipse cx="1584.42" cy="974.75" fill="#f27c85" rx="9.4" ry="3.06"/><path fill="#6cc58d" d="M2154.91 2289.49c64.54-59.52 102.68-207.75 3.38-223.35s-104.26 153-128.71 177.39-91.1-91.42-96.86 33.73-63.2 184.25-66 184.79c0 0-92.72 35.32 58.36 36.51s321.14-109.08 308.62-168.41-143.32 18.85-78.79-40.66Zm33.27-169.55c8.53 29-22.07 66.08-32.37 42.71-21.64-49.06 23.84-71.65 32.37-42.71ZM2005 2302.69c16.65 48.48-28.14 101.27-42.9 45.24-19.43-73.66 26.22-93.72 42.9-45.24Zm170.28 55.39c.75 35.77-114.58 73.1-116.67 30.41-1.91-38.02 115.88-66.18 116.63-30.41Z"/><path fill="#3e9a83" d="M1833.25 2488.52h-.46l.1-4.23c.37 0 37.69.51 92.8-30 50.94-28.21 127.88-89.43 205.2-220.89l3.65 2.14c-34.4 58.48-71.62 108.15-110.63 147.65-31.25 31.65-63.73 56.87-96.52 75-29.24 16.15-53.33 23.53-68.4 26.89-14.59 3.23-23.64 3.44-25.74 3.44Z"/><path fill="#6cc58d" d="M1265.56 2368.83c15.51-85.72-24.17-106.11-77.6-87s11.33-82.43-26.37-115.37-66.63 28.24-116.46-54.34-190.84 4.54-98.05 125.61c85.53 111.59 3.24 67.62 38.76 146.21s181.93 128.86 293.4 127.11c0 .03-29.19-56.5-13.68-142.22Zm-319.49-227.06c1.6-38.23 52.65-24.45 59.46 9.51s-60.98 26.72-59.46-9.51Zm125.19 65.23c-16.44-31.83 56.56-45.28 58.73 3.74s-44.14 24.52-58.73-3.74Zm-7.49 204.09c-32.57-41.46 50.88-41.23 77.75 7s-48.2 30.64-77.75-7Zm116-51.39c-24.5-35.65 48-68.09 50.85-21.35s-24.24 60.05-50.84 21.35Z"/><path fill="#3e9a83" d="M1297.18 2530.52c-.43-.28-44.32-28.15-94.4-74.95-29.42-27.5-55.2-56.07-76.62-84.92-26.81-36.11-46.86-72.77-59.56-109l4.43-1.56c28.43 81 89.06 149.07 134.9 191.94 49.76 46.53 93.34 74.21 93.77 74.48ZM2133.77 2507.65l-4-5.83c.61-.42 62.24-42.59 131.48-105.12 63.75-57.58 147.23-144.7 182.66-232.7l6.54 2.63c-15.9 39.47-42.47 82-79 126.33-29.14 35.4-64.64 72.07-105.54 109-69.56 62.88-131.53 105.27-132.14 105.69Z"/><path fill="#6cc58d" d="M2348.61 2317s-47.14-115.4 6.45-136.08-6.45 136.08-6.45 136.08Z"/><path fill="#abdda8" d="M2362.1 2302.62s145.71-116.57 161.69-61.58-161.69 61.58-161.69 61.58Z"/><path fill="#3e9a83" d="M2242.54 2418.48s-20-125.74 30.72-126.21-30.72 126.21-30.72 126.21Z"/><path fill="#6cc58d" d="M2257.05 2408.51s114.46-63.12 134.2-18.94-134.2 18.94-134.2 18.94Z"/><path fill="#3e9a83" d="M2413.87 2229s22-170.36 67.15-146.85-9.73 114.64-67.15 146.85ZM2329 2335.76l-1.12-1.56c-7.6-10.73-50.5-73.64-19.57-83.52 33.81-10.81 38.05 49.32 20.69 85.08Z"/><path fill="#abdda8" d="M2271.14 2391.22s-20.21-46.53 6.12-52.64-6.12 52.64-6.12 52.64Z"/><path fill="#3e9a83" d="M2304.52 2359.26s80.85-63 92.6-20.68-92.6 20.68-92.6 20.68Z"/><path fill="#abdda8" d="M2292.77 2374.3c-1.52-.76 33.43-29.48 45.62-10.27s-16.49 24.84-45.62 10.27Z"/><path fill="#3e9a83" d="M2388.65 2262.9s-28.66-76.62 4.23-83.67-4.23 83.67-4.23 83.67ZM2348.37 2313.26s69.43-49.89 81.18-24-81.18 24-81.18 24Z"/><path fill="#6cc58d" d="M2400.42 2250.65c8.06-8.09 64.63-63.18 79.89-29.58 16.46 36.19-80.51 30.2-79.89 29.58ZM2241.54 2420.83s90.72-22.09 87 20.68-87-20.68-87-20.68Z"/><path fill="#3e9a83" d="M1043.31 2527.44c-.55-.13-55.76-13.08-121.08-54.81a473.75 473.75 0 0 1-102.09-87.69c-36.72-42.11-65.76-90.89-86.27-145l6.59-2.5c45.75 120.63 126 191.16 185.32 229.09 64.34 41.16 118.57 53.91 119.11 54Z"/><path fill="#3e9a83" d="M774.74 2317.12s-120.78-88.77-79.87-125 86.88 42.21 79.87 125Z"/><path fill="#6cc58d" d="M822.78 2381.49s-63-163.47-4.77-157.83 4.77 157.83 4.77 157.83ZM829.13 2389.64S744.21 2288 713.2 2353.38s115.93 36.26 115.93 36.26Z"/><path fill="#3e9a83" d="M875.36 2433.16s-94-36.53-95.9 3.42 95.9-3.42 95.9-3.42ZM902.56 2456.73s-72.79-114.15-19.2-115.09 19.2 115.09 19.2 115.09Z"/><path fill="#abdda8" d="M774.54 2317s-87 12.22-78.5-29.61 65.81-.52 78.5 29.61ZM915.55 2461.73s36.19-66.75 70-37.13-70 37.13-70 37.13ZM872 2433.46s-86.23 25.92-49.1 57.41 49.1-57.41 49.1-57.41Z"/><path fill="#6cc58d" d="M902.39 2444.81s-5.64-89.31 38.54-66.75-38.54 66.75-38.54 66.75Z"/><path fill="#3e9a83" d="M824.29 2383.9s-19.67-80.11 20.75-64.6-20.75 64.6-20.75 64.6Z"/><path fill="#6cc58d" d="M906.62 2458.91s-75.68-8-64.87 30.08 64.87-30.08 64.87-30.08Z"/><path fill="#dfe9f4" d="M2402.76 2564.2h-1891a47 47 0 0 1-47-47h1985a47 47 0 0 1-47 47ZM997.52 2625.77H530.4a38.36 38.36 0 0 1-38.4-38.36v-8.64h543.84v8.64a38.36 38.36 0 0 1-38.32 38.36ZM1420.37 2705.68H970.54a47 47 0 0 1-47-47h543.84a47 47 0 0 1-47.01 47ZM2149.4 2705.68h-449.83a47 47 0 0 1-47-47h543.84a47 47 0 0 1-47.01 47ZM2108.69 2625.77h-798.5a38.37 38.37 0 0 1-38.36-38.36v-8.64h875.23v8.64a38.37 38.37 0 0 1-38.37 38.36Z"/><path fill="#92b1dd" d="M2451.17 2503.56H447.39a10.81 10.81 0 0 0-10.81 10.81 10.81 10.81 0 0 0 10.81 10.81h2003.79a10.81 10.81 0 0 0 10.81-10.81 10.82 10.82 0 0 0-10.82-10.81ZM1063.13 2596.83H484.51a19 19 0 0 1 0-38h578.62a19 19 0 0 1 0 38ZM2157.87 2589.78h-901.08a19 19 0 0 1 0-38h901.08a19 19 0 0 1 0 38ZM1490.88 2680.5H894.4a19 19 0 0 1 0-38h596.48a19 19 0 0 1 0 38ZM2197.82 2680.5h-554.65a19 19 0 0 1 0-38h554.65a19 19 0 0 1 0 38Z"/><ellipse cx="2336.49" cy="2606.97" fill="#dfe9f4" rx="140.54" ry="19.74"/><ellipse cx="2303.11" cy="2679.36" fill="#dfe9f4" rx="67.22" ry="12.69"/><ellipse cx="1566.08" cy="2664.08" fill="#dfe9f4" rx="46.06" ry="13.4"/><ellipse cx="1170.07" cy="2612.38" fill="#dfe9f4" rx="96.12" ry="14.34"/><ellipse cx="700.27" cy="2670.43" fill="#dfe9f4" rx="166.86" ry="19.74"/></svg>