<svg xmlns="http://www.w3.org/2000/svg" xmlns:xlink="http://www.w3.org/1999/xlink" viewBox="0 0 4680 3120"><defs><linearGradient id="b" x1="17930.58" x2="18009" y1="-907.67" y2="-907.67" gradientTransform="rotate(-165 10108.434 1185.32)" gradientUnits="userSpaceOnUse"><stop offset="0" stop-color="#231e5d"/><stop offset="1" stop-color="#2c327e"/></linearGradient><linearGradient id="a" x1="22930.23" x2="22672.75" y1="2088.7" y2="2979.98" gradientTransform="matrix(-1 0 0 1 25755.25 0)" gradientUnits="userSpaceOnUse"><stop offset="0" stop-color="#fff"/><stop offset="1" stop-color="#eee"/></linearGradient><linearGradient id="c" x1="22905.35" x2="22762.44" y1="2212.07" y2="2706.75" xlink:href="#a"/></defs><g data-name="7"><rect width="4680" height="3120" fill="#fff" data-name="7" opacity="0"/><path fill="#ede3cc" d="M3837.89,1626.58c-50.7,124-181.75,233.69-133.51,366.89,25.45,70.29,19.62,247.91-91.66,397.75-126.51,170.35-389.35,304.78-897.49,204.7-285.53-56.25-576.63-71.26-865.63-43l-202.73,19.82-5.79.57-3.24.31-5.53.55-7.62.75-7.6.73-7.33.72-5.8.57-1.24.12-8.44.82-9.49.93-5.25.51-16.28,1.59-4.66.46-6.08.6-4.7.46-21.56,2.1-1.92.19-5.67.55-.88.09-22,2.16c-191,18.68-370-59.05-495.62-196.3C901.42,2283.38,835.69,2138.78,823,1975.29q-1.37-17.76-1.83-35.11c-6.26-247.45,248.15-572.78,283-679,34.36-104.73-74.48-299.38-63.78-409.89C1064,607.45,1262.15,423.66,1503.83,375c213.15-42.9,443,10.17,643.47,108.8,147.29,72.44,289.8,171.28,451.57,185.7,110.92,9.88,218.36-21.52,326.69-39.26,258.62-42.32,553.72,3.82,748.79,186.94,125.21,117.51,197.49,282,212.51,446.1C3897.87,1383.52,3883,1516.23,3837.89,1626.58Z"/><path fill="#3f8b83" d="M1131.39,2190.91c-.38-1.58-6.52-204.95-138.81-383.61l6.89-5.11c117.28,136.92,139.89,385.14,140.28,386.74Z"/><path fill="#3f8b83" d="M1078.93,1947s-65.21-70.25-118.89-118.37S846.06,1884.17,1078.93,1947Z"/><path fill="#3f8b83" d="M1094.54,1996.07s-.78-81.33-13.34-131.84,21.59-75.6,50.38-25.63S1094.54,1996.07,1094.54,1996.07Z"/><path fill="#3f8b83" d="M1007.12,1820.24s-50.3-134.1-81.61-145.62-41.4,35.76-10.35,74.12S1007.12,1820.24,1007.12,1820.24Z"/><path fill="#3ecaa1" d="M909.64,2338.1s-50.17-40.4-102.16-68.19-83.14-54.82-83.14-54.82l25.38,102.07-51.82-79.63s-60.7-28.38-139.35-35.42-133.15-40.83-133.15-40.83,67.92,190.09,164,251.44c0,0,88.94-6.81,113.45,9,0,0-76.88,6.55-112,28.4a1106.36,1106.36,0,0,1,102.71,59.19c52.87,34.58,172.94,27,254.78,19.24s181.55-23.62,181.55-23.62-13.94-39.64-76.3-81.91S909.64,2338.1,909.64,2338.1Z"/><path fill="#2a926e" d="M1077.37,2500.22c-82.17-2.92-179.24-53.68-264.89-98.47-32.87-17.19-63.91-33.42-92.69-46.35-104.56-47-294.53-190-296.44-191.4l4.1-5.43c1.9,1.43,191.27,143.95,295.14,190.62,28.95,13,60.09,29.28,93,46.52,85,44.45,181.35,94.84,262,97.7Z"/><path fill="#2a926e" d="M640.37,2312.24c-.36-.07-36.36-7-67.51-5.94-32,1.1-83.91-9.45-86.1-9.9l1.37-6.68c.53.11,53.34,10.84,84.49,9.76,32-1.1,67.56,5.77,69.06,6.07Z"/><path fill="#2a926e" d="M709.15,2483.05a403.75,403.75,0,0,1-58.48,3.24l.21-6.81c.7,0,70.82,1.92,116.82-18.19,18.25-8,32.51-16.47,45.09-24,19.87-11.85,34.23-20.38,49.49-17.3l-1.36,6.68c-12.7-2.6-26.09,5.41-44.64,16.47-12.13,7.23-27.21,16.22-45.85,24.37C751.62,2475.76,729.36,2480.42,709.15,2483.05Z"/><path fill="#2a926e" d="M877.32,2435.07c-16.57-8-19.44-23.53-23.4-45-2.46-13.3-5.25-28.38-11.9-45.85-17.1-45-30.16-68.47-30.29-68.71l5.94-3.33c.13.23,13.42,24.07,30.72,69.62,6.87,18,9.84,34.12,12.23,47,3.74,20.21,6.21,33.56,19.67,40.09Z"/><path fill="#2a926e" d="M700.22,2345.74c-10-11.37-17-25.59-25.75-43.6-3-6.17-6.25-12.81-9.93-20-14.15-27.58-33.74-64.75-33.93-65.12l6-3.18c.19.37,19.8,37.58,34,65.19,3.69,7.2,6.95,13.88,10,20.09,8.56,17.54,15.32,31.39,24.74,42.08Z"/><path fill="#2a926e" d="M884.7,2525.09l-3.36-5.93c.34-.2,34.95-19.89,54.27-32.91,5.44-3.67,9.64-6.87,13-9.45,9-6.88,14-10.67,23-7.4l-2.31,6.41c-5.35-1.93-7.67-.4-16.6,6.41-3.45,2.63-7.74,5.9-13.34,9.68C919.88,2505.07,885.06,2524.89,884.7,2525.09Z"/><path fill="#2a926e" d="M1201.06,2499.31s64.84-13.74,82.94-20.77c24.26-9.42-21.74-174.79-43-236.78-31.59-92.28-104.79-26.34-122.94-72.55s-10.55-178.44-72.86-218.61-50,38.44-165-94.53-117.06-34.6-173.53-58.54S533.1,1684.62,509.3,1736.4,664,1956,730.3,2009.29s44,68.62,6.87,91.21,36.94,127.84,158.8,173.81,96,66.71,79.6,104.06S1038.19,2511.75,1201.06,2499.31Z"/><path fill="#19554f" d="M1187.44,2431.18l8.36-3.55c-89.1-210.15-250.61-375.33-370.41-476.9-129.75-110-240-171.18-241.06-171.79l-4.38,8c1.09.61,110.65,61.46,239.72,170.9C938.66,2058.7,1099.06,2222.73,1187.44,2431.18Z"/><path fill="#19554f" d="M1031,2172.2l2.71-8.68c-109.28-34.15-207.76-32.3-208.75-32.27l.21,9.08C826.13,2140.3,923.2,2138.51,1031,2172.2Z"/><path fill="#19554f" d="M878.68,2010.08l7.21-5.53c-74.48-97-73-183.46-72.94-184.33l-9.08-.26C803.77,1823.6,802.11,1910.32,878.68,2010.08Z"/><path fill="#19554f" d="M1011.75,2149.7l8.16-4c-42.74-87.34-32-155.85-31.93-156.54l-9-1.48C978.53,1990.58,967.74,2059.77,1011.75,2149.7Z"/><path fill="#19554f" d="M807.22,1946.84l2.5-8.73c-2.4-.69-58.93-16.69-108.28-10.27l-1.19.16,1.24,9,1.1-.15C750.12,1930.67,806.65,1946.68,807.22,1946.84Z"/><path fill="#19554f" d="M3707.81,2067.39l-6.14-2c22.88-71.75,75.09-169.85,155.19-291.56,70.92-107.77,138.62-195.26,139.29-196.13l5.1,4c-.68.87-68.23,88.17-139,195.72C3782.47,1898.64,3730.51,1996.2,3707.81,2067.39Z"/><path fill="#19554f" d="M3972.7,1717c-15-33.29-120.59,70-120.59,70s60.26-24.14,90.51-31.41S3977.17,1726.85,3972.7,1717Z"/><path fill="#19554f" d="M3907.06,1700.54s6.87-124.16,40.92-146,42.92,13.69,12.12,59.14S3907.06,1700.54,3907.06,1700.54Z"/><path fill="#19554f" d="M3815.55,1845.07s-19.2-122.86,9.53-151.35,44.83,4.42,24.2,55.31S3815.55,1845.07,3815.55,1845.07Z"/><path fill="#19554f" d="M3943.32,1658s48.24-58.64,92.8-64.23,36.59,29.5-6.66,41.87S3953.07,1649.76,3943.32,1658Z"/><path fill="#19554f" d="M3990.06,1596s26.32-93.14,57-109.6,37.55,25.51-2.31,57.65S3990.06,1596,3990.06,1596Z"/><path fill="#3ecaa1" d="M3461.65,2526.69s69.43-192.31,232.19-253.81l-42.2,87.41,80-97.83s54.74-29.37,124.56-36,86.33-4.8,86.33-4.8L3892,2283.39l111.52-64.71s141-.43,253.15,44.5c0,0-71.56,11.74-117.8,66.38s-114.7,71.24-114.7,71.24-38-22.48-99.51-23.48c0,0,55.36,24.59,65.48,42.32,0,0-51.71,23.27-78.6,40.74s-88.72,41.1-88.72,41.1l-82.46-38.61,51.19,50.77s-43,33.87-124,20.49S3461.65,2526.69,3461.65,2526.69Z"/><path fill="#2a926e" d="M3650.27,2399.83a3.17,3.17,0,0,1-1.26-6.08c2.93-1.26,295.32-126.43,566.11-134.8a3.23,3.23,0,0,1,3.27,3.07,3.18,3.18,0,0,1-3.07,3.27c-269.56,8.33-560.88,133-563.79,134.28A3.13,3.13,0,0,1,3650.27,2399.83Z"/><path fill="#2a926e" d="M3955.91,2439.11a3,3,0,0,1-.42,0c-.62-.08-15.79-2.29-65-26.9-48.49-24.24-139.82-50.35-140.73-50.61a3.17,3.17,0,1,1,1.73-6.1c.92.26,92.82,26.53,141.83,51,47.78,23.9,62.88,26.28,63,26.3a3.17,3.17,0,0,1-.43,6.31Z"/><path fill="#2a926e" d="M4129.63,2340.45c-10.88,0-56-.84-88.49-14.11-35.45-14.48-87.9-22.26-88.42-22.34a3.17,3.17,0,1,1,.91-6.27c.54.07,53.75,8,89.91,22.74,35.22,14.38,87.81,13.62,88.35,13.62a3.17,3.17,0,1,1,.1,6.34C4131.76,2340.44,4130.94,2340.45,4129.63,2340.45Z"/><path fill="#2a926e" d="M3720.71,2524.51a3.11,3.11,0,0,1-1.76-.54l-77.49-52.12a3.17,3.17,0,0,1,3.54-5.26l77.49,52.12a3.17,3.17,0,0,1-1.78,5.8Z"/><path fill="#2a926e" d="M3932.75,2307.45a3.16,3.16,0,0,1-2.26-5.39,282.08,282.08,0,0,1,40-32.72c21.69-14.47,60.49-51.64,60.88-52a3.17,3.17,0,0,1,4.39,4.58c-1.61,1.54-39.59,37.93-61.76,52.72a280.33,280.33,0,0,0-38.94,31.89A3.16,3.16,0,0,1,3932.75,2307.45Z"/><path fill="#2a926e" d="M3732.09,2368.21a3.12,3.12,0,0,1-1.19-.24,3.16,3.16,0,0,1-1.75-4.09c.15-.37,3.9-9.37,30.31-42.12,26-32.21,63.82-95.16,64.2-95.79a3.17,3.17,0,1,1,5.44,3.26c-.38.64-38.46,64-64.71,96.51-25.38,31.47-29.22,40.17-29.36,40.53A3.2,3.2,0,0,1,3732.09,2368.21Z"/><path fill="#2a926e" d="M3492.15,2544.71s-85.86-143.88-67.8-232.81,93.51-36.87,104.7-81.69-11.68-165.88,41-210.42,50.73,29.46,140.86-107,103.84-46,153.06-74.83,146.62-125,174.79-80.1S3922.39,1979,3867.62,2036.13s-32.32,68.58,4.61,85-18.73,122.38-125.63,179.42-80.57,73.06-60.94,105.56S3643.9,2536.63,3492.15,2544.71Z"/><path fill="#19554f" d="M3496.53,2480.21l-8.14-2.27c57-204.57,186.15-376.34,284.48-484.42,106.49-117,200.82-186.72,201.76-187.42l5,6.82c-.94.69-94.71,70-200.64,186.44C3681.33,2106.73,3553.05,2277.31,3496.53,2480.21Z"/><path fill="#19554f" d="M3609.77,2222.51l-3.54-7.67c96.72-44.63,187.8-54.75,188.71-54.84l.9,8.4C3794.94,2168.5,3705.17,2178.49,3609.77,2222.51Z"/><path fill="#19554f" d="M3730.83,2054.67l-7.32-4.23c57.06-98.46,45.28-178,45.16-178.81l8.35-1.33C3777.55,1873.64,3789.49,1953.45,3730.83,2054.67Z"/><path fill="#19554f" d="M3624.82,2199.45l-8-2.71c28.94-85.7,10.85-147.63,10.67-148.25l8.09-2.44C3636.37,2048.67,3654.63,2111.2,3624.82,2199.45Z"/><path fill="#19554f" d="M3789.16,1987.75l-3.36-7.76c2.13-.92,52.36-22.46,98.66-22.46h1.12l-.06,8.45h-1C3839.9,1966,3789.67,1987.53,3789.16,1987.75Z"/><ellipse cx="2325.75" cy="2584.62" fill="#9f845a" rx="1382.48" ry="175.38"/><path fill="#a1cef7" d="M3680.85,2234a266.84,266.84,0,0,1-1.68,30c-11,97.68-76.32,183.41-196,183.41H2414.22c107.48,0,171.15-69.08,191-153.87A262.24,262.24,0,0,0,2612,2234a288.52,288.52,0,0,0-4.94-54,238.77,238.77,0,0,0-12.62-43.82h-.06c-25.27-63.38-78.16-108.35-160.88-108.35H3502.43C3623.62,2027.86,3680.85,2124.57,3680.85,2234Z"/><path fill="#d8dee8" d="M3679.17,2264c-11,97.68-76.32,183.41-196,183.41H2414.22c107.48,0,171.15-69.08,191-153.87A262.24,262.24,0,0,0,2612,2234a288.52,288.52,0,0,0-4.94-54c55.9,16.46,185.92,56.95,249.07,94.37C3023.67,2373.69,3474.6,2345.81,3679.17,2264Z"/><path fill="#299ef7" d="M2401.8,2293.51h203.41A262.33,262.33,0,0,0,2612,2234c0-34.75-5.78-68.23-17.56-97.78h-115C2515.71,2223.64,2468.18,2292,2401.8,2293.51Z"/><path fill="#7ab7f9" d="M2433.49,2027.86c-170.65,0-174.22,227.75-65.45,260.94a109.71,109.71,0,0,0,27.55,4.71h6.21c66.38-1.5,113.91-69.87,77.66-157.31h114.9C2569.1,2072.83,2516.21,2027.86,2433.49,2027.86Z"/><path fill="#bedefc" d="M1213.54,905.69c0,109.34,57.24,206.12,178.5,206.12,80.15,0,123.47-50.32,135.53-107.13L1346,1003.39c-36.61-88.35,12.42-157.3,79.87-157.37h181.64c-50.46-84.08-115.62-147.6-196.27-153.74C1279.77,682.22,1213.54,796.27,1213.54,905.69Z"/><path fill="#adb1be" d="M1425.87,846c-67.45.07-116.48,69-79.87,157.37l181.57,1.29c13.63-64-12.49-136.25-70.16-153.81a107.65,107.65,0,0,0-31.47-4.85Z"/><path fill="#73b4f9" d="M1527.57,1004.68c-12.06,56.81-55.38,107.13-135.53,107.13h321.74c-.79-3-1.64-6-2.43-9C1688.73,1019,1654.4,923.74,1607.51,846H1425.94a107.65,107.65,0,0,1,31.47,4.85C1515.08,868.43,1541.2,940.66,1527.57,1004.68Z"/><path fill="#fff" d="M2397.92,2293.51a109.71,109.71,0,0,1-27.55-4.71c-108.77-33.19-105.2-260.94,65.45-260.94h622.72c-107.63-256.44-187.5-597.17-275.93-925-45.67-169.22-139.1-385.12-286.2-408.89a140.16,140.16,0,0,0-22.55-1.64H1413.56c80.65,6.14,145.81,69.66,196.27,153.74,46.9,77.72,81.23,172.93,103.85,256.79.79,3,1.64,6,2.43,9,173.57,644.77,315.1,1335.57,700.44,1335.57,107.48,0,171.15-69.08,191-153.87H2404.13A46,46,0,0,1,2397.92,2293.51Z"/><path fill="#002c6b" d="M2541,1979.44c-8.23-28.74-6.86-60.69,2.79-92.1a215.3,215.3,0,0,1,20.75-46.44c2.35-3.74,4.6-7.52,7.07-11.22s5.07-7.38,7.78-11,5.58-7.18,8.54-10.69l4.58-5.21,2.29-2.6,1.15-1.3c.42-.46,1-1.06,1.51-1.56,8.39-8.31,22.79-14.31,35.59-10.68a21.76,21.76,0,0,1,7.73,4,21.52,21.52,0,0,1,2.73,2.65,23.13,23.13,0,0,1,2.15,2.82,36.93,36.93,0,0,1,4.84,11.78c.49,2,.83,4,1.12,5.94l.72,5.59c.51,3.72.87,7.47,1.25,11.21.76,7.5,1.24,15,1.6,22.63a433.49,433.49,0,0,1-6.13,92.24l-2.16,11.64c-.83,3.88-1.6,7.75-2.49,11.63l-1.36,5.82-.68,2.91-.81,3.07a77.1,77.1,0,0,1-4.63,12.45,56.77,56.77,0,0,1-8,12.53,41.2,41.2,0,0,1-14.43,10.92,31.43,31.43,0,0,1-4.64,1.71,35.07,35.07,0,0,1-4.74,1.06,32,32,0,0,1-9.34.24,28.3,28.3,0,0,1-14.76-6.1,27.77,27.77,0,0,1-7.89-10.81,40.71,40.71,0,0,1-2.77-12.1,88.45,88.45,0,0,1-.16-11.83l.21-5.85.53-5.88a188.78,188.78,0,0,1,11-47.16A227.55,227.55,0,0,1,2605,1874l1.78-2.78,1.92-2.73,3.84-5.45c1.34-1.8,2.74-3.57,4.1-5.36s2.71-3.57,4.21-5.3c2.92-3.48,5.78-7,9-10.35l2.31-2.54,1.16-1.27c.21-.23.36-.4.62-.66l.78-.79a30.34,30.34,0,0,1,7.47-5.26c5.54-2.82,12.28-4,18-2.65a13.25,13.25,0,0,1,10.64,10.38,31.55,31.55,0,0,1,.8,6.15l.18,5.68.33,11.24c.49,15,.77,30,1.16,45v0l-7.88,2a27.41,27.41,0,0,1,.13-14.94,25.84,25.84,0,0,1,3.91-7.75,29,29,0,0,1,7-6.68,30.68,30.68,0,0,1,9.35-4.29,23.65,23.65,0,0,1,5.21-.81,22.36,22.36,0,0,1,2.59,0l1.8.13a18.72,18.72,0,0,0,12.22-4.19,14.27,14.27,0,0,0,2.18-2.22,13.06,13.06,0,0,0,.86-1.24l.39-.65.46-.83,3.67-6.63,7.32-13.28,7.33-13.28,3.66-6.63a12.54,12.54,0,0,1,4.45-4.53,14,14,0,0,1,6.45-2,10.85,10.85,0,0,1,5.89,1.28,6.66,6.66,0,0,1,3.26,4.21,4.78,4.78,0,0,1,.18,1.29,11.33,11.33,0,0,1,0,1.15l-.09,1.66-.1,3.33a110,110,0,0,0,2.59,26c.12.51.23,1.07.37,1.55l.43,1.23a3.72,3.72,0,0,0,.58,1.14,5.1,5.1,0,0,0,.71,1.07,10,10,0,0,0,4.45,3,14.61,14.61,0,0,0,6.12.72,20.41,20.41,0,0,0,3.26-.5,19.94,19.94,0,0,0,3.11-1.14,15.79,15.79,0,0,0,5.21-3.73l.56-.56.45-.63.93-1.26,2-3.24q7.86-13,14.39-26.28a306.28,306.28,0,0,0,20.48-54l1.75-6.81.8-3.41.4-1.71.1-.42s0,0,0,0,0,0,0,.08c.08.22.22.22.18.21a.36.36,0,0,0,.19,0c.1-.07.25-.15.24-.17h0l-.24.39-.46.79q-.47.79-.9,1.59c-.59,1.06-1.14,2.13-1.69,3.2a83.66,83.66,0,0,0-5.23,13.09c-.66,2.21-1.23,4.42-1.69,6.63-.23,1.1-.44,2.21-.61,3.31l-.25,1.66-.11.82v.71a10.51,10.51,0,0,0,4.19,9.49,17.15,17.15,0,0,0,11.91,2.93,22.4,22.4,0,0,0,6.63-1.65,22.72,22.72,0,0,0,5.76-3.69l1.29-1.13,1.38-1.42c.92-1,1.87-1.9,2.75-2.87,1.82-1.93,3.59-3.88,5.33-5.85a204,204,0,0,0,33-50.62h0a5,5,0,0,1,5.16-2.62,2.69,2.69,0,0,1,2.26,3.86,211.47,211.47,0,0,1-34.28,52.59c-1.81,2-3.64,4.07-5.53,6.07-.92,1-1.9,2-2.86,3l-1.44,1.48-1.8,1.61a31.6,31.6,0,0,1-18.22,7.83,24.86,24.86,0,0,1-17.28-4.27,15.49,15.49,0,0,1-6.22-13.9l0-1,.13-.89.26-1.78c.19-1.19.42-2.39.66-3.58.5-2.38,1.11-4.77,1.83-7.15a89.27,89.27,0,0,1,5.65-14.14c.59-1.16,1.18-2.32,1.83-3.47.31-.57.63-1.15,1-1.72l.5-.85.25-.43c.17-.26.36-.53.56-.79a9,9,0,0,1,3.47-2.71,10.12,10.12,0,0,1,4.28-.87c2.67,0,5.21,1.41,5.89,3.78a4.84,4.84,0,0,1,.17,1.73c0,.27-.07.59-.12.83l-.1.44-.41,1.74-.81,3.48-1.79,7a312.69,312.69,0,0,1-20.93,55.16q-6.66,13.59-14.7,26.85l-2,3.32-1.37,1.91-.71.95-.86.89a25.87,25.87,0,0,1-8.32,6,31.1,31.1,0,0,1-4.92,1.78,29.73,29.73,0,0,1-5.06.8,23,23,0,0,1-9.53-1.14,15.92,15.92,0,0,1-7.14-4.81,9.94,9.94,0,0,1-1.14-1.68,7.16,7.16,0,0,1-.9-1.79l-.65-1.88-.39-1.67a113,113,0,0,1-2.16-13.42,118.66,118.66,0,0,1-.55-13.76l.11-3.48.09-1.75a3.79,3.79,0,0,0,0-.54.7.7,0,0,0-.05-.36,1.51,1.51,0,0,0-.73-1,3,3,0,0,0-1.6-.32,3.16,3.16,0,0,0-2.73,1.66l-3.66,6.64-7.33,13.27-7.33,13.28-3.66,6.64-.46.83-.59,1a22.38,22.38,0,0,1-1.37,2,24,24,0,0,1-3.49,3.57,29.2,29.2,0,0,1-19.07,6.59l-2.23-.15a12.15,12.15,0,0,0-1.48,0,13.57,13.57,0,0,0-3.09.48,20.14,20.14,0,0,0-6.09,2.82,18.67,18.67,0,0,0-7.59,10.11,22.12,22.12,0,0,0,0,12l-7.88,2v0c-1-14.9-2.1-29.78-3-44.69l-.7-11.18-.35-5.54a25,25,0,0,0-.78-4.82,7.63,7.63,0,0,0-1.81-3.41,5.72,5.72,0,0,0-3-1.53,13.8,13.8,0,0,0-8.93,1.59,16.06,16.06,0,0,0-3.86,2.86l-.41.42-.51.59-1.07,1.23-2.14,2.46c-2.92,3.24-5.55,6.62-8.23,10-1.38,1.66-2.59,3.39-3.86,5.1s-2.53,3.42-3.75,5.15l-3.5,5.24-1.76,2.61-1.64,2.66a212.73,212.73,0,0,0-21.1,43.58,176,176,0,0,0-9.55,44.55l-.39,5.53-.09,5.49a81,81,0,0,0,.34,10.67c.68,6.77,2.95,12.61,7.53,16.28a15.09,15.09,0,0,0,7.83,3.14,13.67,13.67,0,0,0,4.32-.19,16.09,16.09,0,0,0,4.19-1.29,21.62,21.62,0,0,0,7.41-5.85,41.58,41.58,0,0,0,5.66-9.11,64.67,64.67,0,0,0,3.73-10.33l.67-2.67.64-2.84,1.27-5.67c.82-3.78,1.54-7.56,2.31-11.34l2-11.33a440.65,440.65,0,0,0,5.45-89.79c-.38-7.37-.87-14.71-1.63-22-.39-3.65-.75-7.3-1.26-10.91l-.72-5.43a49.26,49.26,0,0,0-.94-4.92,27,27,0,0,0-3.44-8.47,10.25,10.25,0,0,0-5.46-4.47,9.54,9.54,0,0,0-3.36-.38,16.83,16.83,0,0,0-4.12.79,20.34,20.34,0,0,0-7.74,4.71c-.3.28-.51.5-.85.86l-1.07,1.21-2.15,2.41-4.29,4.82c-2.8,3.25-5.33,6.62-8.06,9.91s-5,6.78-7.49,10.17-4.56,7-6.85,10.42a225,225,0,0,0-20.93,43.42c-10.48,29.58-13.67,60-9,88.68.29,1.73-1.25,3.59-3.43,4.16S2541.47,1981,2541,1979.44Z"/><path fill="#acd1ff" d="M2421.18,846H1947.45S2161.58,900.05,2421.18,846Z"/><path fill="#acd1ff" d="M2540,960.07H1884.26S2260.54,1009.4,2540,960.07Z"/><path fill="#acd1ff" d="M2680.81,1064.15H1819C2315.49,1098.11,2329,1122.48,2680.81,1064.15Z"/><path fill="#acd1ff" d="M2708.61,1178.2H1846.8S2326.62,1219.65,2708.61,1178.2Z"/><path fill="#acd1ff" d="M2746.39,1282.28H1884.58C2392.34,1337.32,2391,1338.7,2746.39,1282.28Z"/><path fill="#acd1ff" d="M2779.18,1391.34H1917.37C2385.4,1446,2384.11,1447.27,2779.18,1391.34Z"/><path fill="#acd1ff" d="M2812,1500.41H1950.17C2511.76,1551.91,2510.52,1553.32,2812,1500.41Z"/><path fill="#acd1ff" d="M2839.78,1614.46H1978S2556.46,1654.55,2839.78,1614.46Z"/><path fill="#acd1ff" d="M2065.27,1718.54h762.78C2503.05,1775.89,2504.52,1774.34,2065.27,1718.54Z"/><path fill="#ef7c59" d="M2929.26,957c-4.26-5-53.23-89.43-56.07-88.72s-36.9,100.78-25.55,122.78,46.85,48.26,46.85,48.26Z"/><path fill="#003d82" d="M3244.79,2588.19c-67.6,7.52-143.77,30.37-211.26,12.18a23.89,23.89,0,0,0-1.1,8.34c1,12.31,10.26,14.37,22.57,16.41,41,8.21,82.07,3.08,122.08-9.23,39-12.31,80,2.06,121.05-4.1a190.69,190.69,0,0,0-.25-21.68C3280.49,2586.28,3259.45,2586.65,3244.79,2588.19Z"/><path d="M3244.79,2588.19c14.66-1.54,35.7-1.91,53.09,1.92-.8-12.79-2.53-25.3-3.85-37.82-1-14.36,1-35.91-5.13-47.2l-103.61-18.46c-4.11,28.73-47.19,57.45-71.82,66.68-19.48,8.22-51.29,3.08-65.65,18.47-4.62,4.63-11.55,18.49-14.29,28.59C3101,2618.56,3177.19,2595.71,3244.79,2588.19Z"/><path fill="#003d82" d="M3442.78,2590.25c-11.23,0-23.18-1.49-34-5.63.35,2,.73,3.87,1.21,5.63,5.12,15.39,16.41,14.36,32.82,15.39a64.12,64.12,0,0,0,.5,8C3442.75,2605.89,3442.12,2598.29,3442.78,2590.25Z"/><path d="M3590.19,2604.18c-3.41-26.68-13.79-34.67-38.66-41.63-23.59-7.18-28.73-35.91-40-57.46-4.11-9.23-10.26-23.58-19.49-28.72-7.18-4.1-17.44-2-25.65-5.13l-58.47,38c-9.24,8.2-3.08,29.74-2.06,41,.87,10.4,1,23.69,2.9,34.38,10.85,4.14,22.8,5.63,34,5.63-.66,8,0,15.64.5,23.37.11.94.28,1.78.44,2.64C3491.68,2631.12,3544.78,2623.26,3590.19,2604.18Z"/><path fill="#003d82" d="M3590.19,2604.18c-45.41,19.08-98.51,26.94-146.47,12.08,3.67,20.32,18.89,21.45,41.13,23.23,21.54,2.06,48.21,0,69.76-3.08,24.62-4.1,38-2,35.9-29.75C3590.42,2605.79,3590.29,2605,3590.19,2604.18Z"/><path fill="#002c6b" d="M3565.6,1718.8c-1.54,35.39-32.35,495.47-32.35,572.42,0,36.93,6,82.57,1.35,119.5-1.54,13.85-10.77,32.31-10.77,46.17,0,16.92,9.23,26.16,6.16,46.16-1.54,9.24-1.54,18.47-7.7,27.7-20-40-94.57-38.15-119.2-2.75,0-15.39-1.34-32.65-1.34-46.49,0-21.54-11.8-26.16-16.41-47.71-4.62-13.85,3.08-32.32,1.53-47.7a283,283,0,0,0-4.61-50.78c-10.78-72.32-23.2-589.5-39.25-582-6.64,61.65-6.91,223.4-10,298.8-4.62,72.33-6.16,144.65-9.24,217a1170.14,1170.14,0,0,1-13.85,147.73c-1.54,12.32,0,21.55,0,32.32,0,4.62,3.08,10.78,3.08,16.93,0,4.62-9.24,9.23-9.24,15.39,0,10.77,9.24,20,7.7,33.85-1.54,12.31-9.23,21.54-16.92,30.78-2,.9-14.29-7.31-16.08-8.21-20.26-10.23-40.75-19.93-62-28-3.8-1.44-7.68-2.66-11.57-3.84-4.25-1.29-9-2.79-13.32-2.94-2.63-.1-13.34,4-13.95,3-14.87-25.64-6.15-36.94,3.08-52.32-30.77-21.54-1.54-53.86-1.54-86.18,0-38.47-3.07-76.94-6.15-115.41-7.69-81.56-4.62-164.66-9.24-246.21-4.61-66.17-24.36-331.76-23.51-395.32.24-16.57,2.92-81.63,5.15-95.31,33.85,0,33.36,8.13,67.21,5,35.39-3.08,43.41-172.2,78.8-172.2,65.75,0,198.9,203,267.14,207.67a32.42,32.42,0,0,0,5.93-.12C3567.53,1597.33,3568.68,1677.25,3565.6,1718.8Z"/><path fill="#f19a6d" d="M2985,1067.77l-21-35.54s2.14-48.3-6.68-62.88-31.6-48.3-34.33-68.35c0,0-13.08-7.29-15.65,11.85s5.62,50,5.62,50-21.87,12.91-19.13,35.69l-13.67,32.81,31,79Z"/><path fill="#003d82" d="M3674.51,1468.4c-10.49,30.44-26,57-48.2,76.61a136.52,136.52,0,0,1-47.65,27.4c.39,2.54-6.74,64.52-6.74,64.52l-76.93-6.49-131.54-23.74c.38-34.09-.73-120.92,2.14-155.26H3229.16c-6.81,47-18.88,128.38-21.46,147.23l-97.76-30.36,20.86-126.92a.46.46,0,0,1-.07.11.5.5,0,0,1-.08.14l-.12.19c-2.94,4.6-29.88,43.85-90,37.83-63.79-6.37-98.45-181.07-108.44-235.1-1-5.35-2.22-11.26-3.61-17.52-11.49-51.63-34.66-128.29-34.66-128.29l87.48-47.58,97.51,148.73,68.34-118.46s34.64-69.26,81.11-82,87.76-24.61,87.76-24.61l149.34-18.62,117.9,43.36a83.31,83.31,0,0,1,23.19,13c16.44,13.17,43.37,40.75,55.57,87.13C3675.21,1149.6,3717.94,1342.45,3674.51,1468.4Z"/><path fill="#002c6b" d="M3674.51,1468.4c-10.49,30.44-26,57-48.2,76.61-48-57.68-104.29-237.89-104.29-237.89l8.83-79,10.09-66.82s8.64,115.37,29,144.41C3584.6,1326.53,3653.55,1398.05,3674.51,1468.4Z"/><path fill="#6b8ec8" d="M3316.08,974.82c-28.18,88.36-65.73,330.45-86.91,476.61-.24-2.44-26.34-261.58-27.26-272.5s44.63-34.21,44.63-34.21l-29.08-53.09Z"/><path fill="#6b8ec8" d="M3461.24,1255.29l27.78-53.53a19.16,19.16,0,0,0-3.14-22L3453,1145.27l49.83-46.2a19.17,19.17,0,0,0,5.24-19.8L3481,986.89,3465.4,956.2l-16.1,55.16-44.85,181.89-32.25,193.56-6.61,64.64,95.65-196.16Z"/><path fill="#d7dbfb" d="M3316.09,974.82,3465.4,956.2s-32.21,99.41-61,237l-26.1-32.53c-28.39,52.43-85.08,73.81-85.08,73.81l78.93,152.28v0c-6.66,55.29-11.06,112-11.69,167.62H3214.67C3225.23,1476.88,3278.84,1091.61,3316.09,974.82Z"/><path fill="#002c6b" d="M3363.08,1561.89l-155.37,36.78c2.57-18.85,14.65-100.24,21.46-147.22h136.42C3362.72,1485.79,3363.47,1527.79,3363.08,1561.89Z"/><path fill="#18203c" d="M3293.27,1234.53s2.47-70,72.51-89.81l12.57,16S3354.13,1212.66,3293.27,1234.53Z"/><path fill="#f19a6d" d="M3378.35,1160.72l-35.12-44.7s-24.59-47.18-46.46-46.84-28.37-12.64-33.49-9.57-3.76,15,4.1,20.85c0,0-71.15-19.73-78-12.24-10,11,53.49,36,53.49,36s-10.94,16.4,2.28,28.52c0,0-1.37,16.75,9.91,25,0,0-1.37,14.69,10.93,21.87s49.89,27,49.89,27l5.76,13.26C3361.58,1195.35,3378.35,1160.72,3378.35,1160.72Z"/><path fill="#fff" d="M3444.78,937.68l20.62,18.52a18.56,18.56,0,0,1,3.95,22.67c-10.29,19-31.94,53.7-60.91,72.3l-47.88-36.6-48.41,23.13s-9.45-44.66,3.93-62.88l27.15-35.09Z"/><path fill="#fc488c" d="M3360.39,1137.85,3343.23,1116a186.65,186.65,0,0,0-17-26.06l7.31-35.86-2.71-24a11,11,0,0,1,2.69-8.5c4.59-5.23,14.22-13.27,29.18-11.71,15.12,1.58,19.81,12,21.26,18.28a11,11,0,0,1-1.19,8l-14.6,25.23Z"/><path fill="none" stroke="#b9278c" stroke-miterlimit="10" stroke-width="5" d="M3368.19,1061.39s-16.86-13.67-34.63-7.29Z"/><path fill="#002c6b" d="M3182.74,1234.53l-51.94,206.86-.07.11a.7.7,0,0,1-.08.14,1.45,1.45,0,0,1-.12.19c-2.94,4.6-29.88,43.85-90,37.84-63.79-6.38-98.44-181.08-108.44-235.11-1-5.35-2.21-11.26-3.61-17.52,16.76,29.62,97.94,170.3,136.8,186.55C3108.79,1431.77,3182.74,1234.53,3182.74,1234.53Z"/><path fill="none" stroke="#6e7dd0" stroke-linecap="round" stroke-linejoin="round" stroke-width="2.79" d="M3078.86,1199.9s37.36,46.48,32.8,102.07Z"/><path fill="#003d82" d="M3293.27,1234.53s91.27,196.09,147.35,256.65,118.32,83.94,138,81.22,71.43-67.54,55-125.84c0,0-26-65.14-133.74-159.17-58.35-50.94-95.42-94.14-95.42-94.14Z"/><path fill="#ef7c59" d="M3289,1090.37a1.87,1.87,0,0,1-.61-.11l-21.61-8.17a1.74,1.74,0,1,1,1.24-3.26l21.6,8.16a1.75,1.75,0,0,1-.62,3.38Z"/><path fill="#ef7c59" d="M3270.68,1115.91a1.8,1.8,0,0,1-.59-.11l-27.79-9.94a1.74,1.74,0,1,1,1.18-3.28l27.79,9.93a1.75,1.75,0,0,1-.59,3.4Z"/><path fill="#ef7c59" d="M3272.35,1141.2a1.51,1.51,0,0,1-.42,0l-27.18-6.71a1.75,1.75,0,1,1,.84-3.39l27.18,6.71a1.75,1.75,0,0,1-.42,3.44Z"/><path fill="#ef7c59" d="M3274.08,1166.25a1.8,1.8,0,0,1-.59-.11l-19-6.81a1.74,1.74,0,1,1,1.18-3.28l19,6.81a1.75,1.75,0,0,1-.59,3.39Z"/><path fill="#ef7c59" d="M3274.08,1172.94a1.74,1.74,0,0,1-1.74-1.65l-3.4-62.19a1.75,1.75,0,1,1,3.49-.19l3.4,62.19a1.75,1.75,0,0,1-1.65,1.84Z"/><path fill="#ef7c59" d="M2900.7,1024a1.76,1.76,0,0,1-1.68-1.26l-6.83-23.7a1.75,1.75,0,1,1,3.36-1l6.83,23.69a1.74,1.74,0,0,1-1.19,2.16A1.71,1.71,0,0,1,2900.7,1024Z"/><path fill="#f19a6d" d="M3434.23,957c-14.7,24.36-25.17,47.17-70.72,47.37-10.16,0-35.21-12.78-37.13-34l.43-7.64,2.21-41.38,3.32-62,106.73-12.57Z"/><path fill="#ef7c59" d="M3396.56,920.09s-37.28,50.54-69.75,42.66l2.21-41.38C3371.82,928.78,3396.56,920.09,3396.56,920.09Z"/><path fill="#f19a6d" d="M3301.62,827.23c.44-4.53-4.12-8.54-8.67-8.41s-8.53,3.59-10.35,7.77-1.77,8.93-1.06,13.43c1.15,7.28,4.18,14.55,9.88,19.24s14.36,6.13,20.55,2.12Z"/><path fill="#f19a6d" d="M3297.86,748.13s-8,153.62,12.62,164.17,103.57-2.56,110.12-15.35,18.25-44.44,20.93-60.13c3.93-23,3.22-74.59-16.6-91.92S3310.9,722.68,3297.86,748.13Z"/><path fill="#212121" d="M3355.49,861.92c-12.16-.17-35,4.67-47.1,3.05-10.09-1.35-8.66-19.09-10.86-24.6-10.07,11.08-12.92,30.78-14.24,45.23-1.49,16.27,7,59.06,53.2,58.71,18.82-.15,64.09-17.78,78.35-30,15.45-13.27,22.17-28.62,30.41-45.13.71,4.86,7.71,6.37,11.8,3.66s5.88-7.71,7.41-12.37a245.34,245.34,0,0,0,7.61-26.49c4.91-23.6,2.78-48.29-3.37-71.61-1.25-4.72-2.81-9.65-6.43-12.93-2.94-2.67-7-4-9.58-7-2.79-3.23-3.37-7.74-4.81-11.76-2.67-7.41-8.43-13.27-14.55-18.23-35.77-29-80.83-29.78-121.4-12.7-25.15,10.59-47.48,31.5-52.78,58.26-1,5.09-1.35,10.56.83,15.27,5.4,11.7,21.68,11.94,34.48,10.38,22.37-2.73,44.88-5.48,66.42-12.12,19-5.85,37.2-13.66,56.74-4.92a6,6,0,0,1,1.94,1.22,5.75,5.75,0,0,1,1.12,2.15c4.08,11.86,2.86,24.78,1.85,37.27-.48,5.77-.91,11.64-3,17-4.08,10.44-9.88,19.67-22.22,27.52C3386,859,3368.69,862.09,3355.49,861.92Z"/><path fill="#212121" d="M3421.07,767.07c-8.57-3.63-18.15-2.56-27.07-1a219.41,219.41,0,0,0-27.41,7c-8.83,2.71-17.67,5.46-26.75,7.23a91.78,91.78,0,0,1-26.76,1.62,61.33,61.33,0,0,1-13.18-2.82,57.51,57.51,0,0,1-6.06-2.42,23.39,23.39,0,0,1-5.12-3.14,14.78,14.78,0,0,1-2.12-2.21c-.58-.75-1.83.22-1.32,1,2.31,3.56,5.89,5.78,9.73,7.4a59.67,59.67,0,0,0,13.14,3.85,84,84,0,0,0,27.22-.16,191.16,191.16,0,0,0,26.88-6.65c9.11-2.78,18.17-5.76,27.45-7.94a108.3,108.3,0,0,1,14-2.45,43.52,43.52,0,0,1,13.81.39,29.42,29.42,0,0,1,3.33,1c.38.14.65-.49.28-.65Z"/><path fill="#212121" d="M3292.73,847c-8.66,8.56-13.41,20.73-14.47,32.73a68.08,68.08,0,0,0,1.36,20.18,54.24,54.24,0,0,0,6,16.47c3,5,7.45,9.68,13.41,10.77a1,1,0,0,0,.56-2c-10.11-3.43-14.74-14.26-17.24-23.8-3.17-12.11-3.19-25.12,1.11-37a53.59,53.59,0,0,1,9.93-16.76c.37-.43-.22-1-.63-.63Z"/><path fill="#fff" d="M3355.62,874.91l-31.8,2.14a1.07,1.07,0,0,0-.93,1.1c.15,4,1.71,19.13,16.67,16.87,16.61-2.51,17.36-14.11,17.54-18.77A1.3,1.3,0,0,0,3355.62,874.91Z"/><path fill="#f19a6d" d="M3424.06,852.06c3.41-17.5,10.23-44.42,25.54-38,2.68,1.12,4.67,3.45,6.22,5.92,8,12.85,4.68,31.56-7.32,40.82-7.78,6-19.33,8.43-23.51-2.81A18.68,18.68,0,0,1,3424.06,852.06Z"/><path fill="#ef7c59" d="M3436.87,860.41a5.47,5.47,0,0,1-4.24-2c-2.3-2.71-2.2-7.37-.78-10.14a12.32,12.32,0,0,1,4.46-4.78,22,22,0,0,0,3.25-2.67c.52-.54.7-1-1.65-3.43-1.14-1.19-2.12-2.22-2-3.62.22-4.55,2.61-10.56,8.6-12.49a4.65,4.65,0,0,1,4.11.52c3.34,2.2,4.11,8.56,4.23,9.81a2,2,0,0,1-4.06.39c-.22-2.25-1.14-6-2.41-6.8a.62.62,0,0,0-.62,0c-3.62,1.16-5.47,5-5.76,8.43.21.26.6.67.91,1,1.55,1.63,5.19,5.44,1.6,9.09a25.88,25.88,0,0,1-3.79,3.14,8.5,8.5,0,0,0-3.19,3.32c-.86,1.68-.74,4.47.25,5.63.21.25.7.82,2.24.33a2,2,0,1,1,1.25,3.88A7.67,7.67,0,0,1,3436.87,860.41Z"/><path fill="#212121" d="M3463.24,759.41A177.94,177.94,0,0,1,3473.8,792a123.92,123.92,0,0,1,2.74,34c-.13,2-.31,4.09-.56,6.12,0,.3-.07.6-.11.9,0,.14,0,.28,0,.41-.05.35,0-.19,0,0a3.11,3.11,0,0,1,0,.32c-.09.68-.19,1.37-.3,2.05-.49,3.13-1.11,6.26-1.87,9.34a77.65,77.65,0,0,1-3,9.8c-.34.86-.55,1.39-.88,2.13s-.7,1.54-1.08,2.3a39.77,39.77,0,0,1-2.44,4.19c-.21.31-.43.62-.65.92l-.33.45c-.16.21,0,.06,0,0s-.15.19-.23.29c-.47.59-1,1.17-1.5,1.72s-1.06,1-1.62,1.51l-.36.29-.26.21c-.29.22-.58.43-.88.63a15.17,15.17,0,0,1-1.79,1l-.51.23c-.05,0-.23.1,0,0l-.21.08c-.35.14-.7.27-1.06.38a15.14,15.14,0,0,1-2.12.48s-.24,0,0,0l-.23,0-.59,0c-.38,0-.77,0-1.15.05a18.29,18.29,0,0,1-2.34-.06c-1.14-.1-1.37,1.73-.27,2a15.08,15.08,0,0,0,9.51-.85,19,19,0,0,0,7.1-5.58c4.38-5.35,6.94-12,8.77-18.64a108.18,108.18,0,0,0,3.33-18.22,122.57,122.57,0,0,0-1.8-34.72,145.69,145.69,0,0,0-10.71-33.25c-.6-1.31-1.22-2.61-1.85-3.9-.38-.79-1.48-.1-1.15.67Z"/><path fill="#525252" d="M3436.78,738a11.8,11.8,0,0,0-7-1.13,21.64,21.64,0,0,0-7.28,2.66,85.9,85.9,0,0,0-9.17,5.93c-3.22,2.3-6.43,4.59-9.79,6.68a41,41,0,0,1-10.09,4.88,19.15,19.15,0,0,1-2.68.59c.27,0,0,0,0,0l-.39,0-.65,0a10.59,10.59,0,0,1-1.26,0l-.61-.05c-.08,0-.3,0,0,0l-.35,0a3.09,3.09,0,0,1-1.38-.6,3,3,0,0,1-.93-.87,6.52,6.52,0,0,1-.67-1.41.71.71,0,0,0-1.18-.31,2.83,2.83,0,0,0-.35,3.4,5,5,0,0,0,2.81,2.49,10.39,10.39,0,0,0,5.31.2c3.7-.59,7.23-2.39,10.47-4.21,6.59-3.7,12.37-8.59,18.71-12.67a39.76,39.76,0,0,1,7.84-4.15c2.72-1,5.44-1.73,8.3-.83.37.11.62-.46.27-.63Z"/><path fill="#525252" d="M3437.09,734.57a33.33,33.33,0,0,0-23.39-1.22c-7.84,2.52-14.11,8-21.49,11.5a42.83,42.83,0,0,1-6.26,2.42c-1.07.3-2.16.46-3.22.75a29.26,29.26,0,0,1-3.35.83c-.47.07-.43.81,0,.91a20.5,20.5,0,0,0,2.89.48,10.15,10.15,0,0,0,3.05-.27,26.18,26.18,0,0,0,5.79-1.9,95.09,95.09,0,0,0,10.39-6.14,65.84,65.84,0,0,1,10.46-5.78,34.91,34.91,0,0,1,11.5-2.41,34,34,0,0,1,13.14,2c.67.25,1.16-.88.49-1.17Z"/><path fill="#525252" d="M3433.36,729.49a41.67,41.67,0,0,0-5.66-3.41c-1.95-.92-4-1.75-6-2.48a56.27,56.27,0,0,0-12.77-2.81c-2.18-.24-4.36-.43-6.55-.54s-4.48-.28-6.7-.21a87.6,87.6,0,0,0-13.69,1.54c-4.9.95-9.79,1.94-14.61,3.26-2.37.65-4.73,1.36-7.09,2s-4.85,1.3-7.22,2.09c-1.19.4-2.36.86-3.54,1.29s-2.4.71-3.6,1q-3.55,1-7.13,1.94c-4.85,1.27-9.72,2.66-14.74,3.07-1.27.1-2.51.18-3.78.37a16.81,16.81,0,0,1-3.47.27c-1-.06-2.09-.15-3.12-.31a9.22,9.22,0,0,1-1.5-.26c-.53-.15-1-.51-1.48-.68a37.92,37.92,0,0,1-5.77-2.11,25.27,25.27,0,0,1-2.56-1.51,8.4,8.4,0,0,1-1-1,13.45,13.45,0,0,0-1.24-1,18.09,18.09,0,0,0-2.63-1.6c-.36-.2-.93.13-.76.58a7.44,7.44,0,0,0,4,4.47c.91.49,1.75,1.08,2.66,1.55s1.84.92,2.78,1.33a19.12,19.12,0,0,0,3,1,6,6,0,0,0,1.56.28,7,7,0,0,1,1.58.06c2.12.41,4.26.52,6.39.79a18.27,18.27,0,0,0,3.76.22c1.27-.12,2.53-.29,3.79-.49,2.49-.39,5-.84,7.44-1.36s4.88-1.3,7.29-2,4.78-1.48,7.17-2.23,4.85-1.24,7.24-2,4.78-1.5,7.2-2.17c4.8-1.35,9.64-2.61,14.51-3.73a123,123,0,0,1,14.16-2.23,94.76,94.76,0,0,1,13.26-.64,73,73,0,0,1,13.15,1.94,57.82,57.82,0,0,1,6.34,1.77c2.08.71,4,1.74,6.06,2.53a24,24,0,0,1,3.09,1.54.15.15,0,0,0,.15-.26Z"/><path fill="#525252" d="M3422.89,727.66a32.1,32.1,0,0,0-3.47-.89q-1.74-.28-3.48-.51-3.46-.43-7-.62a109.39,109.39,0,0,0-14.25.43,80.66,80.66,0,0,0-14,2.34,87.88,87.88,0,0,0-13.55,4.87c-2.52,1.12-5.05,2.28-7.5,3.56-1.26.66-2.44,1.43-3.69,2.1s-2.46,1.36-3.69,2.06a.2.2,0,0,0,.15.36,30.54,30.54,0,0,0,3.64-1c1.14-.39,2.32-.71,3.44-1.16,2.29-.91,4.49-2,6.72-3.08a95.33,95.33,0,0,1,13.25-5,128.1,128.1,0,0,1,13.55-3.18,59.14,59.14,0,0,1,7-.84c2.32-.13,4.65-.16,7-.15,5.28,0,10.5.66,15.75,1.15.27,0,.31-.39.06-.46Z"/><path fill="#525252" d="M3430.93,726.82c-3.32-6.22-10.68-8.77-17-10.77-8.36-2.65-16.89-4.7-25.7-4.86-2.12,0-4.24,0-6.36.19s-4.33.2-6.49.42c-4.33.44-8.65,1-13,1.62-8.6,1.15-17.26,2.22-26,1.81a36.92,36.92,0,0,1-5.83-.67c-.94-.2-1.9-.4-2.83-.67s-1.92-.45-2.87-.76a4.73,4.73,0,0,1-2.3-1.44c-.57-.69-1-1.45-1.6-2.16a10.66,10.66,0,0,1-2.1-4.55c-.07-.39-.06-.8-.14-1.19s-.26-.8-.37-1.2a.54.54,0,0,0-1,0,5.57,5.57,0,0,0-.37,1.11,4.4,4.4,0,0,0,.1,1.49,11.4,11.4,0,0,0,.75,2.43,9.81,9.81,0,0,0,3.14,4.2c.7.48,1.44.89,2.13,1.37s1.48,1.22,2.28,1.76a13.88,13.88,0,0,0,5.55,2,62.33,62.33,0,0,0,12.66.63c4.39-.15,8.76-.56,13.12-1s8.66-1.07,13-1.57c2.2-.25,4.41-.45,6.61-.68s4.31-.44,6.48-.49a101.91,101.91,0,0,1,13,.35,88.7,88.7,0,0,1,12.93,2.42,94.15,94.15,0,0,1,11.15,3.37,21.72,21.72,0,0,1,8.44,5.43,16.23,16.23,0,0,1,1.59,2,.6.6,0,0,0,1-.6Z"/><path fill="#525252" d="M3303.69,877.84a17.08,17.08,0,0,0,.15,7.36,21.82,21.82,0,0,0,3,7.46,13.46,13.46,0,0,0,2.38,2.39c1.07.91,2.13,1.83,3.16,2.77a37.86,37.86,0,0,1,6.18,6.72,13.38,13.38,0,0,1,2,4c.08.32.15.65.21,1s0,0,0-.06,0,.25,0,.37a1.93,1.93,0,0,1,0,.24c0-.17,0,0,0,.06a2.52,2.52,0,0,1-.27.83c-.07.1-.36.55-.53.76a.72.72,0,0,0,0,1c1.54,1.37,3.57-.44,3.84-2.08a7.86,7.86,0,0,0-1-4.56,29.22,29.22,0,0,0-5.89-7.53c-2.1-2.1-4.38-4-6.66-5.93a9.44,9.44,0,0,1-1.12-1.07.85.85,0,0,1-.14-.18l-.21-.31c-.17-.26-.33-.53-.49-.8a23.26,23.26,0,0,1-1.64-3.76c-.52-1.53-.95-3.11-1.41-4.67a15.71,15.71,0,0,1-.84-3.89c0-.37-.59-.49-.68-.09Z"/><path fill="#525252" d="M3298.32,884.66a20.27,20.27,0,0,0,3.56,14.19c3,4.21,7.5,6.91,10.87,10.76a30.76,30.76,0,0,1,2.44,3.12c.37.57.67,1.2,1.08,1.75s.89,1,1.27,1.61a.48.48,0,0,0,.88-.24,12.18,12.18,0,0,0,0-1.71,5.19,5.19,0,0,0-.61-1.88,16,16,0,0,0-2.06-3,48.85,48.85,0,0,0-5.48-4.88,47.37,47.37,0,0,1-5.65-5.32,22.2,22.2,0,0,1-5-14.37c0-.85-1.19-.8-1.28,0Z"/><path fill="#525252" d="M3410,890.75c-.88,1-1.88,1.89-2.83,2.84a27.29,27.29,0,0,1-3.06,2.62,56.42,56.42,0,0,1-6.6,4.23,32.18,32.18,0,0,1-3.68,1.68c-1.27.49-2.57.78-3.87,1.2-2.67.85-5.42,1.5-8.15,2.14a88.36,88.36,0,0,1-9.59,1.44c-3.25.4-6.56.45-9.79,1a47.72,47.72,0,0,1-4.77.42c-1.61.11-3.21.22-4.81.37a47.36,47.36,0,0,0-4.73.86,20.58,20.58,0,0,0-4.54,1.08c-.75.35-1.42.87-2.13,1.29s-1.32.67-2,1l-.9.55a4.72,4.72,0,0,1-1,.35,6.66,6.66,0,0,0-1.87,1.25,34,34,0,0,0-2.9,3.34,9.25,9.25,0,0,0-.7.7,4.29,4.29,0,0,0-.56,1.11,3.59,3.59,0,0,0,0,2.2.52.52,0,0,0,.75.31,6.28,6.28,0,0,0,1.27-1.14,5.72,5.72,0,0,0,.59-.89c.19-.33.25-.68.41-1a8.5,8.5,0,0,1,2.4-2.7c.47-.38.9-.8,1.36-1.19a3.74,3.74,0,0,0,.64-.74,2.34,2.34,0,0,1,.87-.68c.5-.28,1-.55,1.52-.79a8.27,8.27,0,0,1,2.24-.61c1.53-.25,3-.84,4.49-1.22s3-.42,4.57-.66,3.05-.44,4.58-.63A39,39,0,0,1,3362,910a91,91,0,0,0,9.75-.75c1.67-.16,3.33-.33,5-.6s3.16-.61,4.74-.86a49.68,49.68,0,0,0,8.34-2.1c1.29-.45,2.46-1.06,3.69-1.61s2.38-1.14,3.56-1.73a35,35,0,0,0,7.48-4.83,43,43,0,0,0,3.13-3.06,9,9,0,0,0,1.31-1.59c.39-.68.84-1.31,1.26-2,.09-.15-.12-.32-.23-.19Z"/><path fill="#525252" d="M3404.4,894c-2.63,1.15-5.12,2.58-7.78,3.67a45.47,45.47,0,0,1-8.08,2.73,71.42,71.42,0,0,1-17,1.63c-1.79-.07-3.59-.28-5.39-.28a24.75,24.75,0,0,0-2.58.25,13.83,13.83,0,0,0-2.63.48.19.19,0,0,0,0,.37c.78.19,1.54.36,2.33.49s1.58.39,2.39.49c1.62.21,3.26.3,4.9.39a52.32,52.32,0,0,0,8.94-.18,46.17,46.17,0,0,0,8.63-1.82,79.57,79.57,0,0,0,8.22-2.94c1.46-.66,2.9-1.37,4.3-2.15.7-.39,1.4-.79,2.08-1.21a14.51,14.51,0,0,0,2-1.55c.22-.19-.06-.47-.29-.37Z"/><path fill="#525252" d="M3408.48,892.79c-1.12,4.79-5.45,7.79-9.21,10.5a58.92,58.92,0,0,1-6.9,4.36,68.05,68.05,0,0,1-7.06,3.1,77.58,77.58,0,0,1-7.47,2.29c-2.52.7-5.06,1.35-7.59,2a74.49,74.49,0,0,0-14.73,5.19,14.06,14.06,0,0,0-3.44,2.32c-1,1-1.21,2.43-2.14,3.45a4.31,4.31,0,0,0-1.09,1.58,9.36,9.36,0,0,0-.4,2,7.17,7.17,0,0,0,.13,2,2.32,2.32,0,0,0,.32,1,3.22,3.22,0,0,0,.75.62c.36.25.78-.1.81-.47a4.67,4.67,0,0,0,.08-.83c0-.29-.16-.58-.22-.86a5.77,5.77,0,0,1-.07-1.66,9.18,9.18,0,0,1,.36-1.57c.16-.64,0-1.3.42-1.88a3.88,3.88,0,0,1,1.36-1c.55-.31,1.06-.67,1.59-1a30.74,30.74,0,0,1,3.08-1.82,72.74,72.74,0,0,1,14.47-4.82c2.51-.62,5-1.22,7.52-1.88s4.91-1.49,7.35-2.31a46.54,46.54,0,0,0,13.74-7.91,48.45,48.45,0,0,0,6.2-5.51,11.78,11.78,0,0,0,3.32-6.7c.06-.67-1-.81-1.18-.16Z"/><path fill="#ef7c59" d="M3334.28,858.44a2,2,0,0,1-1.05-.29c-4.84-2.9-16-10.23-14.82-15.59,1.09-5.07,12-5.95,18.08-6,3.67-12.27,1.84-32.08,1.82-32.28a2,2,0,1,1,4.06-.39c.09.91,2.08,22.42-2.47,35.37a2,2,0,0,1-1.93,1.37h-.23c-8.08,0-14.86,1.51-15.35,2.84-.21,1.64,6.07,7.1,12.94,11.22a2,2,0,0,1-1,3.79Z"/><path fill="#151515" d="M3360.07,819c-.61,3.24,1.13,6.29,3.9,6.81s5.5-1.69,6.11-4.93-1.14-6.29-3.9-6.81S3360.67,815.77,3360.07,819Z"/><path fill="#151515" d="M3310.23,821c-.61,3.24,1.13,6.29,3.9,6.81s5.5-1.68,6.11-4.93-1.14-6.29-3.9-6.81S3310.84,817.8,3310.23,821Z"/><path fill="#0d0d0d" d="M3378.53,805.77s-9.94-8.16-21.57-10.87-3.94-10.57,3.84-10.66S3380.3,797.67,3378.53,805.77Z"/><path fill="#0d0d0d" d="M3305.9,803.32s8.9-8,20.74-8.84-.27-10.71-8.56-8.41C3307.37,789.05,3305.9,803.32,3305.9,803.32Z"/><path fill="#ef7c59" d="M3363.22,844.19c2.08,6.31,11.75,8.78,21.58,5.53s16.12-11,14-17.31-11.75-8.78-21.58-5.52S3361.13,837.89,3363.22,844.19Z"/><path fill="#ef7c59" d="M3307,839.72c.32,4.78-1.18,9.22-5.69,11.47-1.13-3.27-3.77-10.82-3.77-10.82s-.3-12.64,0-18.76C3304.45,825.66,3306.48,832,3307,839.72Z"/><path fill="#1e2b32" d="M3289.93,2504.59c-12-11.27-27.66-16.14-43.62-18-8-1-16.06-1.73-24.2-2.7a91.93,91.93,0,0,1-18.48-3.81,27.65,27.65,0,0,1-7.72-3.82c-4.77-3.6-4.51-9.13.42-12.41,11.05-6.63,26.86-5.26,39.25-4.41,12.24,1.16,24.9,3.33,35.75,9.48a31.38,31.38,0,0,1,9.37,8c-5.94-5.52-13.79-8.26-21.58-9.95-11.77-2.53-23.88-2.82-35.89-2.69-6.44.1-20.19,1-24.5,5.81,0,0-.06.09-.05.1s0,0,0,0,0,0,0,0,0,0,0,.07a.52.52,0,0,1,.11.19l.24.28c3.23,2.92,8,4,12.18,5.14,3.3.88,8.26,1.66,11.69,2.21,24,3.51,51,5.77,67,26.58Z"/><path fill="#1e2b32" d="M3517.67,2492.28c-2.43-20.09-24.05-20-39.87-18.71-17.11,1.6-34.2,5.21-50.92,9.48,7.51-4.71,15.86-7.87,24.28-10.53,16.6-4.81,36.37-8.55,53.12-2.27,9.26,3.53,15.13,12,13.39,22Z"/><path fill="#1e2b32" d="M3245.3,2440c-10.31-1.05-25.51-1.32-31.72-11.08a10.32,10.32,0,0,1-1.07-2.31c-1.82-6.13-1.44-12.32-1.11-18.52.91-12.07,3.06-23.94,5.07-35.81,1.17-7.32,2.63-14.5,2.74-21.76-.36-58.41-7.65-116.75-4.68-175.2,2.68,50.85,8.94,101.71,10.43,152.62.16,7.09.28,15.55.26,22.58-.21,7.74-2,15.32-3.36,22.75-2,10.27-5.17,25-6.38,35.21-.65,5.66-1.31,11.73,0,17.24,3.33,10.56,20.48,12.17,29.86,14.28Z"/><path fill="#1e2b32" d="M3216.06,2096.8c-4.25-117.55-13.58-241.21-9.23-358.55,4.29,117.55,13.56,241.21,9.23,358.55Z"/><path fill="#1e2b32" d="M3502.29,2452.27c-10-2.73-20.5-2-30.6-.29l-1.39.24-.05-1.49-2.38-70.82c-2.38-69.63-6.57-142.85-10.21-212.32,9.38,64.09,13.84,129.69,15.49,194.44.6,29.39.61,59.36-.38,88.7l-1.44-1.25c10.32-1.12,21.18-1,31,2.79Z"/><path fill="#1e2b32" d="M3459.2,2061.41c-4.28-107.7-8.95-216.94-4.62-324.7,4.32,107.7,8.92,216.94,4.62,324.7Z"/><path fill="#1e2b32" d="M3313.24,1472.44a96.66,96.66,0,0,1,1.87,12.68c2.78,29.67,3.39,59.56,4,89.32.12,7,.39,28.39.59,35,.86,17.37,1.64,43.85,17.39,54.55a24.28,24.28,0,0,0,5.74,2.62,22.88,22.88,0,0,1-6.2-1.79c-17.26-8.8-20.79-34.44-22.27-51.85-1-12.77-1.26-25.64-1.52-38.42-.5-29.54,0-59.79.56-89.36,0-4.15.18-8.6-.14-12.75Z"/><path fill="#1e2b32" d="M3343.11,1469.74c6.89,93.06,5.5,187.67,3.94,280.91-7.09-93.05-5.63-187.67-3.94-280.91Z"/><path fill="#1e2b32" d="M3274.8,1723.78c18.37,2.85,35.93,9.11,53.17,15.8,17.09,7,34.19,14.56,49.32,25.39-34.72-12.54-68.86-25.94-102.49-41.19Z"/><path fill="#002c6b" d="M3571.92,1636.93s-174.57-82.38-199.72-250.12c0,0,102.82,188.67,206.46,185.59C3579.06,1575,3571.92,1636.93,3571.92,1636.93Z"/><polygon fill="#fc488c" points="3295.8 1239.4 3341.1 1326.81 3334.41 1422.22 3287.07 1478.12 3252.87 1415.64 3295.8 1239.4"/><path fill="#fbc5a9" d="M929.66,2397.54,980,2321.48l73.22,53.3L991,2440.72s-17,13.79-43.25,3.35C921.86,2433.75,929.66,2397.54,929.66,2397.54Z"/><path fill="#003d82" d="M1090.18,2552l-112.87.14L877.84,2448a11.59,11.59,0,0,1,.15-16.16l1.54-1.54,41.53-41.87a6,6,0,0,1,10,2.66c10.32,41,53.4,39.8,70.62,37.59a8.42,8.42,0,0,1,9.17,6.12c4.15,14.79,13.77,47.52,20,55.84,11.33,15.18,26.53,23.24,40,30.24,11,5.73,16.28,11.94,18.63,17.32C1092.94,2546,1090.18,2552,1090.18,2552Z"/><path fill="#002c6b" d="M1090.18,2552l-112.87.14L877.84,2448a11.59,11.59,0,0,1,.15-16.16l1.54-1.54c19.82,21.93,93.54,102.88,103.41,103.86,8.82.88,76.45,3.08,106.57,4C1092.94,2546,1090.18,2552,1090.18,2552Z"/><path fill="#fff" d="M1028.37,2475.26c-13.23-4.94-30.33-5.76-42.49,2.16-.47.31,0,1,.44.91A195,195,0,0,1,1028,2477,.89.89,0,0,0,1028.37,2475.26Z"/><path fill="#fff" d="M1037.21,2482.93c-13.24-4.94-30.34-5.76-42.49,2.16-.47.31,0,1,.44.91a196.31,196.31,0,0,1,41.69-1.35A.89.89,0,0,0,1037.21,2482.93Z"/><path fill="#fff" d="M1046,2490.61c-13.23-4.94-30.33-5.76-42.49,2.16-.47.31,0,1,.44.91a195.08,195.08,0,0,1,41.7-1.35A.89.89,0,0,0,1046,2490.61Z"/><path fill="#fff" d="M1054.88,2498.28c-13.24-4.94-30.34-5.76-42.49,2.16-.47.31,0,1,.44.91a195.66,195.66,0,0,1,41.69-1.35A.89.89,0,0,0,1054.88,2498.28Z"/><polygon fill="#ffc9ae" points="1497.83 2496.43 1501.86 2385.64 1589.46 2385.64 1573.47 2496.43 1497.83 2496.43"/><path fill="#003d82" d="M1713.75,2550.2a3.33,3.33,0,0,1-3.35,3l-231.88-.07a3.36,3.36,0,0,1-3.29-4.05l2.77-15,10.72-57.7a8.2,8.2,0,0,1,12.58-5.13c28.47,18.93,58.17,11.24,72.67-.66a11.25,11.25,0,0,1,14.66.55c5.83,5.35,14.52,12.26,24.14,16.44,21.37,9.27,90.31,30.23,99.58,44,1,1.53,1.53,4.22,1.71,7.2A79.44,79.44,0,0,1,1713.75,2550.2Z"/><path fill="#002c6b" d="M1713.75,2550.2a3.33,3.33,0,0,1-3.35,3l-231.88-.07a3.36,3.36,0,0,1-3.29-4.05l2.77-15c34.07,2.26,167,10.84,190.26,8.67,15.81-1.48,33.66-3.14,45.8-4A79.44,79.44,0,0,1,1713.75,2550.2Z"/><path fill="#fff" d="M1641.92,2491.3c-14.06-1.4-30.8,2.17-40.53,12.94-.38.41.22.94.66.76a195.41,195.41,0,0,1,40-11.95A.89.89,0,0,0,1641.92,2491.3Z"/><path fill="#fff" d="M1652.42,2496.46c-14.06-1.4-30.8,2.18-40.53,12.94-.37.42.22.95.66.77a194.79,194.79,0,0,1,40-12A.89.89,0,0,0,1652.42,2496.46Z"/><path fill="#fff" d="M1662.92,2501.63c-14.05-1.4-30.8,2.17-40.53,12.93-.37.42.23,1,.66.77a195.69,195.69,0,0,1,40-11.95A.89.89,0,0,0,1662.92,2501.63Z"/><path fill="#fff" d="M1673.43,2506.79c-14.06-1.4-30.8,2.18-40.53,12.94-.38.42.22.95.66.77a194.81,194.81,0,0,1,40-12A.89.89,0,0,0,1673.43,2506.79Z"/><path fill="#262626" d="M1447.5,2478c51.31,12.68,136.25,3.29,187.35-9.9,0,0,43.89-405.13,37-547.57-6.17-128.28-82.55-493.63-82.55-493.63l-205,2.84,85.56,549.14Z"/><path fill="#303030" d="M1388.51,1983.69c37.11-145.66,112.12-560.08,112.12-560.08l-274.37-18-54.62,543.72L885.37,2329.91c31.5,38.79,116.53,107.18,176,134.75C1061.35,2464.66,1358.82,2100.25,1388.51,1983.69Z"/><path d="M1524.32,1660.77q6,36.72,11.56,73.49,2.85,18.38,5.57,36.77l5.48,36.79,5.37,36.8L1555,1863l2.61,18.41c3.47,24.55,7,49.08,10.37,73.65l0,.38,0,.39-4.2,52.73-4.37,52.71c-2.87,35.14-6,70.26-9.06,105.39s-6.34,70.24-9.72,105.34-6.81,70.21-10.61,105.27c1.94-35.22,4.23-70.41,6.59-105.59s4.91-70.36,7.48-105.53,5.28-70.32,8.14-105.47l4.23-52.72,4.4-52.71,0,.77c-3.34-24.56-6.47-49.16-9.68-73.74l-2.4-18.44-2.34-18.45-4.65-36.89-4.55-36.92q-2.27-18.45-4.46-36.92Q1528.39,1697.75,1524.32,1660.77Z"/><path d="M1061.12,2317c21.77-25.67,43.82-51.1,65.85-76.56l33.15-38.07,33.28-38q16.61-19,33.36-37.89l33.42-37.84,67.13-75.4-.68,1.1,16.93-43.11,17-43.09c11.4-28.7,22.75-57.42,34.28-86.07s23.07-57.29,34.69-85.9,23.38-57.18,35.34-85.66c-10.5,29.05-21.28,58-32.07,86.93s-21.7,57.83-32.71,86.68-22.06,57.69-33.13,86.52l-16.72,43.2-16.77,43.17-.24.62-.44.49-67.33,75.23-33.81,37.49q-16.91,18.74-33.87,37.43l-34,37.35-34.08,37.25C1106.93,2267.7,1084.16,2292.49,1061.12,2317Z"/><path d="M1536.31,1657.37c-24.22,2-48.26,7.27-71.45,13.21a.71.71,0,1,0,.36,1.38c23.91-3.71,48.18-7,71.78-11.9C1538.85,1659.67,1538.16,1657.21,1536.31,1657.37Z"/><path d="M1533.3,1514.65c0-.69-1.27-.85-1.26-.1.16,23.69-1.35,44.54-3.35,66.69-.92,10.28-9.2,67.1-27,63-3-.7-4.51-3.64-5-8.14-.56-5.41,1.47-12,2.37-17.42,2-11.9,3.56-23.83,4.59-35.84,1.9-22.43,2-44.86-.73-67.22a.58.58,0,0,0-1.15.07c0,31-.78,62-5.43,92.78-2.23,14.78-9.67,37,5.78,39.31,15.75,2.31,25.93-35,27.85-45.15C1535.34,1574.14,1535.55,1543.43,1533.3,1514.65Z"/><path d="M1502.14,1645.73a95.4,95.4,0,0,0-4,11.77c-.85,3.1-2,6.45-1.67,9.68.07.63.9.69,1.24.27,2.09-2.66,3-6.28,4.14-9.42,1.36-3.65,2.79-7.26,4-10.94A2,2,0,0,0,1502.14,1645.73Z"/><path d="M1268.85,1565.64c7-1.8,14.51-2.37,21.66-3.5,5.78-.91,11.54-1.93,17.25-3.19,10.76-2.37,21.64-6,30.44-12.81,9.91-7.72,14.94-19.42,19.73-30.66q4.27-10,8.76-19.93c1.44-3.21,2.89-6.41,4.38-9.6,1.74-3.73,4.13-7.62,5.41-11.53.18-.56,1.1-.26.87.27-1.13,2.6-1.61,5.56-2.44,8.29-1,3.22-1.89,6.45-2.88,9.67-1.78,5.73-3.52,11.48-5.41,17.18-3.4,10.23-6.42,21-12.2,30.16-10.57,16.83-29.48,23.61-48.38,26-5.42.69-10.88,1.07-16.33,1.38-6.75.39-13.93,1-20.65.16A1,1,0,0,1,1268.85,1565.64Z"/><path fill="#fbc5a9" d="M1962.54,1018.89s-5.72-5.22-2.38-11.87a76.12,76.12,0,0,1-15.88,17.47c-8,6.17-18.24,10.5-29,5.6,0,0-18.16-14.83-26.39-24.49-12.55-14.72-23.78-35.9-23.78-35.9s16.67-18.1,22.4-23.84c13.56-13.59,38.1-37.4,49.73-43.75,16.57-9,90.58-16.84,95-13.48s4.14,12.83-2.14,15-58.22,17.52-58.22,17.52,20.27,8.1,20.89,15.92-8.84,10.69-8.84,10.69,11.57,15,.94,28.92c0,0,4.5,13.87,1.3,22.65S1968.93,1027.24,1962.54,1018.89Z"/><path fill="#ef7c59" d="M2030.07,903.62c-6.3,2.17-58.22,17.52-58.22,17.52-23.4-.89-56.93,15.63-56.93,15.63s10.2-14.78,40.72-22.73,73.33-8.46,76.57-25.41C2036.62,892,2036.35,901.46,2030.07,903.62Z"/><path fill="#ef7c59" d="M1984.83,976.67c-11.24,16.41-17.07,17-22.88,17.07s-6.15-14.54,2.59-20.59,19.36-25.4,19.36-25.4-15.26,1.08-30.52,22.46-44.62,13.43-44.62,13.43,18.38,9.78,36,5.18c8.12-2.12,3.41,18.91,13.89,15.71C1976.91,999,1984.83,976.67,1984.83,976.67Z"/><path fill="#e43864" d="M1616.22,1539.23c-92.41-7.25-153.52-79.66-156.44-89.14l141.53-49.23S1614.76,1498.82,1616.22,1539.23Z"/><path fill="#e43864" d="M1459.78,1450.09c56.63,38.38,143-11.85,143-11.85l-.53-60.66-.9-103.91,0-8.61,0-10.22c.24,2.34.57,4.64,1,6.92,0,0,86.38,104.15,154.92,77.45a73.07,73.07,0,0,0,15.78-9C1824.78,1293,1897.61,1173.42,1933,1112c10.79-24.51,20.48-36.76,20.9-37.28v0c-1.88-14.47-91.32-108.6-91.32-108.6l-132.77,168.63s-73.61-157.94-103.18-186.87-116.4-33.35-116.4-33.35-1.26-5.67-7.56-15.11S1472.46,888,1472.46,888l-3.16,39c-17.61,15.11-8.17,39-8.17,39C1480,1036.52,1459.78,1450.09,1459.78,1450.09Z"/><path fill="#b92357" d="M1940.58,1060.43s-65-26.6-79.55-36.67-160.15,154-162.36,156.47l31.13-45.56,132.76-168.62S1938.69,1046,1940.58,1060.43Z"/><path fill="#b92357" d="M1601.44,1254.84c.24,2.34.57,4.64,1,6.92,0,0,86.38,104.15,154.92,77.45a73.07,73.07,0,0,0,15.78-9,65,65,0,0,1-20.53,1.1c-61.74-7.06-103.34-82.16-110.39-133.27s-32.61-182.24-32.61-182.24Z"/><path fill="#b92357" d="M1469.31,927l25.85,49.72s35.66-14.69,15-62.31c0,0,42.46,57.21-22.47,79.93Z"/><path fill="#fff" d="M1461.13,966.05c5.78,21.58,7.6,72.21,7.36,132.06-.18,43.55-1.46,92-3.12,137.69-5-17-10.45-25.4-10.45-25.4l-42.54-3-15.66-1.09s3.45-32.26,5.82-72.5c2-33.95,3.22-73.58,1-104.34-5-67.21-40.14-89.25-40.14-89.25l11.32-58.74,97.78,6.52-3.14,39C1451.69,942.14,1461.13,966.05,1461.13,966.05Z"/><path fill="#d1d3d4" d="M1468.49,1098.11c-.18,43.55,2.09,99.2-3.12,137.69-5-17-10.45-25.4-10.45-25.4l-42.54-3-15.66-1.09s3.45-32.26,5.82-72.5C1431.75,1130.16,1453.59,1114.06,1468.49,1098.11Z"/><polygon fill="#d1d3d4" points="1380.93 1349.79 1367.17 1415.01 1460.85 1421.49 1464.81 1313.4 1380.93 1349.79"/><path fill="#e92411" d="M1380.93,1349.79c-2.26,19.85-14.43,68.12-14.43,68.12-68.12,26.17-147.29,24.16-147.29,24.16l1.58-36.79C1267.12,1399.56,1380.93,1349.79,1380.93,1349.79Z"/><path fill="#299ef7" d="M1543.77,1366.2,1388,1343c-7.61-1.13-12.79-9.11-11.56-17.83l32.8-233c1.23-8.72,8.39-14.86,16-13.73l155.72,23.2c7.62,1.13,12.8,9.12,11.57,17.83l-32.8,233C1558.55,1361.19,1551.39,1367.33,1543.77,1366.2Z"/><path fill="#003d82" d="M1516.43,1079.71l-.1-1.44c-.4-6.16-4.48-11.08-9.84-11.87h0c-5.37-.8-10.63,2.72-12.72,8.5l-.49,1.36a3.15,3.15,0,0,1-3.32,2.22l-15.75-2.34a3.27,3.27,0,0,0-3.51,3l-2.09,14.84a3.34,3.34,0,0,0,2.54,3.92l60.53,9a3.27,3.27,0,0,0,3.51-3l2.09-14.84a3.33,3.33,0,0,0-2.54-3.92l-15.74-2.34A3.21,3.21,0,0,1,1516.43,1079.71Z"/><path fill="#e43864" d="M1476.57,1306.94c-6.88,4.13-25.93,12.8-45.24,21.27-25,11-50.4,21.58-50.4,21.58-2.26,19.85-14.43,68.12-14.43,68.12-68.12,26.17-143,23.46-143,23.46l-2.7-36.09s-6.08,2.5-18.51,4.2h0c-15.5,2.12-40.87,3-76.66-3.76-77-14.54-81.95-69.66-77.14-131.27,2.14-27.39,13.2-64.64,28.66-104.66l.1-.25c35.36-91.5,93.59-197.5,120.56-233.88,38.8-52.33,123.61-32.48,123.61-32.48s13.53-23.91,21.65-28.87,30.92,5.86,30.92,5.86l-5,29.74s-5.07,23.29,8.14,30.33c7.06,20.57,24.27,59.89,26.44,89.25,5,67.22-6.77,176.84-6.77,176.84l15.66,1.09,42.53,3s8.93,13.75,14.51,41.91C1476.57,1288.39,1476.57,1306.94,1476.57,1306.94Z"/><path fill="#b92357" d="M1259.77,1216.31l8-145.21s21.21,99.77,29.65,108.86,99.3,26.38,99.3,26.38S1289.63,1204,1259.77,1216.31Z"/><path fill="#b92357" d="M1214,999s-81.92,101.37-68.85,208.43Z"/><path fill="#b92357" d="M1321.39,903.19s-2.41,53.89,41.22,90.17l5-44.91s8.19,75.79,6.72,75.3S1307.62,974.8,1321.39,903.19Z"/><path fill="#e43864" d="M1366.5,1417.91c-1.68,7-11.45,57.56-73.22,88-49.68,24.51-97.94,43.89-98.44,39.66l26-153.73Z"/><path fill="#b92357" d="M1431.33,1328.21c-25,11-50.4,21.58-50.4,21.58-2.26,19.85-14.43,68.12-14.43,68.12-68.12,26.17-143,23.46-143,23.46l-2.7-36.09s-6.08,2.5-18.51,4.2h0c-15.5,2.12-40.87,3-76.66-3.76-77-14.54-81.95-69.66-77.14-131.27,2.14-27.39,13.2-64.64,28.66-104.66-5.36,14.86-16.36,156.51,38.88,194.18C1171.56,1401.86,1431.33,1328.21,1431.33,1328.21Z"/><path fill="#f1c8aa" d="M1570.36,1229.94c7.87,3.94,13.49,9.37,11.5,16.64-2.09,7.66-16,7.29-29.1,5.13,9.32,3.38,17.45,8.43,15.77,15.54-4.06,17.17-37.12-12.72-64,7.07-20.34,15-34.42,18.86-45,19.19-7.72.23-13.59-1.41-18.71-2.06-3.66-23.26-3-48.56-1-70.22a233.13,233.13,0,0,1,20.94-13.62c8.24-4.82,17.8-10,28.9-15.46,10.28-5.09,27.21-17.41,36-18.83,13.16-2.13,69.19.16,69.06,18.27-.07,10.43-19.57,10.12-33.7,8.53,14.23,3,33.67,9.35,31.84,22C1591.59,1230.32,1581.58,1231.43,1570.36,1229.94Z"/><path fill="#f1c8aa" d="M1529,1246a130.32,130.32,0,0,1,23.79,5.67A198.88,198.88,0,0,1,1529,1246Z"/><path fill="#f1c8aa" d="M1560.92,1200.12c-7.61-.88-13.66-2.11-14.29-2.24A140.36,140.36,0,0,1,1560.92,1200.12Z"/><path fill="#f1c8aa" d="M1536.89,1220.76s20,2.43,33.47,9.18C1554.79,1227.85,1536.89,1220.76,1536.89,1220.76Z"/><path fill="#f1a87f" d="M1529.7,1194.86a146.61,146.61,0,0,1,17.36,1.39,143.74,143.74,0,0,1,17.11,3.78c13.86,4,22.06,9.43,21.53,9.17-12.63-6.16-33.14-9.93-38.89-10.86s-11.42-2.25-17.15-3.19C1529.52,1195.13,1529.56,1194.85,1529.7,1194.86Z"/><path fill="#f1a87f" d="M1526.78,1222.41c7.94-1.88,30.7,1.36,43.44,7.28.54.25.32.5-.25.39-7.27-1.46-35.92-6.46-43.21-7.44C1526.64,1222.62,1526.67,1222.43,1526.78,1222.41Z"/><path fill="#f1a87f" d="M1521.1,1245.45c10.27-.9,21.74,1.7,33.5,7,.53.24.2.58-.37.45-11.1-2.59-19.8-4.73-33.15-6.88C1520.88,1245.94,1520.86,1245.47,1521.1,1245.45Z"/><path fill="#f1a87f" d="M1459.49,1293.51c-7.72.23-13.59-1.41-18.71-2.06-3.66-23.26-3-48.56-1-70.22a233.13,233.13,0,0,1,20.94-13.62s-13,59.17-1.2,85.89Z"/><path fill="#f1c8aa" d="M1467.34,1203.81c.43-.73,40.61-39.73,44.41-52,3.43-11.13,12.37-14,14.41,1s-.57,20.52-.57,20.52C1517.72,1174.6,1484.16,1198.14,1467.34,1203.81Z"/><path fill="#c62310" d="M1476.57,1306.94c-6.88,4.13-25.93,12.8-45.24,21.27-4-39.66-14.74-99.84-18.95-120.78l42.53,3s8.93,13.75,14.51,41.91C1476.57,1288.39,1476.57,1306.94,1476.57,1306.94Z"/><path fill="#f19a6d" d="M1463.71,834.84l7.46,78.45s-14.21,26.31-35.76,27c-27.87.81-66.5-30.32-66.5-30.32l20.69-102.08Z"/><path fill="#ef7c59" d="M1464.3,858.17c-12.31-2.09-19.4-5.23-29.76-12.39-12.57-8.69-23.2-19.87-33-31.65l-11.89-6.29-20.69,102.08s10.5,9.34,31.44,20.19c6.18-10.18,9.28-22.73,14-33.67a35.51,35.51,0,0,1,16.52-17.09c4.82-2.5,28.06,2.07,37.11.83Z"/><path fill="#f19a6d" d="M1501.16,827.12c-1.1,16.78-5.91,32.11-16,43.44-35.52,40.06-109.62,13.59-130.15-52.86-21.58-69.84,35.42-174.65,108.07-104.29,15,14.49,30.6,47.61,36.17,81.3A142.24,142.24,0,0,1,1501.16,827.12Z"/><path fill="#fff" d="M1479.24,838.26l-40.5,6.66s9,21.3,30.71,15.07C1484.91,855.55,1479.24,838.26,1479.24,838.26Z"/><path fill="#3e3e3e" d="M1342.31,687c-3.17-1.64-6.74-1.6-10.15-.84a32.59,32.59,0,0,0-9.84,4.1A43,43,0,0,0,1311,700.39a54.47,54.47,0,0,0-7.7,13.56,68.87,68.87,0,0,0-4,15.47,86.7,86.7,0,0,0-.81,17,102.33,102.33,0,0,0,2.39,17.24,98.71,98.71,0,0,0,5.28,16.44A87.73,87.73,0,0,0,1314,795a79,79,0,0,0,9.47,11.42c2,2,4.06,4,6.21,5.89.5.44,1,.86,1.53,1.28l.48.37c.38.29.13.1,0,0,.17.12.33.25.5.36s.51.35.78.52a15.55,15.55,0,0,0,3.29,1.64,4.88,4.88,0,0,0,3.41,0l-.69.19h.09a1.37,1.37,0,0,0,1.36-1.36,1.39,1.39,0,0,0-1.36-1.36H1339l.69.18a3.06,3.06,0,0,0-.49-.22c-.19-.07-.19-.09,0,0l-.56-.28-.27-.16-.47-.2-.2-.08c.24.11.22.1,0,0l-.37-.17a32.41,32.41,0,0,1-2.88-1.6,48.38,48.38,0,0,1-6.34-4.57c-2-1.8-4-3.7-5.81-5.68-.79-.84-1.56-1.69-2.31-2.57l-.9-1.09-.37-.47,0,.05-.15-.18c-.11-.15-.22-.29-.32-.44a78.18,78.18,0,0,1-8.25-13.78,93.16,93.16,0,0,1-5.6-15.54,97.15,97.15,0,0,1-2.92-16.36,94,94,0,0,1-.07-16.52,71.91,71.91,0,0,1,1-7.7,70.87,70.87,0,0,1,1.9-7.63,54.4,54.4,0,0,1,6.19-13.47q1-1.51,2.07-3c.35-.45.63-.81,1-1.31s.77-.93,1.16-1.37a42.28,42.28,0,0,1,5.26-5,39.34,39.34,0,0,1,7.12-4.54,25.17,25.17,0,0,1,9.84-3,14.47,14.47,0,0,1,4.9.55.44.44,0,0,0,.34-.81Z"/><path fill="#3e3e3e" d="M1519.39,637.87c8,18.92,10.56,43.68.68,61.52,7.2-6.5,7.68-10.41,10.46-19.36,6.72,24.29,9.39,49.22-10.29,61.51-36.29,22.65-109-26.24-132.39,12.34,3.35,18.2-3,42.59-15.32,56.4s-18.18,22.17-34.07,31.66c-11.43-21.85-21.72-47-29.92-71.41-6-17.71-4-39.78.42-52,5.06-13.83,16.07-30.46,30.78-31.24,3.5-17.44,21.35-28.48,38.38-33.62s35.36-3.47,52.84-.18,28.74,11.35,46.49,12.51c21.11,1.38,35-8.13,41.94-28.14Z"/><path fill="#545454" d="M1338.14,688.14a38.22,38.22,0,0,0-3.35,9.25,54.34,54.34,0,0,0,12.59,46.68c4.37,4.94,9.66,9.39,15.78,12a28.09,28.09,0,0,0,9.5,2.34,25.47,25.47,0,0,0,4.7-.18,19.52,19.52,0,0,0,5.33-1.3,9.43,9.43,0,0,0,2.24-1.39,1.37,1.37,0,0,0-1-2.32,34.94,34.94,0,0,0-5,1l-1.12.22-.56.09c-.61.1.35,0-.26,0-.79.09-1.6.15-2.4.18a24.4,24.4,0,0,1-8.48-1.2,31.05,31.05,0,0,1-8-3.87,42.9,42.9,0,0,1-7.23-6.09,52.17,52.17,0,0,1-14.53-33.91,55.86,55.86,0,0,1,.46-10.5c.26-1.79.64-3.57,1-5.35a43.5,43.5,0,0,1,1.28-5.27c.16-.54-.67-.91-.93-.39Z"/><path fill="#545454" d="M1335.54,688.36c-6.12,5-9.39,12.68-10.84,20.31a62.79,62.79,0,0,0,.25,23.07,75.47,75.47,0,0,0,7.46,21.31,77.24,77.24,0,0,0,13.45,18.3,75.77,75.77,0,0,0,8.65,7.46,48.2,48.2,0,0,0,9.88,5.84,10.07,10.07,0,0,0,1.2.43,6.12,6.12,0,0,0,1.48.11.69.69,0,0,0,.48-1.16,6,6,0,0,0-.91-1c-.4-.29-.82-.56-1.24-.81-.79-.47-1.58-.94-2.36-1.44-1.56-1-3.17-1.87-4.71-2.89a68.92,68.92,0,0,1-8.46-6.67,74.74,74.74,0,0,1-21.88-37.2,69.68,69.68,0,0,1-1.65-21.92c.63-7.55,2.87-15.2,7.9-21a25.78,25.78,0,0,1,2-2.06c.47-.44-.21-1.08-.69-.69Z"/><path fill="#545454" d="M1334.15,689.07a54.39,54.39,0,0,0-4.37,3.93c-1.36,1.42-2.64,2.89-3.86,4.43a64.61,64.61,0,0,0-13.51,32.21,61.2,61.2,0,0,0-.35,11.64,106.07,106.07,0,0,0,2.15,14.17,115,115,0,0,0,6.36,22,54.37,54.37,0,0,0,5.22,9.71,32.85,32.85,0,0,0,7.66,8.2,13.93,13.93,0,0,0,2.38,1.41c1.05.49,2.18-.76,1.29-1.66a95,95,0,0,1-7.39-7.76,49.84,49.84,0,0,1-5.44-9.05c-3.1-6.57-5-13.8-6.67-20.93-1-4.26-1.91-8.55-2.47-12.89a62.29,62.29,0,0,1-.37-11.9,65.78,65.78,0,0,1,10.92-31.86c1.06-1.56,2.18-3.08,3.37-4.54.62-.76,1.26-1.51,1.92-2.23s1.2-1.47,1.86-2.15,1.34-1.35,2-2c.49-.46-.22-1.14-.72-.72Z"/><path fill="#545454" d="M1518.71,641.73a63.89,63.89,0,0,1-3,12.29,33.88,33.88,0,0,1-6.25,10.43,36.81,36.81,0,0,1-10.25,8,49,49,0,0,1-12.34,4.76c-8.43,2-17.23,1.65-25.76.57-8.94-1.13-17.77-3-26.66-4.49s-17.68-2.67-26.6-1.91a55.7,55.7,0,0,0-23.26,7.22,48,48,0,0,0-17.1,16.5,43.64,43.64,0,0,0-4.82,11.26,58.31,58.31,0,0,0,1.93,33,32.16,32.16,0,0,0,5.4,9,28.08,28.08,0,0,0,3.79,3.52c.28.24.11.11,0,.06l.21.17c.16.14.33.27.5.4s.45.36.69.53l.22.17c.09.06.1.07,0,0l.35.27a15.85,15.85,0,0,0,2.27,1.19,18.82,18.82,0,0,0,2.7,1c.9.25,1.88.29,2.74.5,2,.47,2.8-2.56.84-3a9.31,9.31,0,0,1-1.16-.44l-.43-.19-.5-.22-.23-.1c-.81-.35-1.59-.74-2.37-1.13l-1.09-.58c-.16-.1-.32-.2-.49-.29l-.24-.14c-.51-.2-.65-.26-.41-.18s.1,0,0,0c-.35-.19-.7-.39-1-.6l-.47-.29s-.24-.18-.1-.07-.21-.17-.25-.2a23.34,23.34,0,0,1-6-7.18c-.4-.73-.77-1.47-1.12-2.22s-.5-1.14-.84-2a40.94,40.94,0,0,1-1.47-4.88,49.94,49.94,0,0,1-1.35-10,70,70,0,0,1,.23-10.24,37.26,37.26,0,0,1,3.5-12.22,42.77,42.77,0,0,1,15.2-16.93,51.57,51.57,0,0,1,21.75-8c8.56-1.07,17.4-.33,25.87,1.1,8.83,1.49,17.57,3.57,26.44,4.83s17.65,1.88,26.39.29a47.8,47.8,0,0,0,23.71-11.6,36.12,36.12,0,0,0,11.55-21.34,29.8,29.8,0,0,0,.21-6.26c0-.53-.91-.74-1-.14Z"/><path fill="#545454" d="M1518.71,642c.21,1,.36,1.92.63,2.85s.53,1.87.75,2.82a55,55,0,0,1,1,5.56,51.43,51.43,0,0,1,.27,11.23,46.41,46.41,0,0,1-6.82,20.46,41.38,41.38,0,0,1-16.74,15c-8.58,4.25-18.32,5.94-27.79,6.69a117.16,117.16,0,0,1-30.88-1.84c-10-1.89-19.9-4.42-30.11-4.92a48.13,48.13,0,0,0-23.48,4.36c-6.23,3-12,8.16-14.13,14.95-1.88,6.05-1.55,12.81-.12,18.92a35,35,0,0,0,3.43,8.93,20.59,20.59,0,0,0,5.51,6.68,16.47,16.47,0,0,0,3.18,1.76,1.07,1.07,0,0,0,1.4-.37,1,1,0,0,0-.37-1.4,14.68,14.68,0,0,1-5.43-5,27.93,27.93,0,0,1-3.79-7.83,43.4,43.4,0,0,1-1.91-9.21,33.89,33.89,0,0,1,.3-8.93,17.18,17.18,0,0,1,2.89-7.32,26.63,26.63,0,0,1,8.25-7.38c6.64-3.91,14.57-5.43,22.21-5.39,10,.06,19.67,2.67,29.35,4.65a123.27,123.27,0,0,0,30.88,2.68c9.77-.48,19.71-2.06,28.73-6a44.37,44.37,0,0,0,18.62-14.76,46.53,46.53,0,0,0,8-20.05,56.53,56.53,0,0,0-1-22.32q-.33-1.3-.72-2.61a19.12,19.12,0,0,0-1.16-2.63c-.26-.54-1.06-.15-.93.4Z"/><path fill="#545454" d="M1529.79,686.68a41.25,41.25,0,0,1-6.4,17.34,48.4,48.4,0,0,1-13.13,13.66c-11.83,8.19-27,9.89-41,9.61a151.16,151.16,0,0,1-21.36-1.73c-6.72-1.12-13.36-2.7-20.07-3.89s-13.49-2-20.27-1.52-13.47,2.38-19,6.21c-4,2.74-5.7,7.67-6.45,12.24a41.87,41.87,0,0,0-.53,7.5,23,23,0,0,0,.77,6.46c.2.63.55,1.66.74,2.24.37,1.14,2.18.65,1.8-.49a10.62,10.62,0,0,1-.4-2.23c-.09-1-.19-2-.27-3a41.83,41.83,0,0,1,0-7c.36-4.35,1.42-9.4,4.57-12.53a13.5,13.5,0,0,1,3.06-2.11,32.71,32.71,0,0,1,4.6-2.17,38.3,38.3,0,0,1,9.51-2.24,72.22,72.22,0,0,1,20,1.16c6.72,1.17,13.36,2.79,20.09,4a149,149,0,0,0,21.41,2,102.4,102.4,0,0,0,22.52-1.6,54.43,54.43,0,0,0,19.3-7.22c10.42-6.7,19.1-17.84,21.18-30.24a36.35,36.35,0,0,0,.47-4.43c0-.69-1-.66-1.06,0Z"/><path fill="#545454" d="M1529.89,686.8a33.54,33.54,0,0,1-.15,22.6,34.7,34.7,0,0,1-14.3,17.72c-6.91,4.41-14.85,6.84-22.87,8.22a115.56,115.56,0,0,1-28.9.94c-2.21-.18-4.41-.38-6.61-.67h-.1l-.42-.06-.78-.11-1.61-.24-3.32-.5c-5-.78-10.06-1.56-15.12-2.17a155.09,155.09,0,0,0-16-1.17,65.29,65.29,0,0,0-15.34,1.35c-4.5,1-9.23,2.9-12.69,6a28.45,28.45,0,0,0-4.61,5.07,26,26,0,0,0-3.23,6.76,16.09,16.09,0,0,0-.52,1.8,5.53,5.53,0,0,0,0,1.15,5.88,5.88,0,0,1,.07.89c-.14.74,1,1.06,1.15.31.11-.53.7-1.19.9-1.77s.37-1.31.58-2a24.81,24.81,0,0,1,1.4-3.32,21.39,21.39,0,0,1,4-5.49,26.55,26.55,0,0,1,11.49-6.32,55.69,55.69,0,0,1,14.7-2,113.39,113.39,0,0,1,16.05,1c4.92.61,10,1.45,15,2.27,4.2.68,8.4,1.41,12.63,1.83a124.62,124.62,0,0,0,28-.44,72,72,0,0,0,13-2.7,54.58,54.58,0,0,0,11-4.93c6.69-4,12.53-9.6,15.86-16.71a37.52,37.52,0,0,0,3-22.31,30,30,0,0,0-1.47-5.26c-.2-.53-1.06-.31-.86.23Z"/><path fill="#3e3e3e" d="M1531.75,686.49c2.06,8.74,4.63,17.36,4.82,26.41.16,7.44-1.09,15.06-4.62,21.68a29.76,29.76,0,0,1-6.47,8.32,31.9,31.9,0,0,1-9.8,5.78c-7.57,2.88-15.92,3.87-24,3.87a85,85,0,0,1-24.35-3.49c-3.65-1.08-7.28-2.22-10.93-3.28-10.72-3.12-21.72-5.69-32.9-6.38-11.34-.71-23.59.54-32.82,7.76a17.74,17.74,0,0,0-1.5,1.25c-.52.5-.86,1.19-1.38,1.67s.3,1.51.93.93a13.2,13.2,0,0,1,1.69-1c.59-.39,1.16-.82,1.77-1.2a33.48,33.48,0,0,1,3.58-2,42.93,42.93,0,0,1,7.71-2.78,60.48,60.48,0,0,1,17.15-1.65c11.25.38,22.32,2.93,33.18,6.1,3.88,1.13,7.73,2.38,11.6,3.56a82.74,82.74,0,0,0,22.91,3.52,77,77,0,0,0,24.78-3.49c7.33-2.41,13.93-6.57,18.3-13a40.63,40.63,0,0,0,6.42-20.52c.45-8.73-1.36-17.49-3.59-25.88-.57-2.14-1.17-4.26-1.85-6.37a.34.34,0,0,0-.66.18Z"/><path fill="#3e3e3e" d="M1385.93,753.08a17.93,17.93,0,0,1,3.25,7.89,36,36,0,0,1,.64,8.61,71.67,71.67,0,0,1-.8,8.65,40.51,40.51,0,0,1-2.17,8.69,21.9,21.9,0,0,1-1.82,3.62c-.59,1-2.37,2.85-1.26,4,.56.57,1.62.1,2.09-.32a7.9,7.9,0,0,0,1.41-1.89,26.28,26.28,0,0,0,2-4.12,40.07,40.07,0,0,0,2.09-8.49,80.15,80.15,0,0,0,.8-9c.17-6.46-.79-13.34-5.08-18.46-.51-.6-1.55.2-1.1.85Z"/><path fill="#ef7c59" d="M1465.62,828.85a2.42,2.42,0,0,1-1.58-.59,2.38,2.38,0,0,1-.2-3.36c5.42-6.14,9.89-13,9.69-15-1.19-1.19-8.2-1.51-14.88-.66a2.39,2.39,0,0,1-2.43-1.3c-5.94-12-6.57-33-6.6-33.88a2.38,2.38,0,0,1,2.31-2.44,2.36,2.36,0,0,1,2.44,2.31c0,.2.58,19.08,5.42,30.39,6.76-.7,16.55-.84,18.22,4,1.74,5-6.84,15.45-10.61,19.71A2.38,2.38,0,0,1,1465.62,828.85Z"/><path fill="#151515" d="M1434,794.77c1,3-.35,6.18-3,7s-5.49-1-6.45-4,.35-6.18,2.94-7S1433.07,791.72,1434,794.77Z"/><path fill="#151515" d="M1483,786.81c1,3.05-.35,6.19-2.94,7s-5.49-1-6.46-4,.35-6.19,3-7S1482,783.77,1483,786.81Z"/><path fill="#ef7c59" d="M1438.16,818.27c1.53,9.06-6.28,17.94-17.43,19.82s-21.44-4-23-13,6.28-17.94,17.44-19.82S1436.63,809.2,1438.16,818.27Z"/><path fill="#ef7c59" d="M1501.16,827.12c-8.39-.82-15.22-6-16.44-13.25-1.38-8.26,5-16.37,14.58-19.16A142.24,142.24,0,0,1,1501.16,827.12Z"/><path fill="none" stroke="#343434" stroke-linecap="round" stroke-linejoin="round" stroke-width="3.99" d="M1434.58,770.25s-18.8-7.66-26.64,10.49Z"/><path fill="none" stroke="#343434" stroke-linecap="round" stroke-linejoin="round" stroke-width="3.99" d="M1460.89,767s15.67-12.9,28.56,2.1Z"/><path fill="#ef7c59" d="M1371.06,821c.53,11.36-5.52,20.86-13.51,21.23s-14.9-8.52-15.43-19.88,5.52-20.85,13.51-21.23S1370.53,809.64,1371.06,821Z"/><path fill="#f19a6d" d="M1371.06,821a26.1,26.1,0,0,0-4-12.85c-7.73,2-13.28,11.74-12.75,23.26a31,31,0,0,0,2.43,10.75,6.68,6.68,0,0,0,.77.07C1365.54,841.85,1371.59,832.35,1371.06,821Z"/><path fill="#003d82" d="M4049.62,1146.86,4027,1135.53a137.31,137.31,0,0,0,4.19-57.54l24-8a5.76,5.76,0,0,0,3.66-7.28l-12.32-37.15a5.76,5.76,0,0,0-7.28-3.66l-24,8a137.2,137.2,0,0,0-37.72-43.64l11.33-22.57a5.76,5.76,0,0,0-2.56-7.73l-35-17.56a5.76,5.76,0,0,0-7.73,2.56l-11.33,22.57a137.29,137.29,0,0,0-57.54-4.18l-7.95-24a5.75,5.75,0,0,0-7.27-3.65L3822.36,944a5.76,5.76,0,0,0-3.65,7.28l7.95,24A137.25,137.25,0,0,0,3783,1013l-22.58-11.33a5.76,5.76,0,0,0-7.73,2.56l-17.56,35a5.74,5.74,0,0,0,2.56,7.72l22.58,11.34a137.09,137.09,0,0,0-4.18,57.53l-24,8a5.76,5.76,0,0,0-3.65,7.28l12.32,37.16a5.75,5.75,0,0,0,7.27,3.65l24-7.95a137.12,137.12,0,0,0,37.73,43.64l-11.34,22.58a5.75,5.75,0,0,0,2.57,7.72l35,17.57a5.76,5.76,0,0,0,7.73-2.57l11.33-22.57a137.14,137.14,0,0,0,57.54,4.18l7.95,24a5.75,5.75,0,0,0,7.27,3.65l37.16-12.32a5.76,5.76,0,0,0,3.65-7.28l-7.95-24a137.28,137.28,0,0,0,43.65-37.73l22.57,11.33a5.76,5.76,0,0,0,7.73-2.56l17.56-35A5.75,5.75,0,0,0,4049.62,1146.86Zm-197.55,32.91a92.71,92.71,0,1,1,124.46-41.26A92.83,92.83,0,0,1,3852.07,1179.77Z"/><path fill="#b41d55" d="M3907.12,836.88l-14.73-3.8a82.66,82.66,0,0,0-4.84-34.39l13.1-7.72a3.47,3.47,0,0,0,1.22-4.75l-12-20.3a3.45,3.45,0,0,0-4.74-1.22l-13.1,7.72a82.49,82.49,0,0,0-27.74-20.89l3.8-14.72a3.47,3.47,0,0,0-2.49-4.23l-22.81-5.89a3.47,3.47,0,0,0-4.23,2.49l-3.8,14.72a82.69,82.69,0,0,0-34.39,4.85l-7.72-13.1a3.46,3.46,0,0,0-4.74-1.23l-20.3,12a3.47,3.47,0,0,0-1.23,4.75l7.72,13.1A82.75,82.75,0,0,0,3733.24,792l-14.72-3.8a3.46,3.46,0,0,0-4.22,2.48l-5.89,22.82a3.46,3.46,0,0,0,2.49,4.22l14.72,3.81a82.64,82.64,0,0,0,4.84,34.38l-13.1,7.72a3.48,3.48,0,0,0-1.22,4.75l12,20.3a3.46,3.46,0,0,0,4.74,1.23l13.1-7.73a82.49,82.49,0,0,0,27.74,20.89l-3.8,14.73a3.47,3.47,0,0,0,2.49,4.22l22.82,5.89a3.47,3.47,0,0,0,4.22-2.49l3.8-14.72a82.69,82.69,0,0,0,34.39-4.85l7.72,13.1a3.46,3.46,0,0,0,4.74,1.23l20.3-12a3.47,3.47,0,0,0,1.23-4.75l-7.72-13.09a82.79,82.79,0,0,0,20.89-27.75l14.72,3.81a3.48,3.48,0,0,0,4.22-2.49l5.89-22.82A3.46,3.46,0,0,0,3907.12,836.88Zm-112.07,44.45a55.81,55.81,0,1,1,68-40.08A55.88,55.88,0,0,1,3795.05,881.33Z"/><path fill="#299ef7" d="M4036.59,1141.9,4014,1130.57a137.13,137.13,0,0,0,4.18-57.54l24-7.94a5.77,5.77,0,0,0,3.65-7.28l-12.32-37.16a5.76,5.76,0,0,0-7.28-3.65l-24,8a137.25,137.25,0,0,0-37.73-43.64l11.33-22.58a5.76,5.76,0,0,0-2.56-7.73l-35-17.56a5.75,5.75,0,0,0-7.73,2.56l-11.34,22.58a137.08,137.08,0,0,0-57.53-4.18l-7.95-24a5.76,5.76,0,0,0-7.28-3.65l-37.16,12.32a5.76,5.76,0,0,0-3.65,7.27l8,24a137.35,137.35,0,0,0-43.64,37.73l-22.57-11.34a5.76,5.76,0,0,0-7.73,2.57l-17.57,35a5.77,5.77,0,0,0,2.57,7.73l22.57,11.33a137.14,137.14,0,0,0-4.18,57.54l-24,7.95a5.77,5.77,0,0,0-3.65,7.28l12.32,37.15a5.76,5.76,0,0,0,7.28,3.66l24-8a137.35,137.35,0,0,0,37.73,43.64l-11.33,22.57a5.76,5.76,0,0,0,2.56,7.73l35,17.56a5.74,5.74,0,0,0,7.72-2.56l11.34-22.57a137.42,137.42,0,0,0,57.53,4.18l8,24a5.76,5.76,0,0,0,7.28,3.66l37.16-12.32a5.77,5.77,0,0,0,3.65-7.28l-7.95-24a137.2,137.2,0,0,0,43.64-37.72l22.58,11.33a5.74,5.74,0,0,0,7.72-2.56l17.57-35A5.76,5.76,0,0,0,4036.59,1141.9ZM3839,1174.82a92.72,92.72,0,1,1,124.46-41.27A92.82,92.82,0,0,1,3839,1174.82Z"/><path fill="#fe4565" d="M3894.09,831.92l-14.72-3.8a82.62,82.62,0,0,0-4.85-34.38l13.1-7.73a3.46,3.46,0,0,0,1.23-4.74l-12-20.3a3.47,3.47,0,0,0-4.75-1.23l-13.1,7.72a82.75,82.75,0,0,0-27.74-20.89l3.81-14.72a3.48,3.48,0,0,0-2.49-4.22l-22.82-5.89a3.46,3.46,0,0,0-4.22,2.49l-3.8,14.72a82.66,82.66,0,0,0-34.39,4.84l-7.72-13.09a3.47,3.47,0,0,0-4.75-1.23l-20.3,12a3.45,3.45,0,0,0-1.22,4.74l7.72,13.1A82.49,82.49,0,0,0,3720.22,787l-14.72-3.8a3.47,3.47,0,0,0-4.23,2.49l-5.89,22.82a3.47,3.47,0,0,0,2.49,4.22l14.72,3.8a82.67,82.67,0,0,0,4.85,34.39l-13.1,7.72a3.47,3.47,0,0,0-1.23,4.75l12,20.3a3.48,3.48,0,0,0,4.75,1.22l13.09-7.72a82.66,82.66,0,0,0,27.75,20.89l-3.81,14.72a3.47,3.47,0,0,0,2.49,4.22l22.82,5.9a3.48,3.48,0,0,0,4.22-2.49l3.8-14.73a82.5,82.5,0,0,0,34.39-4.84l7.72,13.1a3.46,3.46,0,0,0,4.75,1.22l20.3-12a3.46,3.46,0,0,0,1.22-4.75l-7.72-13.1a82.49,82.49,0,0,0,20.89-27.74l14.72,3.8a3.47,3.47,0,0,0,4.23-2.49l5.89-22.81A3.47,3.47,0,0,0,3894.09,831.92ZM3782,876.38a55.81,55.81,0,1,1,68-40.09A55.88,55.88,0,0,1,3782,876.38Z"/><polygon fill="#f9d8ae" points="1616.41 2695.19 1699.45 2717.43 1750.61 2692.6 1718.72 2645.52 1635.68 2623.27 1584.53 2648.11 1616.41 2695.19"/><rect width="1331.98" height="85.97" x="1183.52" y="1948.1" fill="#febb07" transform="rotate(-75 1849.699 1991.117)"/><polygon fill="#fdd305" points="1938.79 1325.53 1980.31 1336.65 1635.68 2623.27 1584.53 2648.11 1938.79 1325.53"/><polygon fill="#fa7a1d" points="2104.87 1370.01 2063.35 1358.89 1718.72 2645.52 1750.61 2692.6 2104.87 1370.01"/><polygon fill="#f9d8ae" points="2104.87 1370.01 2074.06 1152.79 1938.79 1325.53 2104.87 1370.01"/><polygon fill="url(#b)" points="2088.11 1251.87 2012.36 1231.58 2074.06 1152.79 2088.11 1251.87"/><path fill="#303030" d="M1826.15,2588.28l224.68,125.77a44.37,44.37,0,0,0,46.28-3l210.59-148.74a23.14,23.14,0,0,0-2.07-39.12l-209.77-117a26.82,26.82,0,0,0-26.53.22l-244,141.39A23.15,23.15,0,0,0,1826.15,2588.28Z"/><polygon fill="#fff" points="1859.24 2558.57 2075.34 2675.1 2269.91 2536.1 2077.36 2427.27 1859.24 2558.57"/><polygon fill="gray" points="2070.77 2646.88 2039.63 2672.34 1875.83 2580.37 1917.28 2557.76 2070.77 2646.88"/><path fill="none" stroke="#000" stroke-miterlimit="10" stroke-width="6.93" d="M1945.26,2540.79l148,88.72Z"/><path fill="none" stroke="#000" stroke-miterlimit="10" stroke-width="6.93" d="M1970.12,2525.43,2121,2612.75Z"/><path fill="none" stroke="#000" stroke-miterlimit="10" stroke-width="6.93" d="M1994.65,2510.8,2148.82,2596Z"/><path fill="none" stroke="#000" stroke-miterlimit="10" stroke-width="6.93" d="M2023.66,2492.89l153,86.33Z"/><path fill="none" stroke="#000" stroke-miterlimit="10" stroke-width="6.93" d="M2052.12,2476.49l152.29,86Z"/><path fill="none" stroke="#000" stroke-miterlimit="10" stroke-width="6.93" d="M2076,2458.49l156.19,87.2Z"/><path fill="#f58220" d="M2915.62,451.3l-23.78,39.29-150.3-1.41c-20.59-.19-38.05,16.29-37.91,35.77l4.54,172.68c.13,17.45,14.46,31,32.89,31.23L3080.23,732c18.62.18,35.07-13.39,37.59-31l35.61-230.36c2.75-19.3-12.18-35.79-32.58-36l-172.26-1.62A38.38,38.38,0,0,0,2915.62,451.3Z"/><polygon fill="#fff" points="2720.87 566.7 2725.58 503.66 2988.71 506.13 2983.99 569.18 2720.87 566.7"/><path fill="#ffd900" d="M3170.15,509.55l-39,254c-2.74,19.15-20.62,33.91-40.87,33.72l-368.86-3.47c-20-.19-35.63-15-35.78-33.95l-.47-19L2681,568.58c-.15-21.19,18.84-39.11,41.22-38.9l163.46,1.53,25.86-42.73a41.75,41.75,0,0,1,35.86-19.82l115,1.09,72.33.68C3156.9,470.63,3173.15,488.57,3170.15,509.55Z"/><path fill="#ffb801" d="M3170.15,509.55l-39,254c-2.74,19.15-20.62,33.91-40.87,33.72l-368.86-3.47c-20-.19-35.63-15-35.78-33.95l-.47-19c94.4-.18,310.66,9.43,370.71-38.38,64.25-51.15,22.36-187.33,6.5-232.7l72.33.68C3156.9,470.63,3173.15,488.57,3170.15,509.55Z"/><path fill="#924" d="M2585.6,2362.42c0,183.44,140,341.78,322.4,354.31,194,13.34,360.47-141.49,360.47-346.6S3102,2006.43,2908,2015.38C2725.63,2023.8,2585.6,2179,2585.6,2362.42Z"/><path fill="#e43864" d="M2567.2,2362.42c0,183.44,140,341.78,322.4,354.31,194,13.34,360.47-141.49,360.47-346.6s-166.51-363.7-360.47-354.75C2707.23,2023.8,2567.2,2179,2567.2,2362.42Z"/><path fill="#b92357" d="M2825.43,2599.12c65.87-74.86,3.63-170.9,72.64-264.16,64-86.53,154.17-55.9,223.6-147.13a228.53,228.53,0,0,0,33.29-62,358.78,358.78,0,0,1,95.11,244.29c0,205.11-166.51,359.94-360.47,346.6a337.44,337.44,0,0,1-178.85-66.43C2767.25,2645.12,2802.77,2624.87,2825.43,2599.12Z"/><path fill="url(#a)" d="M2597.9,2362.76c0,166,127.08,308.54,291.7,318.91,174,11,322.52-128.45,322.52-312s-148.51-326.28-322.52-319.25C2725,2057.1,2597.9,2196.79,2597.9,2362.76Z"/><path d="M2889.6,2681.67A302.14,302.14,0,0,1,2757,2641.54c30.81-9.39,52.7-24.59,68.39-42.42,65.87-74.86,3.63-170.9,72.64-264.16,64-86.53,154.17-55.9,223.6-147.13A218.94,218.94,0,0,0,3138,2163a323.15,323.15,0,0,1,74.1,206.7C3212.12,2553.22,3063.61,2692.63,2889.6,2681.67Z" style="mix-blend-mode:multiply" fill="#f2f2f2" opacity=".3"/><path fill="#e43864" d="M2660.29,2363.47c0,130.48,100.5,241.43,229.31,248.06,134.49,6.93,247.94-101.59,247.94-242.67s-113.45-252.16-247.94-248.27C2760.79,2124.31,2660.29,2233,2660.29,2363.47Z"/><path fill="#b92357" d="M2898.07,2335c54.63-73.82,128.17-62.4,191.76-114a251.56,251.56,0,0,1,47.71,147.94c0,141.08-113.45,249.6-247.94,242.67a234.07,234.07,0,0,1-64.17-12.41h0C2891.3,2524.26,2829.06,2428.22,2898.07,2335Z"/><path fill="url(#c)" d="M2724,2364.19c0,94.21,73,173.5,165.57,177.21,95.46,3.82,175.07-73.75,175.07-173.36s-79.61-179-175.07-177.32C2797,2192.34,2724,2270,2724,2364.19Z"/><path d="M3026,2256.26A179.58,179.58,0,0,1,3064.67,2368c0,99.61-79.61,177.18-175.07,173.36a166.82,166.82,0,0,1-34.29-5c12.22-62.5-8.32-132.46,42.76-201.48C2935,2285,2980.62,2274.08,3026,2256.26Z" style="mix-blend-mode:multiply" fill="#f2f2f2" opacity=".3"/><path fill="#e43864" d="M2789.17,2364.93c0,57.14,44.55,104.74,100.43,106.33,56.92,1.63,103.85-44.94,103.85-104s-46.93-106.71-103.85-106.37C2833.72,2261.19,2789.17,2307.78,2789.17,2364.93Z"/><path fill="#b92357" d="M2860.63,2466.11c1.36-42.62,4.73-87,37.44-131.15a168.78,168.78,0,0,1,57.7-49.77,107.49,107.49,0,0,1,37.68,82c0,59.09-46.93,105.66-103.85,104A99.93,99.93,0,0,1,2860.63,2466.11Z"/><path fill="#febb07" d="M2600.24,2265.28,2576,2256.1l-2-52.31a9.07,9.07,0,0,1,12.28-8.83l11.43,4.32Z"/><polygon fill="#fa7a1d" points="2624.48 2274.45 2600.24 2265.28 2597.74 2199.28 2621.98 2208.46 2624.48 2274.45"/><polygon fill="#febb07" points="2648.72 2283.63 2624.48 2274.45 2621.98 2208.46 2646.22 2217.63 2648.72 2283.63"/><polygon fill="#fa7a1d" points="2672.95 2292.8 2648.72 2283.63 2646.22 2217.63 2670.45 2226.81 2672.95 2292.8"/><path fill="#febb07" d="M2697.19,2302,2673,2292.8l-2.5-66,12,4.54a19.73,19.73,0,0,1,12.72,17.69Z"/><path fill="#febb07" d="M2600.24,2265.28,2576,2256.1,2539.88,2294a9.08,9.08,0,0,0,3.36,14.76l11.43,4.32Z"/><polygon fill="#fa7a1d" points="2624.48 2274.45 2600.24 2265.28 2554.67 2313.07 2578.9 2322.25 2624.48 2274.45"/><polygon fill="#febb07" points="2648.72 2283.63 2624.48 2274.45 2578.9 2322.25 2603.14 2331.42 2648.72 2283.63"/><polygon fill="#fa7a1d" points="2672.95 2292.8 2648.72 2283.63 2603.14 2331.42 2627.38 2340.6 2672.95 2292.8"/><path fill="#febb07" d="M2697.19,2302,2673,2292.8l-45.57,47.8,12,4.55a19.7,19.7,0,0,0,21.24-4.84Z"/><path fill="none" stroke="#1d1d1d" stroke-linecap="round" stroke-linejoin="round" stroke-width="9.75" d="M2581.3,2258.11l302.83,114.64Z"/></g></svg>